<svg id="rh-diagram-svg" width="1200" height="3022" xmlns="http://www.w3.org/2000/svg" xmlns:xlink="http://www.w3.org/1999/xlink" class="flowchart" style="background-color: white;" viewBox="0 0 307.3046875 773.7999877929688" role="graphics-document document" aria-roledescription="flowchart-v2"><style>#rh-diagram-svg{font-family:"trebuchet ms",verdana,arial,sans-serif;font-size:16px;fill:#333;}@keyframes edge-animation-frame{from{stroke-dashoffset:0;}}@keyframes dash{to{stroke-dashoffset:0;}}#rh-diagram-svg .edge-animation-slow{stroke-dasharray:9,5!important;stroke-dashoffset:900;animation:dash 50s linear infinite;stroke-linecap:round;}#rh-diagram-svg .edge-animation-fast{stroke-dasharray:9,5!important;stroke-dashoffset:900;animation:dash 20s linear infinite;stroke-linecap:round;}#rh-diagram-svg .error-icon{fill:#552222;}#rh-diagram-svg .error-text{fill:#552222;stroke:#552222;}#rh-diagram-svg .edge-thickness-normal{stroke-width:1px;}#rh-diagram-svg .edge-thickness-thick{stroke-width:3.5px;}#rh-diagram-svg .edge-pattern-solid{stroke-dasharray:0;}#rh-diagram-svg .edge-thickness-invisible{stroke-width:0;fill:none;}#rh-diagram-svg .edge-pattern-dashed{stroke-dasharray:3;}#rh-diagram-svg .edge-pattern-dotted{stroke-dasharray:2;}#rh-diagram-svg .marker{fill:#333333;stroke:#333333;}#rh-diagram-svg .marker.cross{stroke:#333333;}#rh-diagram-svg svg{font-family:"trebuchet ms",verdana,arial,sans-serif;font-size:16px;}#rh-diagram-svg p{margin:0;}#rh-diagram-svg .label{font-family:"trebuchet ms",verdana,arial,sans-serif;color:#333;}#rh-diagram-svg .cluster-label text{fill:#333;}#rh-diagram-svg .cluster-label span{color:#333;}#rh-diagram-svg .cluster-label span p{background-color:transparent;}#rh-diagram-svg .label text,#rh-diagram-svg span{fill:#333;color:#333;}#rh-diagram-svg .node rect,#rh-diagram-svg .node circle,#rh-diagram-svg .node ellipse,#rh-diagram-svg .node polygon,#rh-diagram-svg .node path{fill:#ECECFF;stroke:#9370DB;stroke-width:1px;}#rh-diagram-svg .rough-node .label text,#rh-diagram-svg .node .label text,#rh-diagram-svg .image-shape .label,#rh-diagram-svg .icon-shape .label{text-anchor:middle;}#rh-diagram-svg .node .katex path{fill:#000;stroke:#000;stroke-width:1px;}#rh-diagram-svg .rough-node .label,#rh-diagram-svg .node .label,#rh-diagram-svg .image-shape .label,#rh-diagram-svg .icon-shape .label{text-align:center;}#rh-diagram-svg .node.clickable{cursor:pointer;}#rh-diagram-svg .root .anchor path{fill:#333333!important;stroke-width:0;stroke:#333333;}#rh-diagram-svg .arrowheadPath{fill:#333333;}#rh-diagram-svg .edgePath .path{stroke:#333333;stroke-width:2.0px;}#rh-diagram-svg .flowchart-link{stroke:#333333;fill:none;}#rh-diagram-svg .edgeLabel{background-color:rgba(232,232,232, 0.8);text-align:center;}#rh-diagram-svg .edgeLabel p{background-color:rgba(232,232,232, 0.8);}#rh-diagram-svg .edgeLabel rect{opacity:0.5;background-color:rgba(232,232,232, 0.8);fill:rgba(232,232,232, 0.8);}#rh-diagram-svg .labelBkg{background-color:rgba(232, 232, 232, 0.5);}#rh-diagram-svg .cluster rect{fill:#ffffde;stroke:#aaaa33;stroke-width:1px;}#rh-diagram-svg .cluster text{fill:#333;}#rh-diagram-svg .cluster span{color:#333;}#rh-diagram-svg div.mermaidTooltip{position:absolute;text-align:center;max-width:200px;padding:2px;font-family:"trebuchet ms",verdana,arial,sans-serif;font-size:12px;background:hsl(80, 100%, 96.2745098039%);border:1px solid #aaaa33;border-radius:2px;pointer-events:none;z-index:100;}#rh-diagram-svg .flowchartTitleText{text-anchor:middle;font-size:18px;fill:#333;}#rh-diagram-svg rect.text{fill:none;stroke-width:0;}#rh-diagram-svg .icon-shape,#rh-diagram-svg .image-shape{background-color:rgba(232,232,232, 0.8);text-align:center;}#rh-diagram-svg .icon-shape p,#rh-diagram-svg .image-shape p{background-color:rgba(232,232,232, 0.8);padding:2px;}#rh-diagram-svg .icon-shape .label rect,#rh-diagram-svg .image-shape .label rect{opacity:0.5;background-color:rgba(232,232,232, 0.8);fill:rgba(232,232,232, 0.8);}#rh-diagram-svg .label-icon{display:inline-block;height:1em;overflow:visible;vertical-align:-0.125em;}#rh-diagram-svg .node .label-icon path{fill:currentColor;stroke:revert;stroke-width:revert;}#rh-diagram-svg :root{--mermaid-font-family:"trebuchet ms",verdana,arial,sans-serif;}</style><g><marker id="rh-diagram-svg_flowchart-v2-pointEnd" class="marker flowchart-v2" viewBox="0 0 10 10" refX="5" refY="5" markerUnits="userSpaceOnUse" markerWidth="8" markerHeight="8" orient="auto"><path d="M 0 0 L 10 5 L 0 10 z" class="arrowMarkerPath" style="stroke-width: 1; stroke-dasharray: 1, 0;"/></marker><marker id="rh-diagram-svg_flowchart-v2-pointStart" class="marker flowchart-v2" viewBox="0 0 10 10" refX="4.5" refY="5" markerUnits="userSpaceOnUse" markerWidth="8" markerHeight="8" orient="auto"><path d="M 0 5 L 10 10 L 10 0 z" class="arrowMarkerPath" style="stroke-width: 1; stroke-dasharray: 1, 0;"/></marker><marker id="rh-diagram-svg_flowchart-v2-circleEnd" class="marker flowchart-v2" viewBox="0 0 10 10" refX="11" refY="5" markerUnits="userSpaceOnUse" markerWidth="11" markerHeight="11" orient="auto"><circle cx="5" cy="5" r="5" class="arrowMarkerPath" style="stroke-width: 1; stroke-dasharray: 1, 0;"/></marker><marker id="rh-diagram-svg_flowchart-v2-circleStart" class="marker flowchart-v2" viewBox="0 0 10 10" refX="-1" refY="5" markerUnits="userSpaceOnUse" markerWidth="11" markerHeight="11" orient="auto"><circle cx="5" cy="5" r="5" class="arrowMarkerPath" style="stroke-width: 1; stroke-dasharray: 1, 0;"/></marker><marker id="rh-diagram-svg_flowchart-v2-crossEnd" class="marker cross flowchart-v2" viewBox="0 0 11 11" refX="12" refY="5.2" markerUnits="userSpaceOnUse" markerWidth="11" markerHeight="11" orient="auto"><path d="M 1,1 l 9,9 M 10,1 l -9,9" class="arrowMarkerPath" style="stroke-width: 2; stroke-dasharray: 1, 0;"/></marker><marker id="rh-diagram-svg_flowchart-v2-crossStart" class="marker cross flowchart-v2" viewBox="0 0 11 11" refX="-1" refY="5.2" markerUnits="userSpaceOnUse" markerWidth="11" markerHeight="11" orient="auto"><path d="M 1,1 l 9,9 M 10,1 l -9,9" class="arrowMarkerPath" style="stroke-width: 2; stroke-dasharray: 1, 0;"/></marker><g class="root"><g class="clusters"/><g class="edgePaths"><path d="M154.152,40.5L153.652,65L153.652,86" id="L_HTTP_API_0" class="edge-thickness-normal edge-pattern-solid edge-thickness-normal edge-pattern-solid flowchart-link" style=";" data-edge="true" data-et="edge" data-id="L_HTTP_API_0" data-points="W3sieCI6MTU0LjE1MjM0Mzc1LCJ5Ijo0MC41fSx7IngiOjE1My42NTIzNDM3NSwieSI6NjV9LHsieCI6MTUzLjY1MjM0Mzc1LCJ5Ijo5MH1d" marker-end="url(#rh-diagram-svg_flowchart-v2-pointEnd)"/><path d="M153.652,176.2L153.652,207.7L153.652,239.2" id="L_API_EC_0" class="edge-thickness-normal edge-pattern-dotted edge-thickness-normal edge-pattern-solid flowchart-link" style=";" data-edge="true" data-et="edge" data-id="L_API_EC_0" data-points="W3sieCI6MTUzLjY1MjM0Mzc1LCJ5IjoxNzIuMTk5OTk2OTQ4MjQyMn0seyJ4IjoxNTMuNjUyMzQzNzUsInkiOjIwNy42OTk5OTY5NDgyNDIyfSx7IngiOjE1My42NTIzNDM3NSwieSI6MjQzLjE5OTk5Njk0ODI0MjJ9XQ==" marker-start="url(#rh-diagram-svg_flowchart-v2-pointStart)" marker-end="url(#rh-diagram-svg_flowchart-v2-pointEnd)"/><path d="M153.652,307.8L153.652,332.8L153.652,353.8" id="L_EC_TP_0" class="edge-thickness-normal edge-pattern-dotted edge-thickness-normal edge-pattern-solid flowchart-link" style=";" data-edge="true" data-et="edge" data-id="L_EC_TP_0" data-points="W3sieCI6MTUzLjY1MjM0Mzc1LCJ5IjozMDcuNzk5OTk1NDIyMzYzM30seyJ4IjoxNTMuNjUyMzQzNzUsInkiOjMzMi43OTk5OTU0MjIzNjMzfSx7IngiOjE1My42NTIzNDM3NSwieSI6MzU3Ljc5OTk5NTQyMjM2MzN9XQ==" marker-end="url(#rh-diagram-svg_flowchart-v2-pointEnd)"/></g><g class="edgeLabels"><g class="edgeLabel"><g class="label" data-id="L_HTTP_API_0" transform="translate(0, 0)"><text y="-10.1" text-anchor="middle"><tspan class="text-outer-tspan row" x="0" y="-0.1em" dy="1.1em" text-anchor="middle"/></text></g></g><g><rect class="background" style="stroke: none"/></g><g class="edgeLabel" transform="translate(153.65234375, 207.6999969482422)"><g class="label" data-id="L_API_EC_0" transform="translate(0, -10.5)"><g><rect class="background" style="" x="-19.7734375" y="0" width="39.546875" height="21"/><text y="-10.1" text-anchor="middle" style=""><tspan class="text-outer-tspan row" x="0" y="-0.1em" dy="1.1em" text-anchor="middle"><tspan font-style="normal" class="text-inner-tspan" font-weight="normal">ZMQ</tspan></tspan></text></g></g></g><g class="edgeLabel"><g class="label" data-id="L_EC_TP_0" transform="translate(0, 0)"><text y="-10.1" text-anchor="middle"><tspan class="text-outer-tspan row" x="0" y="-0.1em" dy="1.1em" text-anchor="middle"/></text></g></g><g><rect class="background" style="stroke: none"/></g></g><g class="nodes"><g class="root" transform="translate(0, 349.7999954223633)"><g class="clusters"><g class="cluster" id="TP" data-look="classic"><rect style="fill:#e0f0ff !important;stroke:#0066cc !important" x="8" y="8" width="291.3046875" height="408"/><g class="cluster-label" transform="translate(16, 8)"><g><rect class="background" style="stroke: none"/><text y="-10.1" style="text-anchor:start;text-anchor:start;"><tspan class="text-outer-tspan row" x="0" y="-0.1em" dy="1.1em"><tspan font-style="normal" class="text-inner-tspan" font-weight="normal">TP</tspan><tspan font-style="normal" class="text-inner-tspan" font-weight="normal"> Group</tspan><tspan font-style="normal" class="text-inner-tspan" font-weight="normal"> (TP=4)</tspan></tspan></text></g></g></g></g><g class="edgePaths"/><g class="edgeLabels"/><g class="nodes"><g class="node default" id="flowchart-GW0-6" transform="translate(153.65234375, 66.5)"><rect class="basic label-container" style="" x="-108.15234375" y="-23.5" width="216.3046875" height="47"/><g class="label" style="" transform="translate(0, -8.5)"><rect/><g><rect class="background" style="stroke: none"/><text y="-10.1" style=""><tspan class="text-outer-tspan row" x="0" y="-0.1em" dy="1.1em"><tspan font-style="normal" class="text-inner-tspan" font-weight="normal">GPU</tspan><tspan font-style="normal" class="text-inner-tspan" font-weight="normal"> Worker</tspan><tspan font-style="normal" class="text-inner-tspan" font-weight="normal"> 0</tspan><tspan font-style="normal" class="text-inner-tspan" font-weight="normal"> GPU</tspan><tspan font-style="normal" class="text-inner-tspan" font-weight="normal"> 0</tspan></tspan></text></g></g></g><g class="node default" id="flowchart-GW1-7" transform="translate(153.65234375, 163.5)"><rect class="basic label-container" style="" x="-108.15234375" y="-23.5" width="216.3046875" height="47"/><g class="label" style="" transform="translate(0, -8.5)"><rect/><g><rect class="background" style="stroke: none"/><text y="-10.1" style=""><tspan class="text-outer-tspan row" x="0" y="-0.1em" dy="1.1em"><tspan font-style="normal" class="text-inner-tspan" font-weight="normal">GPU</tspan><tspan font-style="normal" class="text-inner-tspan" font-weight="normal"> Worker</tspan><tspan font-style="normal" class="text-inner-tspan" font-weight="normal"> 1</tspan><tspan font-style="normal" class="text-inner-tspan" font-weight="normal"> GPU</tspan><tspan font-style="normal" class="text-inner-tspan" font-weight="normal"> 1</tspan></tspan></text></g></g></g><g class="node default" id="flowchart-GW2-8" transform="translate(153.65234375, 260.5)"><rect class="basic label-container" style="" x="-108.15234375" y="-23.5" width="216.3046875" height="47"/><g class="label" style="" transform="translate(0, -8.5)"><rect/><g><rect class="background" style="stroke: none"/><text y="-10.1" style=""><tspan class="text-outer-tspan row" x="0" y="-0.1em" dy="1.1em"><tspan font-style="normal" class="text-inner-tspan" font-weight="normal">GPU</tspan><tspan font-style="normal" class="text-inner-tspan" font-weight="normal"> Worker</tspan><tspan font-style="normal" class="text-inner-tspan" font-weight="normal"> 2</tspan><tspan font-style="normal" class="text-inner-tspan" font-weight="normal"> GPU</tspan><tspan font-style="normal" class="text-inner-tspan" font-weight="normal"> 2</tspan></tspan></text></g></g></g><g class="node default" id="flowchart-GW3-9" transform="translate(153.65234375, 357.5)"><rect class="basic label-container" style="" x="-108.15234375" y="-23.5" width="216.3046875" height="47"/><g class="label" style="" transform="translate(0, -8.5)"><rect/><g><rect class="background" style="stroke: none"/><text y="-10.1" style=""><tspan class="text-outer-tspan row" x="0" y="-0.1em" dy="1.1em"><tspan font-style="normal" class="text-inner-tspan" font-weight="normal">GPU</tspan><tspan font-style="normal" class="text-inner-tspan" font-weight="normal"> Worker</tspan><tspan font-style="normal" class="text-inner-tspan" font-weight="normal"> 3</tspan><tspan font-style="normal" class="text-inner-tspan" font-weight="normal"> GPU</tspan><tspan font-style="normal" class="text-inner-tspan" font-weight="normal"> 3</tspan></tspan></text></g></g></g></g></g><g class="node default" id="flowchart-HTTP-0" transform="translate(153.65234375, 24)"><g class="basic label-container outer-path"><path d="M-16.390625 -16 C-8.220289441534778 -16, -0.049953883069555616 -16, 16.390625 -16 C16.390625 -16, 16.390625 -16, 16.390625 -16 C16.696628643868895 -15.990187058741084, 17.002632287737793 -15.98037411748217, 17.415748519691405 -15.967126284005381 C17.726366061035108 -15.937161383364204, 18.03698360237881 -15.907196482723025, 18.436659586952093 -15.868640221171939 C18.712634931272415 -15.82402266772299, 18.988610275592734 -15.77940511427404, 19.449163059221956 -15.704946511857047 C19.74646889111121 -15.63708839583019, 20.043774723000464 -15.569230279803332, 20.449098342552116 -15.476717808624471 C20.75585301789746 -15.385674631170122, 21.062607693242807 -15.294631453715771, 21.43235648837793 -15.184891952170698 C21.658674990202314 -15.101604651434029, 21.884993492026698 -15.018317350697357, 22.394897078069985 -14.830668117536348 C22.712398240349007 -14.69011977133277, 23.029899402628033 -14.54957142512919, 23.33276482588093 -14.415501886438706 C23.68867791278615 -14.229822256973465, 24.04459099969137 -14.044142627508224, 24.242105832063 -13.941099265974232 C24.42714062499269 -13.828930087115113, 24.61217541792238 -13.716760908255994, 25.119183419368778 -13.409409678269451 C25.382005627301407 -13.226076283405659, 25.644827835234036 -13.042742888541866, 25.960393487859456 -12.822617949887306 C26.180835100063224 -12.646821630352468, 26.401276712266988 -12.471025310817629, 26.762279324924613 -12.183135333906153 C27.051245255623353 -11.920704121265118, 27.34021118632209 -11.658272908624081, 27.521545809655784 -11.493589601563642 C27.758969256330268 -11.24843040004475, 27.99639270300475 -11.003271198525857, 28.235072953205048 -10.756814244181072 C28.387900872737642 -10.577293873743113, 28.54072879227024 -10.397773503305153, 28.89992871948848 -9.975836829739738 C29.076123149457437 -9.739752345224115, 29.252317579426396 -9.503667860708495, 29.51338107355129 -9.153866561954718 C29.695002574284786 -8.87484716462637, 29.876624075018285 -8.59582776729802, 30.072909208085537 -8.294281092968403 C30.193761452392675 -8.079695695584345, 30.314613696699812 -7.865110298200285, 30.576213901968003 -7.400612643853364 C30.67534926143551 -7.194755948762197, 30.774484620903014 -6.988899253671029, 31.021226968252996 -6.476533489958305 C31.16071346698362 -6.131999141305674, 31.300199965714246 -5.787464792653044, 31.406119752796165 -5.52584087074093 C31.47390897650545 -5.321670529674595, 31.541698200214732 -5.11750018860826, 31.72931064858657 -4.552441386096524 C31.812043865973664 -4.236943771396291, 31.89477708336076 -3.9214461566960592, 31.989471594909176 -3.560334943301032 C32.03677596356687 -3.3174370080256517, 32.08408033222456 -3.0745390727502717, 32.185533534631205 -2.5535983205340735 C32.212215554334996 -2.3466578446721873, 32.238897574038795 -2.1397173688103006, 32.31669080718717 -1.536368414522911 C32.3323071719062 -1.293130928721311, 32.34792353662523 -1.049893442919711, 32.382404459211 -0.5128252411464826 C32.382404459211 -0.1851887024417932, 32.382404459211 0.14244783626289625, 32.382404459211 0.5128252411464788 C32.367458503161004 0.7456205707838395, 32.352512547111 0.9784159004212003, 32.31669080718717 1.5363684145229002 C32.27256329752093 1.8786126655318762, 32.22843578785469 2.2208569165408525, 32.185533534631205 2.5535983205340624 C32.13435318099268 2.8163986194963027, 32.08317282735416 3.079198918458543, 31.989471594909176 3.5603349433010285 C31.896924640778497 3.9132565895049543, 31.80437768664782 4.26617823570888, 31.72931064858657 4.552441386096513 C31.66299999499991 4.752158509531656, 31.596689341413253 4.951875632966798, 31.406119752796165 5.525840870740919 C31.259821295489605 5.887200888776382, 31.11352283818304 6.248560906811845, 31.021226968253 6.4765334899583005 C30.906293206857175 6.7151959046852685, 30.791359445461353 6.953858319412237, 30.576213901968003 7.400612643853361 C30.45079350472216 7.623309259355739, 30.325373107476317 7.846005874858118, 30.07290920808554 8.294281092968399 C29.860172560136633 8.62110171200654, 29.647435912187724 8.947922331044682, 29.513381073551297 9.15386656195471 C29.33542726407958 9.392308454721258, 29.157473454607864 9.630750347487805, 28.89992871948848 9.975836829739734 C28.644821890350048 10.275499827235532, 28.38971506121162 10.57516282473133, 28.235072953205055 10.756814244181063 C28.023422090317514 10.975361136971458, 27.811771227429972 11.193908029761852, 27.521545809655784 11.493589601563638 C27.270447395488507 11.721630537610386, 27.01934898132123 11.949671473657133, 26.762279324924627 12.183135333906142 C26.466092305882306 12.419336599724799, 26.169905286839985 12.655537865543455, 25.96039348785946 12.822617949887304 C25.636000896663017 13.048900178776998, 25.311608305466578 13.275182407666692, 25.119183419368788 13.409409678269446 C24.77652863587546 13.617129021686122, 24.433873852382135 13.824848365102795, 24.242105832063004 13.94109926597423 C23.988887550580156 14.073203081229781, 23.735669269097308 14.205306896485334, 23.332764825880933 14.415501886438705 C23.099546849905703 14.518740566237485, 22.86632887393047 14.621979246036265, 22.39489707806999 14.830668117536346 C22.042254004544596 14.96044402839053, 21.689610931019196 15.090219939244713, 21.43235648837794 15.184891952170695 C21.186158132725367 15.257962331806839, 20.939959777072794 15.331032711442983, 20.449098342552134 15.476717808624468 C20.132513117653748 15.548976320295862, 19.815927892755358 15.621234831967257, 19.449163059221963 15.704946511857045 C19.224055971502963 15.741340080067914, 18.998948883783964 15.777733648278785, 18.436659586952103 15.868640221171937 C18.087316478849193 15.902340930664067, 17.737973370746285 15.936041640156198, 17.415748519691405 15.967126284005381 C17.195884307440043 15.974176901352555, 16.97602009518868 15.981227518699729, 16.390625000000004 16 C16.390625000000004 16, 16.390625 16, 16.390625 16 C8.439894861259333 16, 0.48916472251866416 16, -16.390624999999996 16 C-16.627796534720876 15.992394370507888, -16.86496806944175 15.984788741015777, -17.415748519691398 15.967126284005381 C-17.68907033074671 15.940759257610447, -17.962392141802024 15.914392231215512, -18.4366595869521 15.868640221171937 C-18.725107510501793 15.822006197839478, -19.013555434051487 15.77537217450702, -19.449163059221956 15.704946511857045 C-19.788100366090525 15.627586283336923, -20.12703767295909 15.5502260548168, -20.449098342552112 15.476717808624471 C-20.7582921347296 15.384950714097528, -21.067485926907093 15.293183619570584, -21.432356488377923 15.184891952170702 C-21.634236996794456 15.110598058910455, -21.83611750521099 15.03630416565021, -22.394897078069988 14.830668117536348 C-22.59966723546256 14.740022443149554, -22.80443739285514 14.649376768762762, -23.33276482588093 14.415501886438708 C-23.68377051299027 14.232382444303637, -24.034776200099614 14.049263002168566, -24.242105832063 13.941099265974234 C-24.545295916806186 13.757303654860207, -24.848486001549368 13.57350804374618, -25.119183419368767 13.409409678269457 C-25.45042294677913 13.178351323076024, -25.781662474189492 12.947292967882593, -25.960393487859456 12.822617949887308 C-26.212336822252666 12.621699845202421, -26.464280156645877 12.420781740517535, -26.762279324924613 12.183135333906154 C-26.9336751093015 12.027478217419016, -27.105070893678388 11.871821100931879, -27.521545809655777 11.493589601563649 C-27.772419709510352 11.234541702833567, -28.023293609364927 10.975493804103486, -28.235072953205048 10.756814244181069 C-28.42760121777337 10.530659589450519, -28.620129482341692 10.304504934719969, -28.899928719488475 9.97583682973974 C-29.056978252217686 9.765404763389363, -29.214027784946893 9.554972697038988, -29.51338107355129 9.15386656195472 C-29.736033233884438 8.8118130532065, -29.958685394217586 8.46975954445828, -30.072909208085534 8.29428109296841 C-30.255438079121582 7.970182599391478, -30.437966950157634 7.646084105814547, -30.576213901968 7.400612643853366 C-30.745086979791104 7.049944084448665, -30.913960057614208 6.699275525043964, -31.021226968252996 6.476533489958307 C-31.173957627953502 6.09928580765164, -31.326688287654004 5.722038125344972, -31.406119752796165 5.525840870740931 C-31.495147527033414 5.257703399387844, -31.584175301270665 4.989565928034756, -31.72931064858657 4.552441386096519 C-31.828011539351543 4.176052112373028, -31.926712430116513 3.7996628386495357, -31.989471594909176 3.5603349433010343 C-32.06294315253271 3.1830740231233925, -32.136414710156245 2.805813102945751, -32.185533534631205 2.5535983205340753 C-32.22754342373282 2.227777916452866, -32.26955331283443 1.9019575123716572, -32.31669080718717 1.5363684145229202 C-32.338287750986964 1.1999785821018547, -32.35988469478676 0.8635887496807892, -32.382404459211 0.5128252411464846 C-32.382404459211 0.15427304274149733, -32.382404459211 -0.20427915566348998, -32.382404459211 -0.5128252411464769 C-32.3685178503583 -0.7291203830962231, -32.3546312415056 -0.9454155250459693, -32.31669080718717 -1.5363684145228982 C-32.26545859344467 -1.9337153473648219, -32.214226379702176 -2.3310622802067456, -32.185533534631205 -2.5535983205340678 C-32.11371017024456 -2.9223961167860577, -32.04188680585791 -3.2911939130380476, -31.989471594909176 -3.5603349433010267 C-31.8891396737326 -3.942944042877015, -31.78880775255603 -4.325553142453003, -31.729310648586573 -4.552441386096511 C-31.612742457409816 -4.903526205301854, -31.49617426623306 -5.254611024507197, -31.406119752796172 -5.525840870740911 C-31.259130176244497 -5.888907966673684, -31.112140599692818 -6.251975062606458, -31.021226968253 -6.476533489958299 C-30.911588569542165 -6.7041999707672755, -30.801950170831333 -6.931866451576252, -30.576213901968003 -7.400612643853359 C-30.415561724197598 -7.685866853281733, -30.254909546427193 -7.9711210627101075, -30.072909208085537 -8.294281092968404 C-29.928261177573223 -8.516499311270103, -29.783613147060912 -8.738717529571803, -29.513381073551294 -9.153866561954715 C-29.27109008297866 -9.478514416158717, -29.02879909240602 -9.80316227036272, -28.89992871948848 -9.975836829739734 C-28.66238223834029 -10.254872443274088, -28.424835757192103 -10.533908056808443, -28.235072953205055 -10.756814244181063 C-28.010235531026925 -10.988977342075644, -27.785398108848792 -11.221140439970224, -27.52154580965579 -11.493589601563633 C-27.235430081646808 -11.753432335534065, -26.949314353637824 -12.013275069504495, -26.762279324924627 -12.18313533390614 C-26.48602633180411 -12.403439744518868, -26.20977333868359 -12.623744155131597, -25.960393487859463 -12.822617949887302 C-25.727335662483434 -12.985188999958963, -25.494277837107408 -13.147760050030625, -25.119183419368788 -13.409409678269444 C-24.778450248488785 -13.615964128827274, -24.43771707760878 -13.822518579385106, -24.242105832063007 -13.941099265974229 C-23.892750009741857 -14.12335797470609, -23.543394187420706 -14.305616683437952, -23.332764825880936 -14.415501886438705 C-23.003435206935585 -14.561286339529765, -22.674105587990233 -14.707070792620826, -22.394897078069995 -14.830668117536344 C-22.052441301729367 -14.95669500885619, -21.70998552538874 -15.082721900176036, -21.43235648837794 -15.184891952170695 C-21.13277916405058 -15.27380492951759, -20.83320183972322 -15.362717906864487, -20.449098342552134 -15.476717808624466 C-20.24751982146761 -15.522726790639226, -20.04594130038308 -15.568735772653987, -19.449163059221963 -15.704946511857043 C-19.082613874355282 -15.764207341434906, -18.716064689488604 -15.823468171012767, -18.436659586952107 -15.868640221171937 C-18.13061479940482 -15.898163993753915, -17.82457001185754 -15.927687766335895, -17.41574851969141 -15.967126284005381 C-17.113487352943693 -15.97681921130731, -16.811226186195977 -15.986512138609239, -16.390625000000004 -16 C-16.390625000000004 -16, -16.390625 -16, -16.390625 -16" stroke="none" stroke-width="0" fill="#ECECFF" style=""/><path d="M-16.390625 -16 C-6.670768240677669 -16, 3.0490885186446626 -16, 16.390625 -16 M-16.390625 -16 C-7.352820563145398 -16, 1.6849838737092036 -16, 16.390625 -16 M16.390625 -16 C16.390625 -16, 16.390625 -16, 16.390625 -16 M16.390625 -16 C16.390625 -16, 16.390625 -16, 16.390625 -16 M16.390625 -16 C16.667351974992474 -15.991125904528372, 16.944078949984945 -15.982251809056745, 17.415748519691405 -15.967126284005381 M16.390625 -16 C16.71066785454405 -15.989736848580398, 17.030710709088098 -15.979473697160797, 17.415748519691405 -15.967126284005381 M17.415748519691405 -15.967126284005381 C17.65066956237175 -15.944463733551899, 17.885590605052094 -15.921801183098415, 18.436659586952093 -15.868640221171939 M17.415748519691405 -15.967126284005381 C17.78710181311397 -15.931302278406584, 18.158455106536536 -15.895478272807788, 18.436659586952093 -15.868640221171939 M18.436659586952093 -15.868640221171939 C18.777229507350143 -15.81357951760116, 19.117799427748192 -15.758518814030383, 19.449163059221956 -15.704946511857047 M18.436659586952093 -15.868640221171939 C18.68382548546549 -15.828680355500463, 18.930991383978892 -15.788720489828988, 19.449163059221956 -15.704946511857047 M19.449163059221956 -15.704946511857047 C19.75007169308028 -15.63626607979123, 20.0509803269386 -15.567585647725412, 20.449098342552116 -15.476717808624471 M19.449163059221956 -15.704946511857047 C19.6805033782954 -15.652144593665199, 19.91184369736884 -15.59934267547335, 20.449098342552116 -15.476717808624471 M20.449098342552116 -15.476717808624471 C20.65940262792575 -15.414300600635297, 20.869706913299385 -15.351883392646123, 21.43235648837793 -15.184891952170698 M20.449098342552116 -15.476717808624471 C20.748776909372666 -15.38777478303703, 21.04845547619322 -15.298831757449586, 21.43235648837793 -15.184891952170698 M21.43235648837793 -15.184891952170698 C21.734315180742033 -15.073768362105154, 22.036273873106136 -14.96264477203961, 22.394897078069985 -14.830668117536348 M21.43235648837793 -15.184891952170698 C21.778943666801926 -15.057344666693911, 22.125530845225924 -14.929797381217123, 22.394897078069985 -14.830668117536348 M22.394897078069985 -14.830668117536348 C22.692176214101888 -14.699071462487275, 22.989455350133788 -14.567474807438202, 23.33276482588093 -14.415501886438706 M22.394897078069985 -14.830668117536348 C22.71933494277395 -14.687049098939214, 23.043772807477914 -14.54343008034208, 23.33276482588093 -14.415501886438706 M23.33276482588093 -14.415501886438706 C23.589837238896394 -14.281387373231277, 23.84690965191186 -14.147272860023847, 24.242105832063 -13.941099265974232 M23.33276482588093 -14.415501886438706 C23.60669127544433 -14.272594633159745, 23.88061772500773 -14.129687379880783, 24.242105832063 -13.941099265974232 M24.242105832063 -13.941099265974232 C24.487886071018057 -13.79210584075467, 24.733666309973117 -13.643112415535107, 25.119183419368778 -13.409409678269451 M24.242105832063 -13.941099265974232 C24.571363186745778 -13.741501522634541, 24.900620541428555 -13.541903779294852, 25.119183419368778 -13.409409678269451 M25.119183419368778 -13.409409678269451 C25.35843975500632 -13.242514815768542, 25.59769609064386 -13.075619953267633, 25.960393487859456 -12.822617949887306 M25.119183419368778 -13.409409678269451 C25.449207656932753 -13.179199056663808, 25.77923189449673 -12.948988435058165, 25.960393487859456 -12.822617949887306 M25.960393487859456 -12.822617949887306 C26.201593600093684 -12.63026727898506, 26.442793712327912 -12.437916608082816, 26.762279324924613 -12.183135333906153 M25.960393487859456 -12.822617949887306 C26.185837262685318 -12.642832538774485, 26.411281037511177 -12.463047127661664, 26.762279324924613 -12.183135333906153 M26.762279324924613 -12.183135333906153 C27.00341728335055 -11.964140220224474, 27.244555241776492 -11.745145106542793, 27.521545809655784 -11.493589601563642 M26.762279324924613 -12.183135333906153 C26.988217546488727 -11.977944219079385, 27.214155768052837 -11.772753104252615, 27.521545809655784 -11.493589601563642 M27.521545809655784 -11.493589601563642 C27.786003628700936 -11.220515191008783, 28.050461447746088 -10.947440780453924, 28.235072953205048 -10.756814244181072 M27.521545809655784 -11.493589601563642 C27.764623653869855 -11.242591770350453, 28.007701498083925 -10.991593939137266, 28.235072953205048 -10.756814244181072 M28.235072953205048 -10.756814244181072 C28.496188180979352 -10.45009343976001, 28.757303408753653 -10.143372635338949, 28.89992871948848 -9.975836829739738 M28.235072953205048 -10.756814244181072 C28.38940303089399 -10.575529353297448, 28.543733108582934 -10.394244462413821, 28.89992871948848 -9.975836829739738 M28.89992871948848 -9.975836829739738 C29.072037755035044 -9.745226401563034, 29.24414679058161 -9.51461597338633, 29.51338107355129 -9.153866561954718 M28.89992871948848 -9.975836829739738 C29.136249047772058 -9.659189119064544, 29.372569376055637 -9.342541408389351, 29.51338107355129 -9.153866561954718 M29.51338107355129 -9.153866561954718 C29.64919626453134 -8.945217957124093, 29.78501145551139 -8.736569352293467, 30.072909208085537 -8.294281092968403 M29.51338107355129 -9.153866561954718 C29.727262107921273 -8.825287858063026, 29.941143142291256 -8.496709154171333, 30.072909208085537 -8.294281092968403 M30.072909208085537 -8.294281092968403 C30.190596072501567 -8.08531614811048, 30.308282936917596 -7.876351203252554, 30.576213901968003 -7.400612643853364 M30.072909208085537 -8.294281092968403 C30.174029846526707 -8.114731159841126, 30.275150484967874 -7.935181226713849, 30.576213901968003 -7.400612643853364 M30.576213901968003 -7.400612643853364 C30.717135538708597 -7.107985849921527, 30.85805717544919 -6.81535905598969, 31.021226968252996 -6.476533489958305 M30.576213901968003 -7.400612643853364 C30.686413422165167 -7.171780982271946, 30.796612942362334 -6.942949320690527, 31.021226968252996 -6.476533489958305 M31.021226968252996 -6.476533489958305 C31.1458117157071 -6.168806755064434, 31.27039646316121 -5.861080020170564, 31.406119752796165 -5.52584087074093 M31.021226968252996 -6.476533489958305 C31.16940644365563 -6.110527320858535, 31.317585919058267 -5.744521151758764, 31.406119752796165 -5.52584087074093 M31.406119752796165 -5.52584087074093 C31.478320122544964 -5.308384860624245, 31.550520492293767 -5.090928850507561, 31.72931064858657 -4.552441386096524 M31.406119752796165 -5.52584087074093 C31.520885455260427 -5.180184860350052, 31.635651157724688 -4.834528849959175, 31.72931064858657 -4.552441386096524 M31.72931064858657 -4.552441386096524 C31.785027885692486 -4.339967413008345, 31.840745122798403 -4.127493439920167, 31.989471594909176 -3.560334943301032 M31.72931064858657 -4.552441386096524 C31.822969039914614 -4.1952813481591145, 31.91662743124266 -3.8381213102217053, 31.989471594909176 -3.560334943301032 M31.989471594909176 -3.560334943301032 C32.0661543621071 -3.1665851406482997, 32.14283712930502 -2.7728353379955673, 32.185533534631205 -2.5535983205340735 M31.989471594909176 -3.560334943301032 C32.06639345190427 -3.1653574650714678, 32.14331530889936 -2.7703799868419035, 32.185533534631205 -2.5535983205340735 M32.185533534631205 -2.5535983205340735 C32.22628619970895 -2.237528697715007, 32.2670388647867 -1.9214590748959401, 32.31669080718717 -1.536368414522911 M32.185533534631205 -2.5535983205340735 C32.2195647450508 -2.289658972742263, 32.2535959554704 -2.0257196249504528, 32.31669080718717 -1.536368414522911 M32.31669080718717 -1.536368414522911 C32.330692117265066 -1.318286708405635, 32.34469342734296 -1.1002050022883592, 32.382404459211 -0.5128252411464826 M32.31669080718717 -1.536368414522911 C32.34177989957952 -1.1455855489612075, 32.36686899197186 -0.754802683399504, 32.382404459211 -0.5128252411464826 M32.382404459211 -0.5128252411464826 C32.382404459211 -0.21994054312333355, 32.382404459211 0.07294415489981554, 32.382404459211 0.5128252411464788 M32.382404459211 -0.5128252411464826 C32.382404459211 -0.15163195002169716, 32.382404459211 0.20956134110308833, 32.382404459211 0.5128252411464788 M32.382404459211 0.5128252411464788 C32.35651083954339 0.9161392684231285, 32.33061721987578 1.3194532956997782, 32.31669080718717 1.5363684145229002 M32.382404459211 0.5128252411464788 C32.365399703561614 0.777688036377461, 32.34839494791222 1.0425508316084433, 32.31669080718717 1.5363684145229002 M32.31669080718717 1.5363684145229002 C32.2654656741984 1.9336604304371285, 32.21424054120964 2.330952446351357, 32.185533534631205 2.5535983205340624 M32.31669080718717 1.5363684145229002 C32.29018967969293 1.7419059261286858, 32.263688552198694 1.9474434377344714, 32.185533534631205 2.5535983205340624 M32.185533534631205 2.5535983205340624 C32.1346575236948 2.8148358840437955, 32.083781512758385 3.076073447553528, 31.989471594909176 3.5603349433010285 M32.185533534631205 2.5535983205340624 C32.11396903631376 2.9210668942320535, 32.04240453799632 3.2885354679300445, 31.989471594909176 3.5603349433010285 M31.989471594909176 3.5603349433010285 C31.912430244174793 3.854127003583855, 31.83538889344041 4.147919063866682, 31.72931064858657 4.552441386096513 M31.989471594909176 3.5603349433010285 C31.910512541656153 3.8614400344249535, 31.83155348840313 4.162545125548879, 31.72931064858657 4.552441386096513 M31.72931064858657 4.552441386096513 C31.64611229500233 4.803021571234785, 31.56291394141809 5.053601756373057, 31.406119752796165 5.525840870740919 M31.72931064858657 4.552441386096513 C31.625215834892614 4.865958379686463, 31.521121021198663 5.179475373276412, 31.406119752796165 5.525840870740919 M31.406119752796165 5.525840870740919 C31.26842850741956 5.865940908900269, 31.130737262042953 6.206040947059618, 31.021226968253 6.4765334899583005 M31.406119752796165 5.525840870740919 C31.26151401085353 5.883019849101058, 31.116908268910894 6.240198827461197, 31.021226968253 6.4765334899583005 M31.021226968253 6.4765334899583005 C30.9221936114647 6.6821783743035885, 30.8231602546764 6.887823258648876, 30.576213901968003 7.400612643853361 M31.021226968253 6.4765334899583005 C30.847681899722627 6.836903538031236, 30.67413683119225 7.1972735861041715, 30.576213901968003 7.400612643853361 M30.576213901968003 7.400612643853361 C30.39555492776264 7.721390946259828, 30.21489595355727 8.042169248666296, 30.07290920808554 8.294281092968399 M30.576213901968003 7.400612643853361 C30.38549327035711 7.739256437836635, 30.194772638746215 8.077900231819909, 30.07290920808554 8.294281092968399 M30.07290920808554 8.294281092968399 C29.865412591396275 8.613051616846315, 29.657915974707013 8.931822140724233, 29.513381073551297 9.15386656195471 M30.07290920808554 8.294281092968399 C29.87033538937553 8.605488877193833, 29.66776157066552 8.916696661419266, 29.513381073551297 9.15386656195471 M29.513381073551297 9.15386656195471 C29.34626295142558 9.377789620829041, 29.17914482929986 9.601712679703374, 28.89992871948848 9.975836829739734 M29.513381073551297 9.15386656195471 C29.277885646876157 9.469408979624676, 29.042390220201014 9.784951397294645, 28.89992871948848 9.975836829739734 M28.89992871948848 9.975836829739734 C28.681705818246304 10.232173866773639, 28.46348291700413 10.488510903807544, 28.235072953205055 10.756814244181063 M28.89992871948848 9.975836829739734 C28.640598606608236 10.280460736630317, 28.381268493727994 10.5850846435209, 28.235072953205055 10.756814244181063 M28.235072953205055 10.756814244181063 C28.00520162017969 10.994175268317179, 27.775330287154326 11.231536292453296, 27.521545809655784 11.493589601563638 M28.235072953205055 10.756814244181063 C27.986221668645886 11.013773626558834, 27.737370384086713 11.270733008936606, 27.521545809655784 11.493589601563638 M27.521545809655784 11.493589601563638 C27.33572270965119 11.662349224378005, 27.1498996096466 11.831108847192374, 26.762279324924627 12.183135333906142 M27.521545809655784 11.493589601563638 C27.35730117270033 11.642752235171626, 27.193056535744873 11.791914868779614, 26.762279324924627 12.183135333906142 M26.762279324924627 12.183135333906142 C26.589394406315787 12.321006455835791, 26.416509487706946 12.458877577765442, 25.96039348785946 12.822617949887304 M26.762279324924627 12.183135333906142 C26.469144790472363 12.416902324494254, 26.1760102560201 12.650669315082366, 25.96039348785946 12.822617949887304 M25.96039348785946 12.822617949887304 C25.76385127603802 12.959717288678716, 25.567309064216587 13.09681662747013, 25.119183419368788 13.409409678269446 M25.96039348785946 12.822617949887304 C25.697689195727204 13.00586909179325, 25.43498490359495 13.189120233699194, 25.119183419368788 13.409409678269446 M25.119183419368788 13.409409678269446 C24.894964992406475 13.545332206347734, 24.670746565444162 13.681254734426021, 24.242105832063004 13.94109926597423 M25.119183419368788 13.409409678269446 C24.855067367432845 13.569518381071218, 24.590951315496905 13.729627083872987, 24.242105832063004 13.94109926597423 M24.242105832063004 13.94109926597423 C23.925713137601438 14.106161132015636, 23.609320443139875 14.271222998057041, 23.332764825880933 14.415501886438705 M24.242105832063004 13.94109926597423 C23.892633235583627 14.12341889570964, 23.54316063910425 14.305738525445049, 23.332764825880933 14.415501886438705 M23.332764825880933 14.415501886438705 C22.990164085292214 14.56716107140745, 22.647563344703492 14.718820256376194, 22.39489707806999 14.830668117536346 M23.332764825880933 14.415501886438705 C23.092314536943576 14.521942096646876, 22.851864248006223 14.628382306855048, 22.39489707806999 14.830668117536346 M22.39489707806999 14.830668117536346 C22.04496965194601 14.95944464504364, 21.695042225822025 15.088221172550934, 21.43235648837794 15.184891952170695 M22.39489707806999 14.830668117536346 C22.043775556859394 14.959884083073607, 21.692654035648797 15.08910004861087, 21.43235648837794 15.184891952170695 M21.43235648837794 15.184891952170695 C21.115627163686696 15.278895553192905, 20.79889783899545 15.372899154215116, 20.449098342552134 15.476717808624468 M21.43235648837794 15.184891952170695 C21.061668367720852 15.294910240600068, 20.690980247063763 15.404928529029442, 20.449098342552134 15.476717808624468 M20.449098342552134 15.476717808624468 C20.11734820597653 15.55243761242589, 19.785598069400923 15.628157416227314, 19.449163059221963 15.704946511857045 M20.449098342552134 15.476717808624468 C20.120776864086874 15.551655043586289, 19.79245538562162 15.626592278548111, 19.449163059221963 15.704946511857045 M19.449163059221963 15.704946511857045 C19.05575799132401 15.76854919233292, 18.662352923426056 15.832151872808794, 18.436659586952103 15.868640221171937 M19.449163059221963 15.704946511857045 C19.074648139214357 15.765495179717293, 18.700133219206748 15.826043847577541, 18.436659586952103 15.868640221171937 M18.436659586952103 15.868640221171937 C18.183951796940406 15.893018637748781, 17.93124400692871 15.917397054325628, 17.415748519691405 15.967126284005381 M18.436659586952103 15.868640221171937 C18.04945132337463 15.905993736673187, 17.662243059797156 15.943347252174437, 17.415748519691405 15.967126284005381 M17.415748519691405 15.967126284005381 C17.161179948652432 15.975289802590938, 16.90661137761346 15.983453321176492, 16.390625000000004 16 M17.415748519691405 15.967126284005381 C17.013678633927626 15.980019882660269, 16.611608748163846 15.992913481315158, 16.390625000000004 16 M16.390625000000004 16 C16.390625000000004 16, 16.390625 16, 16.390625 16 M16.390625000000004 16 C16.390625000000004 16, 16.390625 16, 16.390625 16 M16.390625 16 C7.3588555744755215 16, -1.672913851048957 16, -16.390624999999996 16 M16.390625 16 C9.104081931411992 16, 1.8175388628239837 16, -16.390624999999996 16 M-16.390624999999996 16 C-16.65137043034305 15.99163840155909, -16.912115860686104 15.98327680311818, -17.415748519691398 15.967126284005381 M-16.390624999999996 16 C-16.67357158325043 15.990926453797274, -16.95651816650086 15.981852907594545, -17.415748519691398 15.967126284005381 M-17.415748519691398 15.967126284005381 C-17.744918319430038 15.935371669309198, -18.074088119168678 15.903617054613017, -18.4366595869521 15.868640221171937 M-17.415748519691398 15.967126284005381 C-17.682059387972863 15.941435594827947, -17.948370256254325 15.915744905650513, -18.4366595869521 15.868640221171937 M-18.4366595869521 15.868640221171937 C-18.71175122867732 15.824165537905348, -18.986842870402537 15.779690854638757, -19.449163059221956 15.704946511857045 M-18.4366595869521 15.868640221171937 C-18.685199003768183 15.828458295713077, -18.933738420584266 15.788276370254216, -19.449163059221956 15.704946511857045 M-19.449163059221956 15.704946511857045 C-19.65460946673153 15.658054710006086, -19.8600558742411 15.611162908155126, -20.449098342552112 15.476717808624471 M-19.449163059221956 15.704946511857045 C-19.829156749288167 15.61821543179, -20.209150439354378 15.531484351722954, -20.449098342552112 15.476717808624471 M-20.449098342552112 15.476717808624471 C-20.687871356496508 15.405851231430901, -20.926644370440904 15.334984654237331, -21.432356488377923 15.184891952170702 M-20.449098342552112 15.476717808624471 C-20.677458817887644 15.408941618233483, -20.90581929322317 15.341165427842494, -21.432356488377923 15.184891952170702 M-21.432356488377923 15.184891952170702 C-21.78090202899933 15.056623971302367, -22.129447569620734 14.928355990434031, -22.394897078069988 14.830668117536348 M-21.432356488377923 15.184891952170702 C-21.72247061764248 15.078127270815733, -22.01258474690703 14.971362589460764, -22.394897078069988 14.830668117536348 M-22.394897078069988 14.830668117536348 C-22.671409808558597 14.708264134207758, -22.947922539047205 14.585860150879167, -23.33276482588093 14.415501886438708 M-22.394897078069988 14.830668117536348 C-22.739978934294122 14.677910616275486, -23.085060790518252 14.525153115014627, -23.33276482588093 14.415501886438708 M-23.33276482588093 14.415501886438708 C-23.549095395878286 14.30264236663743, -23.765425965875643 14.189782846836152, -24.242105832063 13.941099265974234 M-23.33276482588093 14.415501886438708 C-23.635971232389593 14.25731929837611, -23.939177638898258 14.099136710313513, -24.242105832063 13.941099265974234 M-24.242105832063 13.941099265974234 C-24.58672622265867 13.732188359980928, -24.931346613254338 13.523277453987623, -25.119183419368767 13.409409678269457 M-24.242105832063 13.941099265974234 C-24.540469704353175 13.760229333211194, -24.838833576643346 13.579359400448155, -25.119183419368767 13.409409678269457 M-25.119183419368767 13.409409678269457 C-25.30813480161675 13.277605373586772, -25.49708618386473 13.145801068904087, -25.960393487859456 12.822617949887308 M-25.119183419368767 13.409409678269457 C-25.409397331024437 13.206969016656215, -25.69961124268011 13.004528355042973, -25.960393487859456 12.822617949887308 M-25.960393487859456 12.822617949887308 C-26.165296265449527 12.659213437451138, -26.370199043039594 12.495808925014966, -26.762279324924613 12.183135333906154 M-25.960393487859456 12.822617949887308 C-26.259020093128285 12.584471178973127, -26.557646698397114 12.346324408058948, -26.762279324924613 12.183135333906154 M-26.762279324924613 12.183135333906154 C-26.95776337882195 12.00560188838123, -27.153247432719287 11.828068442856305, -27.521545809655777 11.493589601563649 M-26.762279324924613 12.183135333906154 C-27.064790146850324 11.908403009430964, -27.36730096877604 11.633670684955774, -27.521545809655777 11.493589601563649 M-27.521545809655777 11.493589601563649 C-27.688401240100703 11.321297670543652, -27.855256670545632 11.149005739523657, -28.235072953205048 10.756814244181069 M-27.521545809655777 11.493589601563649 C-27.771886073179434 11.235092726157598, -28.022226336703092 10.976595850751547, -28.235072953205048 10.756814244181069 M-28.235072953205048 10.756814244181069 C-28.37163743796065 10.59639782964782, -28.508201922716253 10.435981415114572, -28.899928719488475 9.97583682973974 M-28.235072953205048 10.756814244181069 C-28.48967920560506 10.457739252605839, -28.744285458005077 10.158664261030607, -28.899928719488475 9.97583682973974 M-28.899928719488475 9.97583682973974 C-29.064292680956218 9.755604095237894, -29.228656642423964 9.53537136073605, -29.51338107355129 9.15386656195472 M-28.899928719488475 9.97583682973974 C-29.054598416392075 9.768593526588175, -29.209268113295675 9.561350223436612, -29.51338107355129 9.15386656195472 M-29.51338107355129 9.15386656195472 C-29.728975128741855 8.822656198072114, -29.94456918393242 8.49144583418951, -30.072909208085534 8.29428109296841 M-29.51338107355129 9.15386656195472 C-29.642912566712322 8.954871404383232, -29.772444059873354 8.755876246811743, -30.072909208085534 8.29428109296841 M-30.072909208085534 8.29428109296841 C-30.191925200070894 8.082956147522374, -30.310941192056255 7.8716312020763395, -30.576213901968 7.400612643853366 M-30.072909208085534 8.29428109296841 C-30.25805269347977 7.965540086840104, -30.443196178874008 7.636799080711798, -30.576213901968 7.400612643853366 M-30.576213901968 7.400612643853366 C-30.7047192297566 7.133768581126802, -30.833224557545194 6.866924518400237, -31.021226968252996 6.476533489958307 M-30.576213901968 7.400612643853366 C-30.70837657343804 7.1261740287176645, -30.840539244908083 6.851735413581964, -31.021226968252996 6.476533489958307 M-31.021226968252996 6.476533489958307 C-31.165207209898945 6.120899509424217, -31.309187451544894 5.765265528890128, -31.406119752796165 5.525840870740931 M-31.021226968252996 6.476533489958307 C-31.17177584166474 6.104674861966842, -31.322324715076487 5.732816233975377, -31.406119752796165 5.525840870740931 M-31.406119752796165 5.525840870740931 C-31.500942378031535 5.240250231465627, -31.595765003266905 4.954659592190321, -31.72931064858657 4.552441386096519 M-31.406119752796165 5.525840870740931 C-31.51739318009574 5.1907030367276, -31.628666607395317 4.855565202714268, -31.72931064858657 4.552441386096519 M-31.72931064858657 4.552441386096519 C-31.786183138887402 4.335561931886227, -31.843055629188235 4.118682477675935, -31.989471594909176 3.5603349433010343 M-31.72931064858657 4.552441386096519 C-31.79532055687382 4.300716996922009, -31.86133046516107 4.0489926077475, -31.989471594909176 3.5603349433010343 M-31.989471594909176 3.5603349433010343 C-32.04170048102082 3.2921506516967343, -32.09392936713247 3.0239663600924347, -32.185533534631205 2.5535983205340753 M-31.989471594909176 3.5603349433010343 C-32.05122646655967 3.2432367292724997, -32.11298133821016 2.9261385152439647, -32.185533534631205 2.5535983205340753 M-32.185533534631205 2.5535983205340753 C-32.212880347157444 2.3415018428194796, -32.24022715968369 2.1294053651048834, -32.31669080718717 1.5363684145229202 M-32.185533534631205 2.5535983205340753 C-32.225852185471396 2.2408948264356847, -32.26617083631159 1.9281913323372941, -32.31669080718717 1.5363684145229202 M-32.31669080718717 1.5363684145229202 C-32.34207604935407 1.1409727771748246, -32.36746129152096 0.745577139826729, -32.382404459211 0.5128252411464846 M-32.31669080718717 1.5363684145229202 C-32.34170767985698 1.1467104294344341, -32.36672455252679 0.757052444345948, -32.382404459211 0.5128252411464846 M-32.382404459211 0.5128252411464846 C-32.382404459211 0.15757140807411701, -32.382404459211 -0.19768242499825062, -32.382404459211 -0.5128252411464769 M-32.382404459211 0.5128252411464846 C-32.382404459211 0.10491748078892621, -32.382404459211 -0.3029902795686322, -32.382404459211 -0.5128252411464769 M-32.382404459211 -0.5128252411464769 C-32.361859364541424 -0.8328316743271482, -32.34131426987184 -1.1528381075078196, -32.31669080718717 -1.5363684145228982 M-32.382404459211 -0.5128252411464769 C-32.36021931957986 -0.8583766984239021, -32.33803417994872 -1.2039281557013273, -32.31669080718717 -1.5363684145228982 M-32.31669080718717 -1.5363684145228982 C-32.2779466937283 -1.8368601076193198, -32.239202580269435 -2.1373518007157415, -32.185533534631205 -2.5535983205340678 M-32.31669080718717 -1.5363684145228982 C-32.287207803825694 -1.765032766516986, -32.25772480046422 -1.9936971185110741, -32.185533534631205 -2.5535983205340678 M-32.185533534631205 -2.5535983205340678 C-32.12755506565173 -2.8513055049899303, -32.06957659667225 -3.149012689445793, -31.989471594909176 -3.5603349433010267 M-32.185533534631205 -2.5535983205340678 C-32.129162518207444 -2.843051575851524, -32.07279150178368 -3.13250483116898, -31.989471594909176 -3.5603349433010267 M-31.989471594909176 -3.5603349433010267 C-31.900285843875228 -3.9004388653424837, -31.81110009284128 -4.240542787383941, -31.729310648586573 -4.552441386096511 M-31.989471594909176 -3.5603349433010267 C-31.901681656360324 -3.8951160273878576, -31.81389171781147 -4.229897111474688, -31.729310648586573 -4.552441386096511 M-31.729310648586573 -4.552441386096511 C-31.62007636570894 -4.881437642004489, -31.51084208283131 -5.210433897912466, -31.406119752796172 -5.525840870740911 M-31.729310648586573 -4.552441386096511 C-31.632180981625933 -4.844980467471152, -31.53505131466529 -5.137519548845793, -31.406119752796172 -5.525840870740911 M-31.406119752796172 -5.525840870740911 C-31.28614064093382 -5.822191596679246, -31.166161529071466 -6.1185423226175795, -31.021226968253 -6.476533489958299 M-31.406119752796172 -5.525840870740911 C-31.25400600931725 -5.901564758053009, -31.101892265838327 -6.2772886453651076, -31.021226968253 -6.476533489958299 M-31.021226968253 -6.476533489958299 C-30.852186786775484 -6.8275490436768305, -30.68314660529797 -7.178564597395361, -30.576213901968003 -7.400612643853359 M-31.021226968253 -6.476533489958299 C-30.924315328560592 -6.677772583356495, -30.827403688868184 -6.879011676754691, -30.576213901968003 -7.400612643853359 M-30.576213901968003 -7.400612643853359 C-30.42922045724933 -7.661614389651689, -30.28222701253065 -7.922616135450018, -30.072909208085537 -8.294281092968404 M-30.576213901968003 -7.400612643853359 C-30.39551776733336 -7.721456928364911, -30.214821632698715 -8.042301212876463, -30.072909208085537 -8.294281092968404 M-30.072909208085537 -8.294281092968404 C-29.94174024750846 -8.49579184021251, -29.810571286931378 -8.697302587456615, -29.513381073551294 -9.153866561954715 M-30.072909208085537 -8.294281092968404 C-29.883691955532406 -8.584969604836667, -29.694474702979274 -8.875658116704928, -29.513381073551294 -9.153866561954715 M-29.513381073551294 -9.153866561954715 C-29.316688913775106 -9.417416137030422, -29.11999675399892 -9.680965712106127, -28.89992871948848 -9.975836829739734 M-29.513381073551294 -9.153866561954715 C-29.33446361412205 -9.393599657874029, -29.155546154692807 -9.633332753793344, -28.89992871948848 -9.975836829739734 M-28.89992871948848 -9.975836829739734 C-28.70225971931085 -10.208030085033121, -28.50459071913322 -10.440223340326508, -28.235072953205055 -10.756814244181063 M-28.89992871948848 -9.975836829739734 C-28.64907450222693 -10.270504467344475, -28.398220284965383 -10.565172104949218, -28.235072953205055 -10.756814244181063 M-28.235072953205055 -10.756814244181063 C-28.056500313866326 -10.941205155384647, -27.8779276745276 -11.125596066588233, -27.52154580965579 -11.493589601563633 M-28.235072953205055 -10.756814244181063 C-28.041360518266472 -10.956838237341834, -27.84764808332789 -11.156862230502604, -27.52154580965579 -11.493589601563633 M-27.52154580965579 -11.493589601563633 C-27.261268061750872 -11.729966965639045, -27.00099031384595 -11.966344329714458, -26.762279324924627 -12.18313533390614 M-27.52154580965579 -11.493589601563633 C-27.313817940421238 -11.682242556224214, -27.10609007118669 -11.870895510884797, -26.762279324924627 -12.18313533390614 M-26.762279324924627 -12.18313533390614 C-26.46299163786978 -12.421809299952546, -26.163703950814934 -12.660483265998952, -25.960393487859463 -12.822617949887302 M-26.762279324924627 -12.18313533390614 C-26.509584120893383 -12.384653034619268, -26.25688891686214 -12.586170735332393, -25.960393487859463 -12.822617949887302 M-25.960393487859463 -12.822617949887302 C-25.69928330537655 -13.00475710990976, -25.438173122893637 -13.186896269932216, -25.119183419368788 -13.409409678269444 M-25.960393487859463 -12.822617949887302 C-25.68357155964897 -13.015716943578807, -25.40674963143848 -13.208815937270312, -25.119183419368788 -13.409409678269444 M-25.119183419368788 -13.409409678269444 C-24.881195591064362 -13.553679298359306, -24.643207762759932 -13.69794891844917, -24.242105832063007 -13.941099265974229 M-25.119183419368788 -13.409409678269444 C-24.77775654525178 -13.6163846558062, -24.43632967113477 -13.823359633342955, -24.242105832063007 -13.941099265974229 M-24.242105832063007 -13.941099265974229 C-24.022994210244217 -14.055409658729399, -23.803882588425427 -14.169720051484571, -23.332764825880936 -14.415501886438705 M-24.242105832063007 -13.941099265974229 C-24.03744428688421 -14.047871063002031, -23.832782741705415 -14.154642860029833, -23.332764825880936 -14.415501886438705 M-23.332764825880936 -14.415501886438705 C-23.093558167544924 -14.521391578270652, -22.85435150920891 -14.6272812701026, -22.394897078069995 -14.830668117536344 M-23.332764825880936 -14.415501886438705 C-23.01433928813261 -14.556459426241918, -22.695913750384285 -14.697416966045132, -22.394897078069995 -14.830668117536344 M-22.394897078069995 -14.830668117536344 C-22.115953210285124 -14.933322039410024, -21.837009342500252 -15.035975961283706, -21.43235648837794 -15.184891952170695 M-22.394897078069995 -14.830668117536344 C-22.10419890862805 -14.937647731075401, -21.813500739186107 -15.044627344614458, -21.43235648837794 -15.184891952170695 M-21.43235648837794 -15.184891952170695 C-21.168169989628282 -15.263301118256363, -20.90398349087862 -15.341710284342033, -20.449098342552134 -15.476717808624466 M-21.43235648837794 -15.184891952170695 C-21.21286995222008 -15.250034403994011, -20.993383416062212 -15.315176855817326, -20.449098342552134 -15.476717808624466 M-20.449098342552134 -15.476717808624466 C-20.066146646170996 -15.5641240343301, -19.683194949789854 -15.651530260035733, -19.449163059221963 -15.704946511857043 M-20.449098342552134 -15.476717808624466 C-20.07176311087367 -15.562842112912572, -19.694427879195203 -15.648966417200677, -19.449163059221963 -15.704946511857043 M-19.449163059221963 -15.704946511857043 C-19.050309857529605 -15.76943000435389, -18.651456655837247 -15.833913496850734, -18.436659586952107 -15.868640221171937 M-19.449163059221963 -15.704946511857043 C-19.246249087162273 -15.737752069238299, -19.04333511510258 -15.770557626619555, -18.436659586952107 -15.868640221171937 M-18.436659586952107 -15.868640221171937 C-18.229684625656855 -15.88860684676428, -18.022709664361606 -15.908573472356624, -17.41574851969141 -15.967126284005381 M-18.436659586952107 -15.868640221171937 C-18.22733472237038 -15.888833539108154, -18.018009857788652 -15.909026857044372, -17.41574851969141 -15.967126284005381 M-17.41574851969141 -15.967126284005381 C-17.07540524850978 -15.978040430274186, -16.735061977328154 -15.98895457654299, -16.390625000000004 -16 M-17.41574851969141 -15.967126284005381 C-17.152016548263045 -15.975583655005948, -16.888284576834682 -15.984041026006514, -16.390625000000004 -16 M-16.390625000000004 -16 C-16.390625000000004 -16, -16.390625000000004 -16, -16.390625 -16 M-16.390625000000004 -16 C-16.390625000000004 -16, -16.390625 -16, -16.390625 -16" stroke="#9370DB" stroke-width="1.3" fill="none" stroke-dasharray="0 0" style=""/></g><g class="label" style="" transform="translate(0, -8.5)"><rect/><g><rect class="background" style="stroke: none"/><text y="-10.1" style=""><tspan class="text-outer-tspan row" x="0" y="-0.1em" dy="1.1em"><tspan font-style="normal" class="text-inner-tspan" font-weight="normal">HTTP</tspan></tspan></text></g></g></g><g class="node default" id="flowchart-API-1" transform="translate(153.65234375, 131.0999984741211)"><rect class="basic label-container" style="" x="-120.5703125" y="-41.099998474121094" width="241.140625" height="82.19999694824219"/><g class="label" style="" transform="translate(0, -26.099998474121094)"><rect/><g><rect class="background" style="stroke: none"/><text y="-10.1" style=""><tspan class="text-outer-tspan row" x="0" y="-0.1em" dy="1.1em"><tspan font-style="normal" class="text-inner-tspan" font-weight="normal">API</tspan><tspan font-style="normal" class="text-inner-tspan" font-weight="normal"> Server</tspan><tspan font-style="normal" class="text-inner-tspan" font-weight="normal"> Input</tspan></tspan><tspan class="text-outer-tspan row" x="0" y="1em" dy="1.1em"><tspan font-style="normal" class="text-inner-tspan" font-weight="normal">Processing,</tspan><tspan font-style="normal" class="text-inner-tspan" font-weight="normal"> Tokenization,</tspan></tspan><tspan class="text-outer-tspan row" x="0" y="2.1em" dy="1.1em"><tspan font-style="normal" class="text-inner-tspan" font-weight="normal">Streaming</tspan></tspan></text></g></g></g><g class="node default" id="flowchart-EC-4" transform="translate(153.65234375, 275.49999618530273)"><rect class="basic label-container" style="" x="-127.56640625" y="-32.29999923706055" width="255.1328125" height="64.5999984741211"/><g class="label" style="" transform="translate(0, -17.299999237060547)"><rect/><g><rect class="background" style="stroke: none"/><text y="-10.1" style=""><tspan class="text-outer-tspan row" x="0" y="-0.1em" dy="1.1em"><tspan font-style="normal" class="text-inner-tspan" font-weight="normal">Engine</tspan><tspan font-style="normal" class="text-inner-tspan" font-weight="normal"> Core</tspan><tspan font-style="normal" class="text-inner-tspan" font-weight="normal"> Scheduler,</tspan><tspan font-style="normal" class="text-inner-tspan" font-weight="normal"> KV</tspan></tspan><tspan class="text-outer-tspan row" x="0" y="1em" dy="1.1em"><tspan font-style="normal" class="text-inner-tspan" font-weight="normal">Cache</tspan><tspan font-style="normal" class="text-inner-tspan" font-weight="normal"> Manager</tspan></tspan></text></g></g></g></g></g></g><style>/*
 * Red Hat Technical Diagram Styles for Mermaid SVG
 *
 * Based on:
 *   - CCS "Working with technical diagrams" guidelines
 *   - Red Hat Design System tokens (@rhds/tokens v3.0.2)
 *
 * Usage: mmdc -i input.mmd -o output.svg -C rh-diagrams.css -c mermaid-config.json -I rh-diagram-svg
 *
 * Note: All selectors use #rh-diagram-svg prefix to override mermaid's
 * built-in ID-scoped styles which have higher specificity than
 * class-only selectors. Pass -I rh-diagram-svg to mmdc to set the SVG ID.
 */

/* ============================================================
 * TYPOGRAPHY
 * Red Hat Display for labels/headings, Red Hat Text for body
 * ============================================================ */

/* Base SVG font */
#rh-diagram-svg {
  font-family: "Red Hat Text", RedHatText, Helvetica, Arial, sans-serif;
  font-size: 14px;
  fill: #151515; /* --rh-color-text-primary-on-light */
}

/* Node labels */
#rh-diagram-svg .nodeLabel,
#rh-diagram-svg .node .label text,
#rh-diagram-svg .node text {
  font-family: "Red Hat Display", RedHatDisplay, Helvetica, Arial, sans-serif;
  font-size: 14px;
  font-weight: 500;
  fill: #151515; /* --rh-color-text-primary-on-light */
}

/* Edge labels */
#rh-diagram-svg .edgeLabel,
#rh-diagram-svg .edgeLabel text,
#rh-diagram-svg .edgeLabel tspan {
  font-family: "Red Hat Text", RedHatText, Helvetica, Arial, sans-serif;
  font-size: 12px;
  font-weight: 400;
  fill: #4d4d4d; /* --rh-color-text-secondary-on-light */
}

/* Edge label background */
#rh-diagram-svg .edgeLabel rect.background,
#rh-diagram-svg .edgeLabel .background {
  fill: #ffffff; /* --rh-color-surface-lightest */
  opacity: 0.9;
}

/* Cluster/subgraph labels */
#rh-diagram-svg .cluster-label text,
#rh-diagram-svg .cluster-label tspan {
  font-family: "Red Hat Display", RedHatDisplay, Helvetica, Arial, sans-serif;
  font-size: 14px;
  font-weight: 500;
  fill: #151515; /* --rh-color-text-primary-on-light */
}

/* Title text */
#rh-diagram-svg .flowchartTitleText {
  font-family: "Red Hat Display", RedHatDisplay, Helvetica, Arial, sans-serif;
  font-size: 20px;
  font-weight: 700;
  fill: #151515; /* --rh-color-text-primary-on-light */
}

/* Generic label styling */
#rh-diagram-svg .label {
  font-family: "Red Hat Text", RedHatText, Helvetica, Arial, sans-serif;
  color: #151515;
}

#rh-diagram-svg .label text,
#rh-diagram-svg span {
  fill: #151515; /* --rh-color-text-primary-on-light */
  color: #151515;
}

/* ============================================================
 * NODES — Primary style
 * Light blue fill, RH blue border
 * ============================================================ */

#rh-diagram-svg .node rect,
#rh-diagram-svg .node circle,
#rh-diagram-svg .node ellipse,
#rh-diagram-svg .node polygon,
#rh-diagram-svg .node path {
  fill: #e0f0ff; /* --rh-color-blue-10 */
  stroke: #0066cc; /* --rh-color-blue-50 */
  stroke-width: 1px; /* --rh-border-width-sm */
}

/* ============================================================
 * EDGES — Lines &amp; arrows
 * Gray-60 for connectors, 2px stroke
 * ============================================================ */

#rh-diagram-svg .edgePath .path,
#rh-diagram-svg .flowchart-link {
  stroke: #4d4d4d; /* --rh-color-gray-60 */
  stroke-width: 2px; /* --rh-border-width-md */
}

#rh-diagram-svg .edge-pattern-dotted {
  stroke-dasharray: 3;
}

#rh-diagram-svg .edge-pattern-dashed {
  stroke-dasharray: 6;
}

/* Arrow markers */
#rh-diagram-svg .marker {
  fill: #4d4d4d; /* --rh-color-gray-60 */
  stroke: #4d4d4d;
}

#rh-diagram-svg .marker.cross {
  stroke: #4d4d4d;
}

#rh-diagram-svg .arrowheadPath {
  fill: #4d4d4d;
}

#rh-diagram-svg .arrowMarkerPath {
  fill: #4d4d4d;
  stroke: #4d4d4d;
}

/* ============================================================
 * GROUPINGS — Cluster/subgraph containers
 * Subtle gray background, light border
 * ============================================================ */

#rh-diagram-svg .cluster rect {
  fill: #f2f2f2; /* --rh-color-gray-10 */
  stroke: #c7c7c7; /* --rh-color-gray-30 */
  stroke-width: 1px;
}


#rh-diagram-svg .cluster text {
  fill: #151515;
}

#rh-diagram-svg .cluster span {
  color: #151515;
}

/* ============================================================
 * STATUS / SEMANTIC NODE VARIANTS
 * Apply via classDef in .mmd files:
 *
 *   classDef success fill:#e9f7df,stroke:#3d7317,color:#204d00
 *   classDef danger fill:#ffe3d9,stroke:#b1380b,color:#731f00
 *   classDef warning fill:#fff4cc,stroke:#dca614,color:#73480b
 *   classDef info fill:#ece6ff,stroke:#5e40be,color:#21134d
 *   classDef neutral fill:#f2f2f2,stroke:#4d4d4d,color:#151515
 *   classDef brand fill:#fce3e3,stroke:#ee0000,color:#5f0000
 * ============================================================ */

/* Success */
#rh-diagram-svg .node.success rect,
#rh-diagram-svg .node.success polygon {
  fill: #e9f7df; /* --rh-color-green-10 */
  stroke: #3d7317; /* --rh-color-green-60 */
}
#rh-diagram-svg .node.success .nodeLabel { fill: #204d00; }

/* Danger */
#rh-diagram-svg .node.danger rect,
#rh-diagram-svg .node.danger polygon {
  fill: #ffe3d9; /* --rh-color-red-orange-10 */
  stroke: #b1380b; /* --rh-color-red-orange-60 */
}
#rh-diagram-svg .node.danger .nodeLabel { fill: #731f00; }

/* Warning */
#rh-diagram-svg .node.warning rect,
#rh-diagram-svg .node.warning polygon {
  fill: #fff4cc; /* --rh-color-yellow-10 */
  stroke: #dca614; /* --rh-color-yellow-40 */
}
#rh-diagram-svg .node.warning .nodeLabel { fill: #73480b; }

/* Info */
#rh-diagram-svg .node.info rect,
#rh-diagram-svg .node.info polygon {
  fill: #ece6ff; /* --rh-color-purple-10 */
  stroke: #5e40be; /* --rh-color-purple-50 */
}
#rh-diagram-svg .node.info .nodeLabel { fill: #21134d; }

/* Neutral */
#rh-diagram-svg .node.neutral rect,
#rh-diagram-svg .node.neutral polygon {
  fill: #f2f2f2; /* --rh-color-gray-10 */
  stroke: #4d4d4d; /* --rh-color-gray-60 */
}
#rh-diagram-svg .node.neutral .nodeLabel { fill: #151515; }

/* Brand (Red Hat red) */
#rh-diagram-svg .node.brand rect,
#rh-diagram-svg .node.brand polygon {
  fill: #fce3e3; /* --rh-color-red-10 */
  stroke: #ee0000; /* --rh-color-red-50 */
}
#rh-diagram-svg .node.brand .nodeLabel { fill: #5f0000; }

/* ============================================================
 * CLUSTER / SUBGRAPH COLOR VARIANTS
 * Apply via :::className on subgraph definitions:
 *
 *   subgraph id["Label"]:::blue   — emphasizing components
 *   subgraph id["Label"]:::green  — only when a third color is needed
 *
 * Default clusters use gray-10 fill / gray-30 stroke (see above).
 * ============================================================ */

/* Blue — use when emphasizing components */
#rh-diagram-svg .cluster.blue rect { fill: #e0f0ff; stroke: #0066cc; } /* blue-10 fill, blue-50 stroke */
#rh-diagram-svg .cluster.blue .cluster-label text,
#rh-diagram-svg .cluster.blue .cluster-label tspan { fill: #151515; }

/* Green — only use when you must have a third color */
#rh-diagram-svg .cluster.green rect { fill: #e9f7df; stroke: #63993d; } /* green-10 fill, green-50 stroke */
#rh-diagram-svg .cluster.green .cluster-label text,
#rh-diagram-svg .cluster.green .cluster-label tspan { fill: #151515; }

/* ============================================================
 * TOOLTIP
 * ============================================================ */

#rh-diagram-svg div.mermaidTooltip {
  font-family: "Red Hat Text", RedHatText, Helvetica, Arial, sans-serif;
  font-size: 12px;
  background: #ffffff;
  border: 1px solid #c7c7c7; /* --rh-color-gray-30 */
  border-radius: 3px; /* --rh-border-radius-default */
  color: #151515;
}
</style></svg>