<svg id="rh-diagram-svg" width="1804" height="830" xmlns="http://www.w3.org/2000/svg" xmlns:xlink="http://www.w3.org/1999/xlink" class="flowchart" style="background-color: white;" viewBox="0 0 1803.6632080078125 830.2999877929688" role="graphics-document document" aria-roledescription="flowchart-v2"><style>#rh-diagram-svg{font-family:"trebuchet ms",verdana,arial,sans-serif;font-size:16px;fill:#333;}@keyframes edge-animation-frame{from{stroke-dashoffset:0;}}@keyframes dash{to{stroke-dashoffset:0;}}#rh-diagram-svg .edge-animation-slow{stroke-dasharray:9,5!important;stroke-dashoffset:900;animation:dash 50s linear infinite;stroke-linecap:round;}#rh-diagram-svg .edge-animation-fast{stroke-dasharray:9,5!important;stroke-dashoffset:900;animation:dash 20s linear infinite;stroke-linecap:round;}#rh-diagram-svg .error-icon{fill:#552222;}#rh-diagram-svg .error-text{fill:#552222;stroke:#552222;}#rh-diagram-svg .edge-thickness-normal{stroke-width:1px;}#rh-diagram-svg .edge-thickness-thick{stroke-width:3.5px;}#rh-diagram-svg .edge-pattern-solid{stroke-dasharray:0;}#rh-diagram-svg .edge-thickness-invisible{stroke-width:0;fill:none;}#rh-diagram-svg .edge-pattern-dashed{stroke-dasharray:3;}#rh-diagram-svg .edge-pattern-dotted{stroke-dasharray:2;}#rh-diagram-svg .marker{fill:#333333;stroke:#333333;}#rh-diagram-svg .marker.cross{stroke:#333333;}#rh-diagram-svg svg{font-family:"trebuchet ms",verdana,arial,sans-serif;font-size:16px;}#rh-diagram-svg p{margin:0;}#rh-diagram-svg .label{font-family:"trebuchet ms",verdana,arial,sans-serif;color:#333;}#rh-diagram-svg .cluster-label text{fill:#333;}#rh-diagram-svg .cluster-label span{color:#333;}#rh-diagram-svg .cluster-label span p{background-color:transparent;}#rh-diagram-svg .label text,#rh-diagram-svg span{fill:#333;color:#333;}#rh-diagram-svg .node rect,#rh-diagram-svg .node circle,#rh-diagram-svg .node ellipse,#rh-diagram-svg .node polygon,#rh-diagram-svg .node path{fill:#ECECFF;stroke:#9370DB;stroke-width:1px;}#rh-diagram-svg .rough-node .label text,#rh-diagram-svg .node .label text,#rh-diagram-svg .image-shape .label,#rh-diagram-svg .icon-shape .label{text-anchor:middle;}#rh-diagram-svg .node .katex path{fill:#000;stroke:#000;stroke-width:1px;}#rh-diagram-svg .rough-node .label,#rh-diagram-svg .node .label,#rh-diagram-svg .image-shape .label,#rh-diagram-svg .icon-shape .label{text-align:center;}#rh-diagram-svg .node.clickable{cursor:pointer;}#rh-diagram-svg .root .anchor path{fill:#333333!important;stroke-width:0;stroke:#333333;}#rh-diagram-svg .arrowheadPath{fill:#333333;}#rh-diagram-svg .edgePath .path{stroke:#333333;stroke-width:2.0px;}#rh-diagram-svg .flowchart-link{stroke:#333333;fill:none;}#rh-diagram-svg .edgeLabel{background-color:rgba(232,232,232, 0.8);text-align:center;}#rh-diagram-svg .edgeLabel p{background-color:rgba(232,232,232, 0.8);}#rh-diagram-svg .edgeLabel rect{opacity:0.5;background-color:rgba(232,232,232, 0.8);fill:rgba(232,232,232, 0.8);}#rh-diagram-svg .labelBkg{background-color:rgba(232, 232, 232, 0.5);}#rh-diagram-svg .cluster rect{fill:#ffffde;stroke:#aaaa33;stroke-width:1px;}#rh-diagram-svg .cluster text{fill:#333;}#rh-diagram-svg .cluster span{color:#333;}#rh-diagram-svg div.mermaidTooltip{position:absolute;text-align:center;max-width:200px;padding:2px;font-family:"trebuchet ms",verdana,arial,sans-serif;font-size:12px;background:hsl(80, 100%, 96.2745098039%);border:1px solid #aaaa33;border-radius:2px;pointer-events:none;z-index:100;}#rh-diagram-svg .flowchartTitleText{text-anchor:middle;font-size:18px;fill:#333;}#rh-diagram-svg rect.text{fill:none;stroke-width:0;}#rh-diagram-svg .icon-shape,#rh-diagram-svg .image-shape{background-color:rgba(232,232,232, 0.8);text-align:center;}#rh-diagram-svg .icon-shape p,#rh-diagram-svg .image-shape p{background-color:rgba(232,232,232, 0.8);padding:2px;}#rh-diagram-svg .icon-shape .label rect,#rh-diagram-svg .image-shape .label rect{opacity:0.5;background-color:rgba(232,232,232, 0.8);fill:rgba(232,232,232, 0.8);}#rh-diagram-svg .label-icon{display:inline-block;height:1em;overflow:visible;vertical-align:-0.125em;}#rh-diagram-svg .node .label-icon path{fill:currentColor;stroke:revert;stroke-width:revert;}#rh-diagram-svg :root{--mermaid-font-family:"trebuchet ms",verdana,arial,sans-serif;}</style><g><marker id="rh-diagram-svg_flowchart-v2-pointEnd" class="marker flowchart-v2" viewBox="0 0 10 10" refX="5" refY="5" markerUnits="userSpaceOnUse" markerWidth="8" markerHeight="8" orient="auto"><path d="M 0 0 L 10 5 L 0 10 z" class="arrowMarkerPath" style="stroke-width: 1; stroke-dasharray: 1, 0;"/></marker><marker id="rh-diagram-svg_flowchart-v2-pointStart" class="marker flowchart-v2" viewBox="0 0 10 10" refX="4.5" refY="5" markerUnits="userSpaceOnUse" markerWidth="8" markerHeight="8" orient="auto"><path d="M 0 5 L 10 10 L 10 0 z" class="arrowMarkerPath" style="stroke-width: 1; stroke-dasharray: 1, 0;"/></marker><marker id="rh-diagram-svg_flowchart-v2-circleEnd" class="marker flowchart-v2" viewBox="0 0 10 10" refX="11" refY="5" markerUnits="userSpaceOnUse" markerWidth="11" markerHeight="11" orient="auto"><circle cx="5" cy="5" r="5" class="arrowMarkerPath" style="stroke-width: 1; stroke-dasharray: 1, 0;"/></marker><marker id="rh-diagram-svg_flowchart-v2-circleStart" class="marker flowchart-v2" viewBox="0 0 10 10" refX="-1" refY="5" markerUnits="userSpaceOnUse" markerWidth="11" markerHeight="11" orient="auto"><circle cx="5" cy="5" r="5" class="arrowMarkerPath" style="stroke-width: 1; stroke-dasharray: 1, 0;"/></marker><marker id="rh-diagram-svg_flowchart-v2-crossEnd" class="marker cross flowchart-v2" viewBox="0 0 11 11" refX="12" refY="5.2" markerUnits="userSpaceOnUse" markerWidth="11" markerHeight="11" orient="auto"><path d="M 1,1 l 9,9 M 10,1 l -9,9" class="arrowMarkerPath" style="stroke-width: 2; stroke-dasharray: 1, 0;"/></marker><marker id="rh-diagram-svg_flowchart-v2-crossStart" class="marker cross flowchart-v2" viewBox="0 0 11 11" refX="-1" refY="5.2" markerUnits="userSpaceOnUse" markerWidth="11" markerHeight="11" orient="auto"><path d="M 1,1 l 9,9 M 10,1 l -9,9" class="arrowMarkerPath" style="stroke-width: 2; stroke-dasharray: 1, 0;"/></marker><g class="root"><g class="clusters"><g class="cluster" id="ECs" data-look="classic"><rect style="" x="1035.5929336547852" y="8" width="262.3984375" height="814.299976348877"/><g class="cluster-label" transform="translate(1043.5929336547852, 8)"><g><rect class="background" style="stroke: none"/><text y="-10.1" style="text-anchor:start;text-anchor:start;"><tspan class="text-outer-tspan row" x="0" y="-0.1em" dy="1.1em"><tspan font-style="normal" class="text-inner-tspan" font-weight="normal">Engine</tspan><tspan font-style="normal" class="text-inner-tspan" font-weight="normal"> Cores</tspan><tspan font-style="normal" class="text-inner-tspan" font-weight="normal"> (×4,</tspan><tspan font-style="normal" class="text-inner-tspan" font-weight="normal"> DP=4)</tspan></tspan></text></g></g></g><g class="cluster" id="DP3" data-look="classic"><rect style="fill:#ffffff;stroke:#ffffff;fill:#ffffff;stroke:#ffffff;" x="1060.5929336547852" y="28" width="212.3984375" height="231.79999923706055"/><g class="cluster-label" transform="translate(1068.5929336547852, 28)"><g><rect class="background" style="stroke: none"/><text y="-10.1" style="text-anchor:start;text-anchor:start;"><tspan class="text-outer-tspan row" x="0" y="-0.1em" dy="1.1em"><tspan font-style="normal" class="text-inner-tspan" font-weight="normal">DP</tspan><tspan font-style="normal" class="text-inner-tspan" font-weight="normal"> Rank</tspan><tspan font-style="normal" class="text-inner-tspan" font-weight="normal"> 3</tspan></tspan></text></g></g></g><g class="cluster" id="DP2" data-look="classic"><rect style="fill:#ffffff;stroke:#ffffff;fill:#ffffff;stroke:#ffffff;" x="1060.5929336547852" y="685.299976348877" width="212.3984375" height="117"/><g class="cluster-label" transform="translate(1068.5929336547852, 685.299976348877)"><g><rect class="background" style="stroke: none"/><text y="-10.1" style="text-anchor:start;text-anchor:start;"><tspan class="text-outer-tspan row" x="0" y="-0.1em" dy="1.1em"><tspan font-style="normal" class="text-inner-tspan" font-weight="normal">DP</tspan><tspan font-style="normal" class="text-inner-tspan" font-weight="normal"> Rank</tspan><tspan font-style="normal" class="text-inner-tspan" font-weight="normal"> 2</tspan></tspan></text></g></g></g><g class="cluster" id="DP1" data-look="classic"><rect style="fill:#ffffff;stroke:#ffffff;fill:#ffffff;stroke:#ffffff;" x="1060.5929336547852" y="495.6999855041504" width="212.3984375" height="117"/><g class="cluster-label" transform="translate(1068.5929336547852, 495.6999855041504)"><g><rect class="background" style="stroke: none"/><text y="-10.1" style="text-anchor:start;text-anchor:start;"><tspan class="text-outer-tspan row" x="0" y="-0.1em" dy="1.1em"><tspan font-style="normal" class="text-inner-tspan" font-weight="normal">DP</tspan><tspan font-style="normal" class="text-inner-tspan" font-weight="normal"> Rank</tspan><tspan font-style="normal" class="text-inner-tspan" font-weight="normal"> 1</tspan></tspan></text></g></g></g><g class="cluster" id="DP0" data-look="classic"><rect style="fill:#ffffff;stroke:#ffffff;fill:#ffffff;stroke:#ffffff;" x="1060.5929336547852" y="306.0999946594238" width="212.3984375" height="117"/><g class="cluster-label" transform="translate(1068.5929336547852, 306.0999946594238)"><g><rect class="background" style="stroke: none"/><text y="-10.1" style="text-anchor:start;text-anchor:start;"><tspan class="text-outer-tspan row" x="0" y="-0.1em" dy="1.1em"><tspan font-style="normal" class="text-inner-tspan" font-weight="normal">DP</tspan><tspan font-style="normal" class="text-inner-tspan" font-weight="normal"> Rank</tspan><tspan font-style="normal" class="text-inner-tspan" font-weight="normal"> 0</tspan></tspan></text></g></g></g></g><g class="edgePaths"><path d="M72.765,77.25L97.765,77.25L118.765,77.25" id="L_HTTP_APIs_0" class="edge-thickness-normal edge-pattern-dotted edge-thickness-normal edge-pattern-solid flowchart-link" style=";" data-edge="true" data-et="edge" data-id="L_HTTP_APIs_0" data-points="W3sieCI6NzIuNzY0ODA4NjU0Nzg1MTYsInkiOjc3LjI1fSx7IngiOjk3Ljc2NDgwODY1NDc4NTE2LCJ5Ijo3Ny4yNX0seyJ4IjoxMjIuNzY0ODA4NjU0Nzg1MTYsInkiOjc3LjI1fV0=" marker-end="url(#rh-diagram-svg_flowchart-v2-pointEnd)"/><path d="M950.046,77.25L990.819,77.25L1031.593,77.25" id="L_APIs_ECs_0" class="edge-thickness-normal edge-pattern-dotted edge-thickness-normal edge-pattern-solid flowchart-link" style=";" data-edge="true" data-et="edge" data-id="L_APIs_ECs_0" data-points="W3sieCI6OTQ2LjA0NjA1ODY1NDc4NTIsInkiOjc3LjI1fSx7IngiOjk5MC44MTk0OTYxNTQ3ODUyLCJ5Ijo3Ny4yNX0seyJ4IjoxMDM1LjU5MjkzMzY1NDc4NTIsInkiOjc3LjI1fSx7IngiOjEwNjAuNTkyOTMzNjU0Nzg1MiwieSI6NzcuMjV9LHsieCI6MTEzMS45NjA1ODcxMDI0NTE3LCJ5IjoxMjUuMzk5OTk5NjE4NTMwMjd9XQ==" marker-start="url(#rh-diagram-svg_flowchart-v2-pointStart)" marker-end="url(#rh-diagram-svg_flowchart-v2-pointEnd)"/><path d="M619.816,220.55L990.819,220.55L1031.593,220.55" id="L_DPC_ECs_0" class="edge-thickness-normal edge-pattern-dotted edge-thickness-normal edge-pattern-solid flowchart-link" style=";" data-edge="true" data-et="edge" data-id="L_DPC_ECs_0" data-points="W3sieCI6NjE5LjgxNTU4OTkwNDc4NTIsInkiOjIyMC41NDk5OTkyMzcwNjA1NX0seyJ4Ijo5OTAuODE5NDk2MTU0Nzg1MiwieSI6MjIwLjU0OTk5OTIzNzA2MDU1fSx7IngiOjEwMzUuNTkyOTMzNjU0Nzg1MiwieSI6MjIwLjU0OTk5OTIzNzA2MDU1fSx7IngiOjEwNjAuNTkyOTMzNjU0Nzg1MiwieSI6MjIwLjU0OTk5OTIzNzA2MDU1fSx7IngiOjExMzEuOTYwNTg3MTAyNDUxNywieSI6MTcyLjM5OTk5OTYxODUzMDI3fV0=" marker-end="url(#rh-diagram-svg_flowchart-v2-pointEnd)"/><path d="M1247.991,364.6L1272.991,364.6L1297.991,364.6L1322.991,364.6L1343.991,364.6" id="L_EC0_GW0G_0" class="edge-thickness-normal edge-pattern-dotted edge-thickness-normal edge-pattern-solid flowchart-link" style=";" data-edge="true" data-et="edge" data-id="L_EC0_GW0G_0" data-points="W3sieCI6MTI0Ny45OTEzNzExNTQ3ODUyLCJ5IjozNjQuNTk5OTk0NjU5NDIzOH0seyJ4IjoxMjcyLjk5MTM3MTE1NDc4NTIsInkiOjM2NC41OTk5OTQ2NTk0MjM4fSx7IngiOjEyOTcuOTkxMzcxMTU0Nzg1MiwieSI6MzY0LjU5OTk5NDY1OTQyMzh9LHsieCI6MTMyMi45OTEzNzExNTQ3ODUyLCJ5IjozNjQuNTk5OTk0NjU5NDIzOH0seyJ4IjoxMzQ3Ljk5MTM3MTE1NDc4NTIsInkiOjM2NC41OTk5OTQ2NTk0MjM4fV0=" marker-end="url(#rh-diagram-svg_flowchart-v2-pointEnd)"/><path d="M1247.991,554.2L1272.991,554.2L1297.991,554.2L1322.991,554.2L1343.991,554.2" id="L_EC1_GW1G_0" class="edge-thickness-normal edge-pattern-dotted edge-thickness-normal edge-pattern-solid flowchart-link" style=";" data-edge="true" data-et="edge" data-id="L_EC1_GW1G_0" data-points="W3sieCI6MTI0Ny45OTEzNzExNTQ3ODUyLCJ5Ijo1NTQuMTk5OTg1NTA0MTUwNH0seyJ4IjoxMjcyLjk5MTM3MTE1NDc4NTIsInkiOjU1NC4xOTk5ODU1MDQxNTA0fSx7IngiOjEyOTcuOTkxMzcxMTU0Nzg1MiwieSI6NTU0LjE5OTk4NTUwNDE1MDR9LHsieCI6MTMyMi45OTEzNzExNTQ3ODUyLCJ5Ijo1NTQuMTk5OTg1NTA0MTUwNH0seyJ4IjoxMzQ3Ljk5MTM3MTE1NDc4NTIsInkiOjU1NC4xOTk5ODU1MDQxNTA0fV0=" marker-end="url(#rh-diagram-svg_flowchart-v2-pointEnd)"/><path d="M1247.991,743.8L1272.991,743.8L1297.991,743.8L1322.991,743.8L1343.991,743.8" id="L_EC2_GW2G_0" class="edge-thickness-normal edge-pattern-dotted edge-thickness-normal edge-pattern-solid flowchart-link" style=";" data-edge="true" data-et="edge" data-id="L_EC2_GW2G_0" data-points="W3sieCI6MTI0Ny45OTEzNzExNTQ3ODUyLCJ5Ijo3NDMuNzk5OTc2MzQ4ODc3fSx7IngiOjEyNzIuOTkxMzcxMTU0Nzg1MiwieSI6NzQzLjc5OTk3NjM0ODg3N30seyJ4IjoxMjk3Ljk5MTM3MTE1NDc4NTIsInkiOjc0My43OTk5NzYzNDg4Nzd9LHsieCI6MTMyMi45OTEzNzExNTQ3ODUyLCJ5Ijo3NDMuNzk5OTc2MzQ4ODc3fSx7IngiOjEzNDcuOTkxMzcxMTU0Nzg1MiwieSI6NzQzLjc5OTk3NjM0ODg3N31d" marker-end="url(#rh-diagram-svg_flowchart-v2-pointEnd)"/><path d="M1247.991,148.9L1272.991,148.9L1297.991,148.9L1322.991,148.9L1343.991,148.9" id="L_EC3_GW3G_0" class="edge-thickness-normal edge-pattern-dotted edge-thickness-normal edge-pattern-solid flowchart-link" style=";" data-edge="true" data-et="edge" data-id="L_EC3_GW3G_0" data-points="W3sieCI6MTI0Ny45OTEzNzExNTQ3ODUyLCJ5IjoxNDguODk5OTk5NjE4NTMwMjd9LHsieCI6MTI3Mi45OTEzNzExNTQ3ODUyLCJ5IjoxNDguODk5OTk5NjE4NTMwMjd9LHsieCI6MTI5Ny45OTEzNzExNTQ3ODUyLCJ5IjoxNDguODk5OTk5NjE4NTMwMjd9LHsieCI6MTMyMi45OTEzNzExNTQ3ODUyLCJ5IjoxNDguODk5OTk5NjE4NTMwMjd9LHsieCI6MTM0Ny45OTEzNzExNTQ3ODUyLCJ5IjoxNDguODk5OTk5NjE4NTMwMjd9XQ==" marker-end="url(#rh-diagram-svg_flowchart-v2-pointEnd)"/></g><g class="edgeLabels"><g class="edgeLabel"><g class="label" data-id="L_HTTP_APIs_0" transform="translate(0, 0)"><text y="-10.1" text-anchor="middle"><tspan class="text-outer-tspan row" x="0" y="-0.1em" dy="1.1em" text-anchor="middle"/></text></g></g><g><rect class="background" style="stroke: none"/></g><g class="edgeLabel" transform="translate(990.8194961547852, 77.25)"><g class="label" data-id="L_APIs_ECs_0" transform="translate(0, -10.5)"><g><rect class="background" style="" x="-19.7734375" y="0" width="39.546875" height="21"/><text y="-10.1" text-anchor="middle" style=""><tspan class="text-outer-tspan row" x="0" y="-0.1em" dy="1.1em" text-anchor="middle"><tspan font-style="normal" class="text-inner-tspan" font-weight="normal">ZMQ</tspan></tspan></text></g></g></g><g class="edgeLabel"><g class="label" data-id="L_DPC_ECs_0" transform="translate(0, 0)"><text y="-10.1" text-anchor="middle"><tspan class="text-outer-tspan row" x="0" y="-0.1em" dy="1.1em" text-anchor="middle"/></text></g></g><g><rect class="background" style="stroke: none"/></g><g class="edgeLabel"><g class="label" data-id="L_EC0_GW0G_0" transform="translate(0, 0)"><text y="-10.1" text-anchor="middle"><tspan class="text-outer-tspan row" x="0" y="-0.1em" dy="1.1em" text-anchor="middle"/></text></g></g><g><rect class="background" style="stroke: none"/></g><g class="edgeLabel"><g class="label" data-id="L_EC1_GW1G_0" transform="translate(0, 0)"><text y="-10.1" text-anchor="middle"><tspan class="text-outer-tspan row" x="0" y="-0.1em" dy="1.1em" text-anchor="middle"/></text></g></g><g><rect class="background" style="stroke: none"/></g><g class="edgeLabel"><g class="label" data-id="L_EC2_GW2G_0" transform="translate(0, 0)"><text y="-10.1" text-anchor="middle"><tspan class="text-outer-tspan row" x="0" y="-0.1em" dy="1.1em" text-anchor="middle"/></text></g></g><g><rect class="background" style="stroke: none"/></g><g class="edgeLabel"><g class="label" data-id="L_EC3_GW3G_0" transform="translate(0, 0)"><text y="-10.1" text-anchor="middle"><tspan class="text-outer-tspan row" x="0" y="-0.1em" dy="1.1em" text-anchor="middle"/></text></g></g><g><rect class="background" style="stroke: none"/></g></g><g class="nodes"><g class="root" transform="translate(1339.9913711547852, 71.10000419616699)"><g class="clusters"><g class="cluster" id="GW3G" data-look="classic"><rect style="" x="8" y="8" width="447.671875" height="139.5999984741211"/><g class="cluster-label" transform="translate(16, 8)"><g><rect class="background" style="stroke: none"/><text y="-10.1" style="text-anchor:start;text-anchor:start;"><tspan class="text-outer-tspan row" x="0" y="-0.1em" dy="1.1em"><tspan font-style="normal" class="text-inner-tspan" font-weight="normal">TP</tspan><tspan font-style="normal" class="text-inner-tspan" font-weight="normal"> Group</tspan><tspan font-style="normal" class="text-inner-tspan" font-weight="normal"> 3</tspan></tspan></text></g></g></g></g><g class="edgePaths"/><g class="edgeLabels"/><g class="nodes"><g class="node default" id="flowchart-GW6-21" transform="translate(124.91796875, 77.79999923706055)"><rect class="basic label-container" style="" x="-81.91796875" y="-32.29999923706055" width="163.8359375" height="64.5999984741211"/><g class="label" style="" transform="translate(0, -17.299999237060547)"><rect/><g><rect class="background" style="stroke: none"/><text y="-10.1" style=""><tspan class="text-outer-tspan row" x="0" y="-0.1em" dy="1.1em"><tspan font-style="normal" class="text-inner-tspan" font-weight="normal">GPU</tspan><tspan font-style="normal" class="text-inner-tspan" font-weight="normal"> Worker</tspan><tspan font-style="normal" class="text-inner-tspan" font-weight="normal"> 6</tspan></tspan><tspan class="text-outer-tspan row" x="0" y="1em" dy="1.1em"><tspan font-style="normal" class="text-inner-tspan" font-weight="normal">GPU</tspan><tspan font-style="normal" class="text-inner-tspan" font-weight="normal"> 6</tspan></tspan></text></g></g></g><g class="node default" id="flowchart-GW7-22" transform="translate(338.75390625, 77.79999923706055)"><rect class="basic label-container" style="" x="-81.91796875" y="-32.29999923706055" width="163.8359375" height="64.5999984741211"/><g class="label" style="" transform="translate(0, -17.299999237060547)"><rect/><g><rect class="background" style="stroke: none"/><text y="-10.1" style=""><tspan class="text-outer-tspan row" x="0" y="-0.1em" dy="1.1em"><tspan font-style="normal" class="text-inner-tspan" font-weight="normal">GPU</tspan><tspan font-style="normal" class="text-inner-tspan" font-weight="normal"> Worker</tspan><tspan font-style="normal" class="text-inner-tspan" font-weight="normal"> 7</tspan></tspan><tspan class="text-outer-tspan row" x="0" y="1em" dy="1.1em"><tspan font-style="normal" class="text-inner-tspan" font-weight="normal">GPU</tspan><tspan font-style="normal" class="text-inner-tspan" font-weight="normal"> 7</tspan></tspan></text></g></g></g></g></g><g class="root" transform="translate(1339.9913711547852, 665.9999809265137)"><g class="clusters"><g class="cluster" id="GW2G" data-look="classic"><rect style="" x="8" y="8" width="447.671875" height="139.5999984741211"/><g class="cluster-label" transform="translate(16, 8)"><g><rect class="background" style="stroke: none"/><text y="-10.1" style="text-anchor:start;text-anchor:start;"><tspan class="text-outer-tspan row" x="0" y="-0.1em" dy="1.1em"><tspan font-style="normal" class="text-inner-tspan" font-weight="normal">TP</tspan><tspan font-style="normal" class="text-inner-tspan" font-weight="normal"> Group</tspan><tspan font-style="normal" class="text-inner-tspan" font-weight="normal"> 2</tspan></tspan></text></g></g></g></g><g class="edgePaths"/><g class="edgeLabels"/><g class="nodes"><g class="node default" id="flowchart-GW4-19" transform="translate(124.91796875, 77.79999923706055)"><rect class="basic label-container" style="" x="-81.91796875" y="-32.29999923706055" width="163.8359375" height="64.5999984741211"/><g class="label" style="" transform="translate(0, -17.299999237060547)"><rect/><g><rect class="background" style="stroke: none"/><text y="-10.1" style=""><tspan class="text-outer-tspan row" x="0" y="-0.1em" dy="1.1em"><tspan font-style="normal" class="text-inner-tspan" font-weight="normal">GPU</tspan><tspan font-style="normal" class="text-inner-tspan" font-weight="normal"> Worker</tspan><tspan font-style="normal" class="text-inner-tspan" font-weight="normal"> 4</tspan></tspan><tspan class="text-outer-tspan row" x="0" y="1em" dy="1.1em"><tspan font-style="normal" class="text-inner-tspan" font-weight="normal">GPU</tspan><tspan font-style="normal" class="text-inner-tspan" font-weight="normal"> 4</tspan></tspan></text></g></g></g><g class="node default" id="flowchart-GW5-20" transform="translate(338.75390625, 77.79999923706055)"><rect class="basic label-container" style="" x="-81.91796875" y="-32.29999923706055" width="163.8359375" height="64.5999984741211"/><g class="label" style="" transform="translate(0, -17.299999237060547)"><rect/><g><rect class="background" style="stroke: none"/><text y="-10.1" style=""><tspan class="text-outer-tspan row" x="0" y="-0.1em" dy="1.1em"><tspan font-style="normal" class="text-inner-tspan" font-weight="normal">GPU</tspan><tspan font-style="normal" class="text-inner-tspan" font-weight="normal"> Worker</tspan><tspan font-style="normal" class="text-inner-tspan" font-weight="normal"> 5</tspan></tspan><tspan class="text-outer-tspan row" x="0" y="1em" dy="1.1em"><tspan font-style="normal" class="text-inner-tspan" font-weight="normal">GPU</tspan><tspan font-style="normal" class="text-inner-tspan" font-weight="normal"> 5</tspan></tspan></text></g></g></g></g></g><g class="root" transform="translate(1339.9913711547852, 476.3999900817871)"><g class="clusters"><g class="cluster" id="GW1G" data-look="classic"><rect style="" x="8" y="8" width="447.671875" height="139.5999984741211"/><g class="cluster-label" transform="translate(16, 8)"><g><rect class="background" style="stroke: none"/><text y="-10.1" style="text-anchor:start;text-anchor:start;"><tspan class="text-outer-tspan row" x="0" y="-0.1em" dy="1.1em"><tspan font-style="normal" class="text-inner-tspan" font-weight="normal">TP</tspan><tspan font-style="normal" class="text-inner-tspan" font-weight="normal"> Group</tspan><tspan font-style="normal" class="text-inner-tspan" font-weight="normal"> 1</tspan></tspan></text></g></g></g></g><g class="edgePaths"/><g class="edgeLabels"/><g class="nodes"><g class="node default" id="flowchart-GW2-17" transform="translate(124.91796875, 77.79999923706055)"><rect class="basic label-container" style="" x="-81.91796875" y="-32.29999923706055" width="163.8359375" height="64.5999984741211"/><g class="label" style="" transform="translate(0, -17.299999237060547)"><rect/><g><rect class="background" style="stroke: none"/><text y="-10.1" style=""><tspan class="text-outer-tspan row" x="0" y="-0.1em" dy="1.1em"><tspan font-style="normal" class="text-inner-tspan" font-weight="normal">GPU</tspan><tspan font-style="normal" class="text-inner-tspan" font-weight="normal"> Worker</tspan><tspan font-style="normal" class="text-inner-tspan" font-weight="normal"> 2</tspan></tspan><tspan class="text-outer-tspan row" x="0" y="1em" dy="1.1em"><tspan font-style="normal" class="text-inner-tspan" font-weight="normal">GPU</tspan><tspan font-style="normal" class="text-inner-tspan" font-weight="normal"> 2</tspan></tspan></text></g></g></g><g class="node default" id="flowchart-GW3-18" transform="translate(338.75390625, 77.79999923706055)"><rect class="basic label-container" style="" x="-81.91796875" y="-32.29999923706055" width="163.8359375" height="64.5999984741211"/><g class="label" style="" transform="translate(0, -17.299999237060547)"><rect/><g><rect class="background" style="stroke: none"/><text y="-10.1" style=""><tspan class="text-outer-tspan row" x="0" y="-0.1em" dy="1.1em"><tspan font-style="normal" class="text-inner-tspan" font-weight="normal">GPU</tspan><tspan font-style="normal" class="text-inner-tspan" font-weight="normal"> Worker</tspan><tspan font-style="normal" class="text-inner-tspan" font-weight="normal"> 3</tspan></tspan><tspan class="text-outer-tspan row" x="0" y="1em" dy="1.1em"><tspan font-style="normal" class="text-inner-tspan" font-weight="normal">GPU</tspan><tspan font-style="normal" class="text-inner-tspan" font-weight="normal"> 3</tspan></tspan></text></g></g></g></g></g><g class="root" transform="translate(1339.9913711547852, 286.79999923706055)"><g class="clusters"><g class="cluster" id="GW0G" data-look="classic"><rect style="" x="8" y="8" width="447.671875" height="139.5999984741211"/><g class="cluster-label" transform="translate(16, 8)"><g><rect class="background" style="stroke: none"/><text y="-10.1" style="text-anchor:start;text-anchor:start;"><tspan class="text-outer-tspan row" x="0" y="-0.1em" dy="1.1em"><tspan font-style="normal" class="text-inner-tspan" font-weight="normal">TP</tspan><tspan font-style="normal" class="text-inner-tspan" font-weight="normal"> Group</tspan><tspan font-style="normal" class="text-inner-tspan" font-weight="normal"> 0</tspan></tspan></text></g></g></g></g><g class="edgePaths"/><g class="edgeLabels"/><g class="nodes"><g class="node default" id="flowchart-GW0-15" transform="translate(124.91796875, 77.79999923706055)"><rect class="basic label-container" style="" x="-81.91796875" y="-32.29999923706055" width="163.8359375" height="64.5999984741211"/><g class="label" style="" transform="translate(0, -17.299999237060547)"><rect/><g><rect class="background" style="stroke: none"/><text y="-10.1" style=""><tspan class="text-outer-tspan row" x="0" y="-0.1em" dy="1.1em"><tspan font-style="normal" class="text-inner-tspan" font-weight="normal">GPU</tspan><tspan font-style="normal" class="text-inner-tspan" font-weight="normal"> Worker</tspan><tspan font-style="normal" class="text-inner-tspan" font-weight="normal"> 0</tspan></tspan><tspan class="text-outer-tspan row" x="0" y="1em" dy="1.1em"><tspan font-style="normal" class="text-inner-tspan" font-weight="normal">GPU</tspan><tspan font-style="normal" class="text-inner-tspan" font-weight="normal"> 0</tspan></tspan></text></g></g></g><g class="node default" id="flowchart-GW1-16" transform="translate(338.75390625, 77.79999923706055)"><rect class="basic label-container" style="" x="-81.91796875" y="-32.29999923706055" width="163.8359375" height="64.5999984741211"/><g class="label" style="" transform="translate(0, -17.299999237060547)"><rect/><g><rect class="background" style="stroke: none"/><text y="-10.1" style=""><tspan class="text-outer-tspan row" x="0" y="-0.1em" dy="1.1em"><tspan font-style="normal" class="text-inner-tspan" font-weight="normal">GPU</tspan><tspan font-style="normal" class="text-inner-tspan" font-weight="normal"> Worker</tspan><tspan font-style="normal" class="text-inner-tspan" font-weight="normal"> 1</tspan></tspan><tspan class="text-outer-tspan row" x="0" y="1em" dy="1.1em"><tspan font-style="normal" class="text-inner-tspan" font-weight="normal">GPU</tspan><tspan font-style="normal" class="text-inner-tspan" font-weight="normal"> 1</tspan></tspan></text></g></g></g></g></g><g class="root" transform="translate(114.76480865478516, 8.25)"><g class="clusters"><g class="cluster" id="APIs" data-look="classic"><rect style="" x="8" y="8" width="823.28125" height="122"/><g class="cluster-label" transform="translate(16, 8)"><g><rect class="background" style="stroke: none"/><text y="-10.1" style="text-anchor:start;text-anchor:start;"><tspan class="text-outer-tspan row" x="0" y="-0.1em" dy="1.1em"><tspan font-style="normal" class="text-inner-tspan" font-weight="normal">API</tspan><tspan font-style="normal" class="text-inner-tspan" font-weight="normal"> Servers</tspan><tspan font-style="normal" class="text-inner-tspan" font-weight="normal"> (×4)</tspan></tspan></text></g></g></g></g><g class="edgePaths"/><g class="edgeLabels"/><g class="nodes"><g class="node default" id="flowchart-API0-2" transform="translate(118.41015625, 69)"><rect class="basic label-container" style="" x="-75.41015625" y="-23.5" width="150.8203125" height="47"/><g class="label" style="" transform="translate(0, -8.5)"><rect/><g><rect class="background" style="stroke: none"/><text y="-10.1" style=""><tspan class="text-outer-tspan row" x="0" y="-0.1em" dy="1.1em"><tspan font-style="normal" class="text-inner-tspan" font-weight="normal">API</tspan><tspan font-style="normal" class="text-inner-tspan" font-weight="normal"> Server</tspan><tspan font-style="normal" class="text-inner-tspan" font-weight="normal"> 0</tspan></tspan></text></g></g></g><g class="node default" id="flowchart-API1-3" transform="translate(319.23046875, 69)"><rect class="basic label-container" style="" x="-75.41015625" y="-23.5" width="150.8203125" height="47"/><g class="label" style="" transform="translate(0, -8.5)"><rect/><g><rect class="background" style="stroke: none"/><text y="-10.1" style=""><tspan class="text-outer-tspan row" x="0" y="-0.1em" dy="1.1em"><tspan font-style="normal" class="text-inner-tspan" font-weight="normal">API</tspan><tspan font-style="normal" class="text-inner-tspan" font-weight="normal"> Server</tspan><tspan font-style="normal" class="text-inner-tspan" font-weight="normal"> 1</tspan></tspan></text></g></g></g><g class="node default" id="flowchart-API2-4" transform="translate(520.05078125, 69)"><rect class="basic label-container" style="" x="-75.41015625" y="-23.5" width="150.8203125" height="47"/><g class="label" style="" transform="translate(0, -8.5)"><rect/><g><rect class="background" style="stroke: none"/><text y="-10.1" style=""><tspan class="text-outer-tspan row" x="0" y="-0.1em" dy="1.1em"><tspan font-style="normal" class="text-inner-tspan" font-weight="normal">API</tspan><tspan font-style="normal" class="text-inner-tspan" font-weight="normal"> Server</tspan><tspan font-style="normal" class="text-inner-tspan" font-weight="normal"> 2</tspan></tspan></text></g></g></g><g class="node default" id="flowchart-API3-5" transform="translate(720.87109375, 69)"><rect class="basic label-container" style="" x="-75.41015625" y="-23.5" width="150.8203125" height="47"/><g class="label" style="" transform="translate(0, -8.5)"><rect/><g><rect class="background" style="stroke: none"/><text y="-10.1" style=""><tspan class="text-outer-tspan row" x="0" y="-0.1em" dy="1.1em"><tspan font-style="normal" class="text-inner-tspan" font-weight="normal">API</tspan><tspan font-style="normal" class="text-inner-tspan" font-weight="normal"> Server</tspan><tspan font-style="normal" class="text-inner-tspan" font-weight="normal"> 3</tspan></tspan></text></g></g></g></g></g><g class="node default" id="flowchart-HTTP-0" transform="translate(40.38240432739258, 77.25)"><g class="basic label-container outer-path"><path d="M-16.390625 -16 C-5.203778461504562 -16, 5.983068076990875 -16, 16.390625 -16 C16.390625 -16, 16.390625 -16, 16.390625 -16 C16.612099485121945 -15.992897744336073, 16.833573970243894 -15.985795488672146, 17.415748519691405 -15.967126284005381 C17.76945686239555 -15.933004465581233, 18.123165205099696 -15.898882647157084, 18.436659586952093 -15.868640221171939 C18.69113860334735 -15.8274980273154, 18.945617619742613 -15.786355833458861, 19.449163059221956 -15.704946511857047 C19.662045661813625 -15.656357447004307, 19.87492826440529 -15.607768382151567, 20.449098342552116 -15.476717808624471 C20.74451255052402 -15.38904042235923, 21.039926758495927 -15.30136303609399, 21.43235648837793 -15.184891952170698 C21.720627340040622 -15.078805614012287, 22.008898191703313 -14.972719275853875, 22.394897078069985 -14.830668117536348 C22.6205639463212 -14.730772089131337, 22.84623081457242 -14.630876060726326, 23.33276482588093 -14.415501886438706 C23.642420885691536 -14.253954518379684, 23.952076945502146 -14.092407150320662, 24.242105832063 -13.941099265974232 C24.46534311062682 -13.80577151582098, 24.688580389190637 -13.670443765667727, 25.119183419368778 -13.409409678269451 C25.402891383250928 -13.211507284185076, 25.686599347133075 -13.013604890100702, 25.960393487859456 -12.822617949887306 C26.212277907733643 -12.621746827963559, 26.46416232760783 -12.420875706039814, 26.762279324924613 -12.183135333906153 C26.918477252807737 -12.041280508573402, 27.07467518069086 -11.899425683240654, 27.521545809655784 -11.493589601563642 C27.743637342661934 -11.264261859680824, 27.965728875668084 -11.034934117798008, 28.235072953205048 -10.756814244181072 C28.36924713583997 -10.599205614530817, 28.503421318474892 -10.441596984880563, 28.89992871948848 -9.975836829739738 C29.095679718738605 -9.713548324027464, 29.29143071798873 -9.45125981831519, 29.51338107355129 -9.153866561954718 C29.70899738324605 -8.853347379929474, 29.90461369294081 -8.55282819790423, 30.072909208085537 -8.294281092968403 C30.272060399179647 -7.9406679869359635, 30.471211590273754 -7.587054880903525, 30.576213901968003 -7.400612643853364 C30.691748864868046 -7.160701821339233, 30.80728382776809 -6.920790998825101, 31.021226968252996 -6.476533489958305 C31.156578870106813 -6.1422116755283795, 31.29193077196063 -5.807889861098454, 31.406119752796165 -5.52584087074093 C31.484326070571527 -5.2902959020861084, 31.56253238834689 -5.054750933431287, 31.72931064858657 -4.552441386096524 C31.79248999166046 -4.311511168855275, 31.85566933473435 -4.0705809516140254, 31.989471594909176 -3.560334943301032 C32.03258051918237 -3.3389797282325695, 32.07568944345556 -3.117624513164107, 32.185533534631205 -2.5535983205340735 C32.23102370814815 -2.2007855177874425, 32.276513881665096 -1.8479727150408114, 32.31669080718717 -1.536368414522911 C32.33768864439004 -1.2093101509390436, 32.35868648159291 -0.8822518873551762, 32.382404459211 -0.5128252411464826 C32.382404459211 -0.2722389219742052, 32.382404459211 -0.031652602801927776, 32.382404459211 0.5128252411464788 C32.36869172545888 0.7264121380552333, 32.35497899170676 0.939999034963988, 32.31669080718717 1.5363684145229002 C32.27962379330412 1.8238528544900507, 32.242556779421065 2.111337294457201, 32.185533534631205 2.5535983205340624 C32.14016149067507 2.7865741768639394, 32.09478944671893 3.0195500331938163, 31.989471594909176 3.5603349433010285 C31.927525818565606 3.796561035968361, 31.865580042222035 4.032787128635693, 31.72931064858657 4.552441386096513 C31.659308911443947 4.763275465107925, 31.58930717430132 4.974109544119336, 31.406119752796165 5.525840870740919 C31.263276013075508 5.878667669546778, 31.12043227335485 6.231494468352637, 31.021226968253 6.4765334899583005 C30.92902741462659 6.66798783581796, 30.83682786100018 6.859442181677618, 30.576213901968003 7.400612643853361 C30.43454307742347 7.652163538558763, 30.292872252878936 7.903714433264165, 30.07290920808554 8.294281092968399 C29.88149296193217 8.588347849519092, 29.690076715778797 8.882414606069785, 29.513381073551297 9.15386656195471 C29.3681352438466 9.34848274159171, 29.222889414141896 9.54309892122871, 28.89992871948848 9.975836829739734 C28.725011962190543 10.18130400590734, 28.550095204892607 10.386771182074943, 28.235072953205055 10.756814244181063 C28.06826818651017 10.929053860719568, 27.901463419815283 11.101293477258073, 27.521545809655784 11.493589601563638 C27.2207592502321 11.766755996455972, 26.919972690808418 12.039922391348307, 26.762279324924627 12.183135333906142 C26.485042046110802 12.404224686166339, 26.207804767296977 12.625314038426534, 25.96039348785946 12.822617949887304 C25.740128112902628 12.976265540322789, 25.519862737945793 13.129913130758272, 25.119183419368788 13.409409678269446 C24.850501626991647 13.57228615975794, 24.581819834614507 13.735162641246436, 24.242105832063004 13.94109926597423 C23.949378191904703 14.093815088343813, 23.656650551746402 14.246530910713398, 23.332764825880933 14.415501886438705 C22.993770314150396 14.56556470086691, 22.654775802419863 14.715627515295115, 22.39489707806999 14.830668117536346 C22.174430674933213 14.911801791859771, 21.95396427179643 14.992935466183196, 21.43235648837794 15.184891952170695 C21.165742818488308 15.264021489910228, 20.89912914859867 15.34315102764976, 20.449098342552134 15.476717808624468 C20.131926429592113 15.549110228017433, 19.814754516632092 15.621502647410399, 19.449163059221963 15.704946511857045 C19.087595797377976 15.763401902755987, 18.726028535533988 15.82185729365493, 18.436659586952103 15.868640221171937 C18.151526277582548 15.896146688603842, 17.866392968212992 15.923653156035748, 17.415748519691405 15.967126284005381 C17.122401822174226 15.976533341630049, 16.82905512465705 15.985940399254716, 16.390625000000004 16 C16.390625000000004 16, 16.390625 16, 16.390625 16 C4.651820557293714 16, -7.086983885412572 16, -16.390624999999996 16 C-16.63537337540393 15.99215139597461, -16.880121750807866 15.984302791949217, -17.415748519691398 15.967126284005381 C-17.813943019482526 15.928712939509483, -18.212137519273654 15.890299595013584, -18.4366595869521 15.868640221171937 C-18.80708952928419 15.808751980822791, -19.177519471616286 15.748863740473645, -19.449163059221956 15.704946511857045 C-19.728540435028382 15.641180448936984, -20.007917810834808 15.577414386016923, -20.449098342552112 15.476717808624471 C-20.716602909927985 15.397323857187441, -20.98410747730386 15.31792990575041, -21.432356488377923 15.184891952170702 C-21.808279093657376 15.046548958437393, -22.18420169893683 14.908205964704086, -22.394897078069988 14.830668117536348 C-22.74788226283664 14.674412047173625, -23.10086744760329 14.518155976810903, -23.33276482588093 14.415501886438708 C-23.632200852980684 14.259286302898696, -23.931636880080436 14.103070719358682, -24.242105832063 13.941099265974234 C-24.495002106436583 13.787792058265495, -24.74789838081017 13.634484850556754, -25.119183419368767 13.409409678269457 C-25.42972499701247 13.19278931683344, -25.74026657465618 12.976168955397425, -25.960393487859456 12.822617949887308 C-26.242852738997062 12.597364213661416, -26.525311990134664 12.372110477435525, -26.762279324924613 12.183135333906154 C-26.999951820428628 11.967287461959042, -27.237624315932642 11.751439590011929, -27.521545809655777 11.493589601563649 C-27.795089662717487 11.211133114909426, -28.068633515779197 10.928676628255205, -28.235072953205048 10.756814244181069 C-28.48278166491237 10.465841496384659, -28.73049037661969 10.174868748588247, -28.899928719488475 9.97583682973974 C-29.137102376461005 9.6580457363612, -29.37427603343353 9.340254642982659, -29.51338107355129 9.15386656195472 C-29.680005773838953 8.89788627731595, -29.84663047412662 8.64190599267718, -30.072909208085534 8.29428109296841 C-30.228667897851448 8.017715767011406, -30.38442658761736 7.741150441054402, -30.576213901968 7.400612643853366 C-30.66806402128531 7.209883905813246, -30.75991414060262 7.0191551677731265, -31.021226968252996 6.476533489958307 C-31.116132940993342 6.242113902407497, -31.211038913733688 6.007694314856686, -31.406119752796165 5.525840870740931 C-31.482683499617316 5.295243064092057, -31.559247246438463 5.064645257443184, -31.72931064858657 4.552441386096519 C-31.81153656344372 4.238878335809278, -31.89376247830087 3.925315285522036, -31.989471594909176 3.5603349433010343 C-32.04955054495383 3.251842232512325, -32.10962949499849 2.9433495217236154, -32.185533534631205 2.5535983205340753 C-32.21803113012935 2.301553387226551, -32.25052872562749 2.0495084539190267, -32.31669080718717 1.5363684145229202 C-32.33945995831816 1.1817205067298175, -32.36222910944914 0.8270725989367148, -32.382404459211 0.5128252411464846 C-32.382404459211 0.17853009250159552, -32.382404459211 -0.1557650561432936, -32.382404459211 -0.5128252411464769 C-32.35960372900745 -0.867965018484956, -32.336802998803904 -1.2231047958234351, -32.31669080718717 -1.5363684145228982 C-32.27938270819963 -1.8257226629528591, -32.24207460921208 -2.11507691138282, -32.185533534631205 -2.5535983205340678 C-32.145024641335546 -2.761602926049652, -32.10451574803988 -2.969607531565236, -31.989471594909176 -3.5603349433010267 C-31.9031938213313 -3.8893494869770753, -31.816916047753423 -4.218364030653124, -31.729310648586573 -4.552441386096511 C-31.640206757301666 -4.820808109869533, -31.551102866016763 -5.089174833642553, -31.406119752796172 -5.525840870740911 C-31.295591204830107 -5.7988485211411955, -31.18506265686404 -6.071856171541481, -31.021226968253 -6.476533489958299 C-30.885479975122653 -6.758415025713819, -30.74973298199231 -7.04029656146934, -30.576213901968003 -7.400612643853359 C-30.468259685392947 -7.592296286932173, -30.360305468817895 -7.783979930010988, -30.072909208085537 -8.294281092968404 C-29.958294614878753 -8.47035988646167, -29.84368002167197 -8.646438679954938, -29.513381073551294 -9.153866561954715 C-29.350306118406646 -9.372372145414502, -29.187231163262 -9.59087772887429, -28.89992871948848 -9.975836829739734 C-28.69138510822318 -10.2208040219996, -28.482841496957878 -10.465771214259465, -28.235072953205055 -10.756814244181063 C-28.024540775396222 -10.974206002781937, -27.814008597587392 -11.19159776138281, -27.52154580965579 -11.493589601563633 C-27.286721242644706 -11.706851060205524, -27.051896675633625 -11.920112518847416, -26.762279324924627 -12.18313533390614 C-26.4910564178919 -12.399428384720066, -26.219833510859175 -12.615721435533992, -25.960393487859463 -12.822617949887302 C-25.694780017719836 -13.007898408434903, -25.429166547580206 -13.193178866982505, -25.119183419368788 -13.409409678269444 C-24.817555733975375 -13.592258153715962, -24.515928048581962 -13.77510662916248, -24.242105832063007 -13.941099265974229 C-24.005914609941364 -14.064320075267393, -23.76972338781972 -14.187540884560557, -23.332764825880936 -14.415501886438705 C-23.088205523235445 -14.523761035125906, -22.843646220589957 -14.632020183813108, -22.394897078069995 -14.830668117536344 C-22.185482737313915 -14.907734530739528, -21.97606839655783 -14.984800943942712, -21.43235648837794 -15.184891952170695 C-21.168300726368162 -15.263262316278219, -20.90424496435838 -15.341632680385741, -20.449098342552134 -15.476717808624466 C-20.23250865511206 -15.526152991402865, -20.015918967671986 -15.575588174181265, -19.449163059221963 -15.704946511857043 C-19.135609669507307 -15.755639392263255, -18.822056279792648 -15.806332272669469, -18.436659586952107 -15.868640221171937 C-18.101175991830694 -15.901003920115246, -17.76569239670928 -15.933367619058554, -17.41574851969141 -15.967126284005381 C-17.13816448194486 -15.97602786381136, -16.860580444198305 -15.98492944361734, -16.390625000000004 -16 C-16.390625000000004 -16, -16.390625 -16, -16.390625 -16" stroke="none" stroke-width="0" fill="#ECECFF" style=""/><path d="M-16.390625 -16 C-6.231580526923095 -16, 3.927463946153811 -16, 16.390625 -16 M-16.390625 -16 C-8.844423834416753 -16, -1.2982226688335068 -16, 16.390625 -16 M16.390625 -16 C16.390625 -16, 16.390625 -16, 16.390625 -16 M16.390625 -16 C16.390625 -16, 16.390625 -16, 16.390625 -16 M16.390625 -16 C16.689486313829573 -15.990416099363744, 16.988347627659145 -15.980832198727487, 17.415748519691405 -15.967126284005381 M16.390625 -16 C16.748387388541243 -15.988527256541728, 17.106149777082486 -15.977054513083454, 17.415748519691405 -15.967126284005381 M17.415748519691405 -15.967126284005381 C17.791501526636242 -15.930877843334521, 18.16725453358108 -15.894629402663659, 18.436659586952093 -15.868640221171939 M17.415748519691405 -15.967126284005381 C17.647078382266237 -15.944810170377652, 17.87840824484107 -15.922494056749922, 18.436659586952093 -15.868640221171939 M18.436659586952093 -15.868640221171939 C18.74448761384751 -15.81887297302549, 19.052315640742933 -15.76910572487904, 19.449163059221956 -15.704946511857047 M18.436659586952093 -15.868640221171939 C18.648649019176514 -15.834367413772496, 18.86063845140093 -15.800094606373051, 19.449163059221956 -15.704946511857047 M19.449163059221956 -15.704946511857047 C19.735819080011773 -15.639519145717124, 20.02247510080159 -15.5740917795772, 20.449098342552116 -15.476717808624471 M19.449163059221956 -15.704946511857047 C19.737490567100846 -15.639137639696516, 20.025818074979735 -15.573328767535985, 20.449098342552116 -15.476717808624471 M20.449098342552116 -15.476717808624471 C20.735710926166874 -15.391652698267762, 21.022323509781632 -15.306587587911054, 21.43235648837793 -15.184891952170698 M20.449098342552116 -15.476717808624471 C20.83671506427924 -15.361675200257553, 21.224331786006367 -15.246632591890632, 21.43235648837793 -15.184891952170698 M21.43235648837793 -15.184891952170698 C21.692879462385807 -15.089017089487827, 21.953402436393688 -14.993142226804956, 22.394897078069985 -14.830668117536348 M21.43235648837793 -15.184891952170698 C21.76114364825656 -15.063895238060173, 22.08993080813519 -14.94289852394965, 22.394897078069985 -14.830668117536348 M22.394897078069985 -14.830668117536348 C22.714691982954495 -14.689104399522778, 23.034486887839005 -14.547540681509208, 23.33276482588093 -14.415501886438706 M22.394897078069985 -14.830668117536348 C22.7450887441567 -14.675648655026446, 23.09528041024341 -14.520629192516544, 23.33276482588093 -14.415501886438706 M23.33276482588093 -14.415501886438706 C23.62185236947971 -14.264685100112631, 23.91093991307849 -14.113868313786556, 24.242105832063 -13.941099265974232 M23.33276482588093 -14.415501886438706 C23.63708598928238 -14.256737730419179, 23.94140715268383 -14.09797357439965, 24.242105832063 -13.941099265974232 M24.242105832063 -13.941099265974232 C24.425696998352645 -13.829805222068, 24.60928816464229 -13.71851117816177, 25.119183419368778 -13.409409678269451 M24.242105832063 -13.941099265974232 C24.58846903872687 -13.73113185463846, 24.93483224539074 -13.521164443302688, 25.119183419368778 -13.409409678269451 M25.119183419368778 -13.409409678269451 C25.315400113703237 -13.27253740638553, 25.5116168080377 -13.135665134501606, 25.960393487859456 -12.822617949887306 M25.119183419368778 -13.409409678269451 C25.329497828217427 -13.262703451020657, 25.539812237066073 -13.115997223771863, 25.960393487859456 -12.822617949887306 M25.960393487859456 -12.822617949887306 C26.266889419008976 -12.57819560099483, 26.5733853501585 -12.333773252102354, 26.762279324924613 -12.183135333906153 M25.960393487859456 -12.822617949887306 C26.173448069944552 -12.652712590294978, 26.38650265202965 -12.482807230702653, 26.762279324924613 -12.183135333906153 M26.762279324924613 -12.183135333906153 C27.04236447688975 -11.928769409538443, 27.32244962885489 -11.674403485170734, 27.521545809655784 -11.493589601563642 M26.762279324924613 -12.183135333906153 C26.991939610209748 -11.97456393928836, 27.221599895494883 -11.765992544670569, 27.521545809655784 -11.493589601563642 M27.521545809655784 -11.493589601563642 C27.709231342817436 -11.29978887930539, 27.896916875979088 -11.10598815704714, 28.235072953205048 -10.756814244181072 M27.521545809655784 -11.493589601563642 C27.720489469731305 -11.28816393895741, 27.91943312980683 -11.082738276351177, 28.235072953205048 -10.756814244181072 M28.235072953205048 -10.756814244181072 C28.38334866106098 -10.582641160606704, 28.531624368916912 -10.408468077032335, 28.89992871948848 -9.975836829739738 M28.235072953205048 -10.756814244181072 C28.446252280609045 -10.508750989768199, 28.657431608013038 -10.260687735355326, 28.89992871948848 -9.975836829739738 M28.89992871948848 -9.975836829739738 C29.136132244209588 -9.659345625197233, 29.372335768930693 -9.342854420654728, 29.51338107355129 -9.153866561954718 M28.89992871948848 -9.975836829739738 C29.03406989672245 -9.796099872758859, 29.168211073956424 -9.61636291577798, 29.51338107355129 -9.153866561954718 M29.51338107355129 -9.153866561954718 C29.731207474454113 -8.819226715589329, 29.949033875356935 -8.484586869223937, 30.072909208085537 -8.294281092968403 M29.51338107355129 -9.153866561954718 C29.731227881316364 -8.819195365168898, 29.94907468908144 -8.48452416838308, 30.072909208085537 -8.294281092968403 M30.072909208085537 -8.294281092968403 C30.208298783900787 -8.053883191427252, 30.343688359716033 -7.813485289886102, 30.576213901968003 -7.400612643853364 M30.072909208085537 -8.294281092968403 C30.249633361046527 -7.980489464125187, 30.426357514007513 -7.666697835281972, 30.576213901968003 -7.400612643853364 M30.576213901968003 -7.400612643853364 C30.684128048406684 -7.176526609780604, 30.79204219484536 -6.952440575707844, 31.021226968252996 -6.476533489958305 M30.576213901968003 -7.400612643853364 C30.721652525141685 -7.098606230945188, 30.86709114831537 -6.796599818037011, 31.021226968252996 -6.476533489958305 M31.021226968252996 -6.476533489958305 C31.144744900613137 -6.171441808971993, 31.26826283297328 -5.8663501279856805, 31.406119752796165 -5.52584087074093 M31.021226968252996 -6.476533489958305 C31.117093515209284 -6.239741265522678, 31.212960062165575 -6.00294904108705, 31.406119752796165 -5.52584087074093 M31.406119752796165 -5.52584087074093 C31.521115670412257 -5.179491488992536, 31.636111588028353 -4.833142107244142, 31.72931064858657 -4.552441386096524 M31.406119752796165 -5.52584087074093 C31.492983062433204 -5.264222421903076, 31.579846372070243 -5.002603973065224, 31.72931064858657 -4.552441386096524 M31.72931064858657 -4.552441386096524 C31.80371561505457 -4.268703001637583, 31.87812058152257 -3.984964617178642, 31.989471594909176 -3.560334943301032 M31.72931064858657 -4.552441386096524 C31.828464577291655 -4.174324482359493, 31.92761850599674 -3.796207578622463, 31.989471594909176 -3.560334943301032 M31.989471594909176 -3.560334943301032 C32.06546669779391 -3.1701161515586276, 32.14146180067864 -2.779897359816223, 32.185533534631205 -2.5535983205340735 M31.989471594909176 -3.560334943301032 C32.03329976031773 -3.335286577014127, 32.077127925726295 -3.1102382107272217, 32.185533534631205 -2.5535983205340735 M32.185533534631205 -2.5535983205340735 C32.220521704987874 -2.282236980443468, 32.25550987534454 -2.010875640352862, 32.31669080718717 -1.536368414522911 M32.185533534631205 -2.5535983205340735 C32.211901743000354 -2.3490917034146457, 32.2382699513695 -2.144585086295218, 32.31669080718717 -1.536368414522911 M32.31669080718717 -1.536368414522911 C32.341949213849624 -1.14294834253632, 32.367207620512076 -0.749528270549729, 32.382404459211 -0.5128252411464826 M32.31669080718717 -1.536368414522911 C32.33729081014568 -1.2155067404209774, 32.35789081310419 -0.8946450663190438, 32.382404459211 -0.5128252411464826 M32.382404459211 -0.5128252411464826 C32.382404459211 -0.15839439277780953, 32.382404459211 0.19603645559086358, 32.382404459211 0.5128252411464788 M32.382404459211 -0.5128252411464826 C32.382404459211 -0.25364388173065, 32.382404459211 0.005537477685182646, 32.382404459211 0.5128252411464788 M32.382404459211 0.5128252411464788 C32.35902179413452 0.8770291238602719, 32.33563912905804 1.241233006574065, 32.31669080718717 1.5363684145229002 M32.382404459211 0.5128252411464788 C32.356137650041 0.9219519961560552, 32.329870840870996 1.3310787511656317, 32.31669080718717 1.5363684145229002 M32.31669080718717 1.5363684145229002 C32.27030391267971 1.8961360081944167, 32.22391701817224 2.2559036018659335, 32.185533534631205 2.5535983205340624 M32.31669080718717 1.5363684145229002 C32.27600168803697 1.8519451876764652, 32.23531256888677 2.1675219608300305, 32.185533534631205 2.5535983205340624 M32.185533534631205 2.5535983205340624 C32.13591155566679 2.8083966949073713, 32.08628957670237 3.0631950692806797, 31.989471594909176 3.5603349433010285 M32.185533534631205 2.5535983205340624 C32.126287345627084 2.857814979383728, 32.06704115662297 3.162031638233394, 31.989471594909176 3.5603349433010285 M31.989471594909176 3.5603349433010285 C31.90531998239872 3.8812415133429643, 31.821168369888266 4.2021480833849, 31.72931064858657 4.552441386096513 M31.989471594909176 3.5603349433010285 C31.88712563909399 3.9506244298421715, 31.784779683278803 4.340913916383315, 31.72931064858657 4.552441386096513 M31.72931064858657 4.552441386096513 C31.6497406220597 4.7920936282333875, 31.570170595532833 5.031745870370262, 31.406119752796165 5.525840870740919 M31.72931064858657 4.552441386096513 C31.640208278072482 4.820803529550128, 31.551105907558394 5.089165673003744, 31.406119752796165 5.525840870740919 M31.406119752796165 5.525840870740919 C31.282264231816523 5.831766402144231, 31.158408710836884 6.1376919335475435, 31.021226968253 6.4765334899583005 M31.406119752796165 5.525840870740919 C31.27278745015623 5.855174236066271, 31.13945514751629 6.184507601391623, 31.021226968253 6.4765334899583005 M31.021226968253 6.4765334899583005 C30.930725278150202 6.664462185882721, 30.8402235880474 6.852390881807142, 30.576213901968003 7.400612643853361 M31.021226968253 6.4765334899583005 C30.911147541960677 6.705115773976716, 30.801068115668354 6.933698057995131, 30.576213901968003 7.400612643853361 M30.576213901968003 7.400612643853361 C30.434620028068547 7.652026904896332, 30.293026154169088 7.903441165939304, 30.07290920808554 8.294281092968399 M30.576213901968003 7.400612643853361 C30.380030331090516 7.748956439687056, 30.18384676021303 8.097300235520752, 30.07290920808554 8.294281092968399 M30.07290920808554 8.294281092968399 C29.887827256812578 8.578616671586447, 29.702745305539615 8.862952250204495, 29.513381073551297 9.15386656195471 M30.07290920808554 8.294281092968399 C29.91624422272508 8.534960580921055, 29.759579237364616 8.77564006887371, 29.513381073551297 9.15386656195471 M29.513381073551297 9.15386656195471 C29.360631536158234 9.358537026292282, 29.20788199876517 9.563207490629855, 28.89992871948848 9.975836829739734 M29.513381073551297 9.15386656195471 C29.360560351457433 9.358632407306297, 29.20773962936357 9.563398252657885, 28.89992871948848 9.975836829739734 M28.89992871948848 9.975836829739734 C28.67516939846556 10.239851917380923, 28.45041007744264 10.503867005022114, 28.235072953205055 10.756814244181063 M28.89992871948848 9.975836829739734 C28.73550435346903 10.168979046077652, 28.57107998744958 10.362121262415569, 28.235072953205055 10.756814244181063 M28.235072953205055 10.756814244181063 C28.014525162619897 10.984547945270593, 27.793977372034743 11.212281646360124, 27.521545809655784 11.493589601563638 M28.235072953205055 10.756814244181063 C28.049272523726202 10.948668442116935, 27.863472094247346 11.140522640052806, 27.521545809655784 11.493589601563638 M27.521545809655784 11.493589601563638 C27.239305262077384 11.749912999198669, 26.957064714498987 12.0062363968337, 26.762279324924627 12.183135333906142 M27.521545809655784 11.493589601563638 C27.234418926468642 11.754350639913174, 26.9472920432815 12.01511167826271, 26.762279324924627 12.183135333906142 M26.762279324924627 12.183135333906142 C26.530202122433693 12.368210727058937, 26.298124919942754 12.553286120211732, 25.96039348785946 12.822617949887304 M26.762279324924627 12.183135333906142 C26.597359310594655 12.314654656628399, 26.432439296264686 12.446173979350654, 25.96039348785946 12.822617949887304 M25.96039348785946 12.822617949887304 C25.728822414997154 12.984151905765872, 25.49725134213485 13.145685861644438, 25.119183419368788 13.409409678269446 M25.96039348785946 12.822617949887304 C25.638538285149778 13.047130206410412, 25.316683082440097 13.271642462933519, 25.119183419368788 13.409409678269446 M25.119183419368788 13.409409678269446 C24.895920993342113 13.544752672962465, 24.672658567315437 13.680095667655486, 24.242105832063004 13.94109926597423 M25.119183419368788 13.409409678269446 C24.899877081171123 13.542354469271968, 24.680570742973455 13.675299260274489, 24.242105832063004 13.94109926597423 M24.242105832063004 13.94109926597423 C23.933158062767482 14.102277119325214, 23.62421029347196 14.263454972676197, 23.332764825880933 14.415501886438705 M24.242105832063004 13.94109926597423 C24.00354077843338 14.065558501644597, 23.764975724803755 14.190017737314962, 23.332764825880933 14.415501886438705 M23.332764825880933 14.415501886438705 C23.0641736342327 14.534399239506762, 22.795582442584468 14.653296592574819, 22.39489707806999 14.830668117536346 M23.332764825880933 14.415501886438705 C23.0803329996935 14.527245967767811, 22.827901173506067 14.638990049096916, 22.39489707806999 14.830668117536346 M22.39489707806999 14.830668117536346 C22.075061481353067 14.94837057365602, 21.755225884636147 15.066073029775694, 21.43235648837794 15.184891952170695 M22.39489707806999 14.830668117536346 C22.02838418124939 14.965548251574406, 21.661871284428788 15.100428385612467, 21.43235648837794 15.184891952170695 M21.43235648837794 15.184891952170695 C21.163481236300733 15.264692715632213, 20.89460598422352 15.34449347909373, 20.449098342552134 15.476717808624468 M21.43235648837794 15.184891952170695 C21.114964456480646 15.279092241213041, 20.797572424583347 15.373292530255386, 20.449098342552134 15.476717808624468 M20.449098342552134 15.476717808624468 C20.230453065615812 15.52662216629141, 20.01180778867949 15.576526523958353, 19.449163059221963 15.704946511857045 M20.449098342552134 15.476717808624468 C20.12555012559177 15.55056557779624, 19.8020019086314 15.624413346968012, 19.449163059221963 15.704946511857045 M19.449163059221963 15.704946511857045 C19.14204472276944 15.754599022756418, 18.834926386316923 15.80425153365579, 18.436659586952103 15.868640221171937 M19.449163059221963 15.704946511857045 C19.12979213546121 15.75657992605218, 18.810421211700454 15.808213340247313, 18.436659586952103 15.868640221171937 M18.436659586952103 15.868640221171937 C18.16535204901262 15.894812933061907, 17.894044511073137 15.920985644951875, 17.415748519691405 15.967126284005381 M18.436659586952103 15.868640221171937 C18.06470780210539 15.904521962518631, 17.692756017258677 15.940403703865323, 17.415748519691405 15.967126284005381 M17.415748519691405 15.967126284005381 C17.070940675242927 15.97818360044909, 16.726132830794448 15.989240916892799, 16.390625000000004 16 M17.415748519691405 15.967126284005381 C17.200782768598486 15.97401981723748, 16.985817017505568 15.980913350469578, 16.390625000000004 16 M16.390625000000004 16 C16.390625000000004 16, 16.390625 16, 16.390625 16 M16.390625000000004 16 C16.390625000000004 16, 16.390625 16, 16.390625 16 M16.390625 16 C8.232698206760157 16, 0.07477141352031325 16, -16.390624999999996 16 M16.390625 16 C8.482083406066726 16, 0.5735418121334526 16, -16.390624999999996 16 M-16.390624999999996 16 C-16.621228226368547 15.992605003372312, -16.8518314527371 15.985210006744623, -17.415748519691398 15.967126284005381 M-16.390624999999996 16 C-16.743298481201258 15.988690447895163, -17.095971962402523 15.977380895790326, -17.415748519691398 15.967126284005381 M-17.415748519691398 15.967126284005381 C-17.64062201958166 15.94543300792092, -17.865495519471924 15.923739731836458, -18.4366595869521 15.868640221171937 M-17.415748519691398 15.967126284005381 C-17.698123628572716 15.939885896857355, -17.980498737454038 15.912645509709328, -18.4366595869521 15.868640221171937 M-18.4366595869521 15.868640221171937 C-18.678153843009184 15.829597302668553, -18.919648099066272 15.790554384165171, -19.449163059221956 15.704946511857045 M-18.4366595869521 15.868640221171937 C-18.75437994878887 15.817273657028373, -19.07210031062564 15.76590709288481, -19.449163059221956 15.704946511857045 M-19.449163059221956 15.704946511857045 C-19.733594507075974 15.640026889973024, -20.018025954929993 15.575107268089, -20.449098342552112 15.476717808624471 M-19.449163059221956 15.704946511857045 C-19.840213718606147 15.615691750696637, -20.231264377990342 15.526436989536231, -20.449098342552112 15.476717808624471 M-20.449098342552112 15.476717808624471 C-20.660547558556683 15.4139607912339, -20.87199677456125 15.351203773843327, -21.432356488377923 15.184891952170702 M-20.449098342552112 15.476717808624471 C-20.69302273955344 15.404322327979765, -20.936947136554775 15.331926847335058, -21.432356488377923 15.184891952170702 M-21.432356488377923 15.184891952170702 C-21.68422060944172 15.092203627412811, -21.936084730505517 14.99951530265492, -22.394897078069988 14.830668117536348 M-21.432356488377923 15.184891952170702 C-21.813643840195457 15.044574682120206, -22.194931192012987 14.904257412069711, -22.394897078069988 14.830668117536348 M-22.394897078069988 14.830668117536348 C-22.717915695490863 14.687677357610964, -23.040934312911734 14.544686597685581, -23.33276482588093 14.415501886438708 M-22.394897078069988 14.830668117536348 C-22.686519350971956 14.701575587990014, -22.978141623873924 14.57248305844368, -23.33276482588093 14.415501886438708 M-23.33276482588093 14.415501886438708 C-23.51691145134469 14.319432709885806, -23.70105807680845 14.223363533332904, -24.242105832063 13.941099265974234 M-23.33276482588093 14.415501886438708 C-23.522628047865968 14.316450365142313, -23.712491269851004 14.217398843845915, -24.242105832063 13.941099265974234 M-24.242105832063 13.941099265974234 C-24.43274849183522 13.82553056527969, -24.62339115160744 13.709961864585145, -25.119183419368767 13.409409678269457 M-24.242105832063 13.941099265974234 C-24.46770538704742 13.804339489972536, -24.693304942031837 13.667579713970838, -25.119183419368767 13.409409678269457 M-25.119183419368767 13.409409678269457 C-25.346880364718817 13.250578146035162, -25.57457731006887 13.091746613800867, -25.960393487859456 12.822617949887308 M-25.119183419368767 13.409409678269457 C-25.338738997975945 13.256257211040904, -25.558294576583126 13.103104743812349, -25.960393487859456 12.822617949887308 M-25.960393487859456 12.822617949887308 C-26.244843959907893 12.59577626797364, -26.529294431956334 12.368934586059973, -26.762279324924613 12.183135333906154 M-25.960393487859456 12.822617949887308 C-26.188521042269212 12.640692295974706, -26.416648596678968 12.458766642062104, -26.762279324924613 12.183135333906154 M-26.762279324924613 12.183135333906154 C-27.01879597617492 11.950173698299295, -27.275312627425233 11.717212062692438, -27.521545809655777 11.493589601563649 M-26.762279324924613 12.183135333906154 C-27.018581365897195 11.950368601675251, -27.27488340686978 11.717601869444348, -27.521545809655777 11.493589601563649 M-27.521545809655777 11.493589601563649 C-27.717968770087044 11.2907667682934, -27.914391730518307 11.087943935023151, -28.235072953205048 10.756814244181069 M-27.521545809655777 11.493589601563649 C-27.696117054668694 11.313330458522048, -27.870688299681607 11.133071315480448, -28.235072953205048 10.756814244181069 M-28.235072953205048 10.756814244181069 C-28.458653322824247 10.494184019942924, -28.682233692443447 10.23155379570478, -28.899928719488475 9.97583682973974 M-28.235072953205048 10.756814244181069 C-28.474947808868208 10.475043589453168, -28.714822664531365 10.193272934725268, -28.899928719488475 9.97583682973974 M-28.899928719488475 9.97583682973974 C-29.119075642267873 9.682199917910722, -29.338222565047275 9.388563006081705, -29.51338107355129 9.15386656195472 M-28.899928719488475 9.97583682973974 C-29.132341372099958 9.664425048468578, -29.364754024711445 9.353013267197417, -29.51338107355129 9.15386656195472 M-29.51338107355129 9.15386656195472 C-29.63384383014669 8.96880341904478, -29.754306586742093 8.783740276134841, -30.072909208085534 8.29428109296841 M-29.51338107355129 9.15386656195472 C-29.63896946054971 8.960929074321268, -29.764557847548126 8.767991586687815, -30.072909208085534 8.29428109296841 M-30.072909208085534 8.29428109296841 C-30.198251208878066 8.071723678307388, -30.323593209670598 7.849166263646366, -30.576213901968 7.400612643853366 M-30.072909208085534 8.29428109296841 C-30.17720348419745 8.109096044791059, -30.281497760309364 7.9239109966137065, -30.576213901968 7.400612643853366 M-30.576213901968 7.400612643853366 C-30.69618827707804 7.151483286896969, -30.816162652188083 6.902353929940572, -31.021226968252996 6.476533489958307 M-30.576213901968 7.400612643853366 C-30.700895809395565 7.141707995314579, -30.825577716823126 6.88280334677579, -31.021226968252996 6.476533489958307 M-31.021226968252996 6.476533489958307 C-31.130614051840915 6.206345278640763, -31.24000113542883 5.93615706732322, -31.406119752796165 5.525840870740931 M-31.021226968252996 6.476533489958307 C-31.156376258783492 6.142712129414207, -31.291525549313988 5.808890768870107, -31.406119752796165 5.525840870740931 M-31.406119752796165 5.525840870740931 C-31.487486927769787 5.280775903819156, -31.56885410274341 5.03571093689738, -31.72931064858657 4.552441386096519 M-31.406119752796165 5.525840870740931 C-31.505201492498056 5.227422457290207, -31.604283232199943 4.929004043839483, -31.72931064858657 4.552441386096519 M-31.72931064858657 4.552441386096519 C-31.790011234424565 4.320963744495931, -31.850711820262557 4.089486102895343, -31.989471594909176 3.5603349433010343 M-31.72931064858657 4.552441386096519 C-31.827093654563313 4.179552404884328, -31.924876660540058 3.8066634236721364, -31.989471594909176 3.5603349433010343 M-31.989471594909176 3.5603349433010343 C-32.047880773708705 3.2604161549497883, -32.10628995250823 2.960497366598542, -32.185533534631205 2.5535983205340753 M-31.989471594909176 3.5603349433010343 C-32.03441143116719 3.3295783821538745, -32.07935126742521 3.098821821006714, -32.185533534631205 2.5535983205340753 M-32.185533534631205 2.5535983205340753 C-32.22566452845151 2.242350257224833, -32.26579552227182 1.9311021939155906, -32.31669080718717 1.5363684145229202 M-32.185533534631205 2.5535983205340753 C-32.23287540259962 2.186424141280281, -32.28021727056804 1.8192499620264861, -32.31669080718717 1.5363684145229202 M-32.31669080718717 1.5363684145229202 C-32.3401332868722 1.1712328709995565, -32.363575766557226 0.806097327476193, -32.382404459211 0.5128252411464846 M-32.31669080718717 1.5363684145229202 C-32.34214353157024 1.1399216871873745, -32.367596255953295 0.743474959851829, -32.382404459211 0.5128252411464846 M-32.382404459211 0.5128252411464846 C-32.382404459211 0.17381000079709003, -32.382404459211 -0.1652052395523046, -32.382404459211 -0.5128252411464769 M-32.382404459211 0.5128252411464846 C-32.382404459211 0.19836758892404183, -32.382404459211 -0.11609006329840099, -32.382404459211 -0.5128252411464769 M-32.382404459211 -0.5128252411464769 C-32.3562416253476 -0.920332496828361, -32.3300787914842 -1.3278397525102452, -32.31669080718717 -1.5363684145228982 M-32.382404459211 -0.5128252411464769 C-32.363882233044365 -0.8013238645637669, -32.345360006877726 -1.089822487981057, -32.31669080718717 -1.5363684145228982 M-32.31669080718717 -1.5363684145228982 C-32.28774508915849 -1.760865687574822, -32.258799371129804 -1.9853629606267462, -32.185533534631205 -2.5535983205340678 M-32.31669080718717 -1.5363684145228982 C-32.27642395705162 -1.84867015258531, -32.23615710691607 -2.1609718906477218, -32.185533534631205 -2.5535983205340678 M-32.185533534631205 -2.5535983205340678 C-32.11587477862865 -2.9112813102238873, -32.04621602262609 -3.268964299913707, -31.989471594909176 -3.5603349433010267 M-32.185533534631205 -2.5535983205340678 C-32.107814595516885 -2.952668646982493, -32.030095656402565 -3.351738973430918, -31.989471594909176 -3.5603349433010267 M-31.989471594909176 -3.5603349433010267 C-31.927341022180958 -3.7972657446742764, -31.865210449452743 -4.034196546047526, -31.729310648586573 -4.552441386096511 M-31.989471594909176 -3.5603349433010267 C-31.909921582230147 -3.863693618839749, -31.830371569551122 -4.167052294378471, -31.729310648586573 -4.552441386096511 M-31.729310648586573 -4.552441386096511 C-31.60443723728817 -4.928540205051121, -31.47956382598977 -5.304639024005731, -31.406119752796172 -5.525840870740911 M-31.729310648586573 -4.552441386096511 C-31.622472696215368 -4.874220276322543, -31.515634743844167 -5.195999166548574, -31.406119752796172 -5.525840870740911 M-31.406119752796172 -5.525840870740911 C-31.298665329372394 -5.791255374087592, -31.191210905948612 -6.056669877434272, -31.021226968253 -6.476533489958299 M-31.406119752796172 -5.525840870740911 C-31.263130009171018 -5.879028302013669, -31.12014026554586 -6.232215733286426, -31.021226968253 -6.476533489958299 M-31.021226968253 -6.476533489958299 C-30.866948744093712 -6.796895523450241, -30.712670519934427 -7.1172575569421825, -30.576213901968003 -7.400612643853359 M-31.021226968253 -6.476533489958299 C-30.905232376220898 -6.717398742199638, -30.789237784188796 -6.958263994440976, -30.576213901968003 -7.400612643853359 M-30.576213901968003 -7.400612643853359 C-30.43755490950997 -7.64681572570811, -30.298895917051937 -7.893018807562862, -30.072909208085537 -8.294281092968404 M-30.576213901968003 -7.400612643853359 C-30.40878942890456 -7.697891749343785, -30.241364955841114 -7.99517085483421, -30.072909208085537 -8.294281092968404 M-30.072909208085537 -8.294281092968404 C-29.872886655430005 -8.601569447423298, -29.672864102774476 -8.90885780187819, -29.513381073551294 -9.153866561954715 M-30.072909208085537 -8.294281092968404 C-29.91078192434735 -8.543352138061733, -29.748654640609168 -8.792423183155062, -29.513381073551294 -9.153866561954715 M-29.513381073551294 -9.153866561954715 C-29.343448850094738 -9.381560260242464, -29.173516626638182 -9.609253958530214, -28.89992871948848 -9.975836829739734 M-29.513381073551294 -9.153866561954715 C-29.364962193625093 -9.352734339817701, -29.216543313698896 -9.55160211768069, -28.89992871948848 -9.975836829739734 M-28.89992871948848 -9.975836829739734 C-28.73740976973378 -10.166740835711819, -28.57489081997908 -10.357644841683904, -28.235072953205055 -10.756814244181063 M-28.89992871948848 -9.975836829739734 C-28.696073616034813 -10.215296633940401, -28.49221851258115 -10.454756438141068, -28.235072953205055 -10.756814244181063 M-28.235072953205055 -10.756814244181063 C-28.088377362678514 -10.908289485331684, -27.941681772151973 -11.059764726482305, -27.52154580965579 -11.493589601563633 M-28.235072953205055 -10.756814244181063 C-28.019524394105567 -10.979385828317103, -27.803975835006078 -11.201957412453144, -27.52154580965579 -11.493589601563633 M-27.52154580965579 -11.493589601563633 C-27.317001110446974 -11.679351685428907, -27.112456411238156 -11.865113769294181, -26.762279324924627 -12.18313533390614 M-27.52154580965579 -11.493589601563633 C-27.248250516526955 -11.741789155786034, -26.974955223398116 -11.989988710008435, -26.762279324924627 -12.18313533390614 M-26.762279324924627 -12.18313533390614 C-26.544859998111416 -12.356521461268402, -26.327440671298206 -12.529907588630664, -25.960393487859463 -12.822617949887302 M-26.762279324924627 -12.18313533390614 C-26.599938439420008 -12.31259787002368, -26.437597553915385 -12.442060406141222, -25.960393487859463 -12.822617949887302 M-25.960393487859463 -12.822617949887302 C-25.731991165796174 -12.981941522381488, -25.50358884373288 -13.141265094875672, -25.119183419368788 -13.409409678269444 M-25.960393487859463 -12.822617949887302 C-25.759960423208852 -12.962431379180043, -25.559527358558242 -13.102244808472783, -25.119183419368788 -13.409409678269444 M-25.119183419368788 -13.409409678269444 C-24.82988914293978 -13.584781568722585, -24.54059486651077 -13.760153459175724, -24.242105832063007 -13.941099265974229 M-25.119183419368788 -13.409409678269444 C-24.86949525818369 -13.560772108910356, -24.619807096998596 -13.712134539551268, -24.242105832063007 -13.941099265974229 M-24.242105832063007 -13.941099265974229 C-24.010190955572682 -14.062089108490664, -23.778276079082357 -14.183078951007099, -23.332764825880936 -14.415501886438705 M-24.242105832063007 -13.941099265974229 C-23.96667373698478 -14.084792013553864, -23.691241641906554 -14.2284847611335, -23.332764825880936 -14.415501886438705 M-23.332764825880936 -14.415501886438705 C-23.10149334003398 -14.517878912798276, -22.870221854187022 -14.620255939157847, -22.394897078069995 -14.830668117536344 M-23.332764825880936 -14.415501886438705 C-23.023760353160288 -14.552289000220131, -22.714755880439636 -14.689076114001558, -22.394897078069995 -14.830668117536344 M-22.394897078069995 -14.830668117536344 C-22.060894040815022 -14.953584322736406, -21.72689100356005 -15.076500527936467, -21.43235648837794 -15.184891952170695 M-22.394897078069995 -14.830668117536344 C-22.055516889449855 -14.955563164144628, -21.71613670082972 -15.080458210752914, -21.43235648837794 -15.184891952170695 M-21.43235648837794 -15.184891952170695 C-21.185312273895132 -15.25821337826765, -20.938268059412323 -15.331534804364603, -20.449098342552134 -15.476717808624466 M-21.43235648837794 -15.184891952170695 C-21.20541497664006 -15.252247001614194, -20.978473464902176 -15.319602051057693, -20.449098342552134 -15.476717808624466 M-20.449098342552134 -15.476717808624466 C-20.180053974923702 -15.53812542985708, -19.911009607295274 -15.599533051089693, -19.449163059221963 -15.704946511857043 M-20.449098342552134 -15.476717808624466 C-20.20702582113237 -15.531969281967697, -19.9649532997126 -15.587220755310929, -19.449163059221963 -15.704946511857043 M-19.449163059221963 -15.704946511857043 C-19.054112003082164 -15.768815302947031, -18.65906094694237 -15.832684094037017, -18.436659586952107 -15.868640221171937 M-19.449163059221963 -15.704946511857043 C-19.09828205453318 -15.761674231572295, -18.74740104984439 -15.818401951287548, -18.436659586952107 -15.868640221171937 M-18.436659586952107 -15.868640221171937 C-18.225300460094036 -15.889029781943394, -18.013941333235966 -15.909419342714852, -17.41574851969141 -15.967126284005381 M-18.436659586952107 -15.868640221171937 C-18.09453562261777 -15.901644508547005, -17.752411658283428 -15.934648795922072, -17.41574851969141 -15.967126284005381 M-17.41574851969141 -15.967126284005381 C-17.139134785029878 -15.975996748080005, -16.862521050368347 -15.984867212154628, -16.390625000000004 -16 M-17.41574851969141 -15.967126284005381 C-17.035272667444396 -15.979327404035622, -16.654796815197386 -15.991528524065865, -16.390625000000004 -16 M-16.390625000000004 -16 C-16.390625000000004 -16, -16.390625 -16, -16.390625 -16 M-16.390625000000004 -16 C-16.390625000000004 -16, -16.390625 -16, -16.390625 -16" stroke="#9370DB" stroke-width="1.3" fill="none" stroke-dasharray="0 0" style=""/></g><g class="label" style="" transform="translate(0, -8.5)"><rect/><g><rect class="background" style="stroke: none"/><text y="-10.1" style=""><tspan class="text-outer-tspan row" x="0" y="-0.1em" dy="1.1em"><tspan font-style="normal" class="text-inner-tspan" font-weight="normal">HTTP</tspan></tspan></text></g></g></g><g class="node default" id="flowchart-DPC-8" transform="translate(534.4054336547852, 220.54999923706055)"><rect class="basic label-container" style="" x="-85.41015625" y="-32.29999923706055" width="170.8203125" height="64.5999984741211"/><g class="label" style="" transform="translate(0, -17.299999237060547)"><rect/><g><rect class="background" style="stroke: none"/><text y="-10.1" style=""><tspan class="text-outer-tspan row" x="0" y="-0.1em" dy="1.1em"><tspan font-style="normal" class="text-inner-tspan" font-weight="normal">DP</tspan><tspan font-style="normal" class="text-inner-tspan" font-weight="normal"> Coordinator</tspan></tspan><tspan class="text-outer-tspan row" x="0" y="1em" dy="1.1em"><tspan font-style="normal" class="text-inner-tspan" font-weight="normal">Load</tspan><tspan font-style="normal" class="text-inner-tspan" font-weight="normal"> Balancing</tspan></tspan></text></g></g></g><g class="node default" id="flowchart-EC0-11" transform="translate(1166.7921524047852, 364.5999946594238)"><rect class="basic label-container" style="" x="-81.19921875" y="-23.5" width="162.3984375" height="47"/><g class="label" style="" transform="translate(0, -8.5)"><rect/><g><rect class="background" style="stroke: none"/><text y="-10.1" style=""><tspan class="text-outer-tspan row" x="0" y="-0.1em" dy="1.1em"><tspan font-style="normal" class="text-inner-tspan" font-weight="normal">Engine</tspan><tspan font-style="normal" class="text-inner-tspan" font-weight="normal"> Core</tspan><tspan font-style="normal" class="text-inner-tspan" font-weight="normal"> 0</tspan></tspan></text></g></g></g><g class="node default" id="flowchart-EC1-12" transform="translate(1166.7921524047852, 554.1999855041504)"><rect class="basic label-container" style="" x="-81.19921875" y="-23.5" width="162.3984375" height="47"/><g class="label" style="" transform="translate(0, -8.5)"><rect/><g><rect class="background" style="stroke: none"/><text y="-10.1" style=""><tspan class="text-outer-tspan row" x="0" y="-0.1em" dy="1.1em"><tspan font-style="normal" class="text-inner-tspan" font-weight="normal">Engine</tspan><tspan font-style="normal" class="text-inner-tspan" font-weight="normal"> Core</tspan><tspan font-style="normal" class="text-inner-tspan" font-weight="normal"> 1</tspan></tspan></text></g></g></g><g class="node default" id="flowchart-EC2-13" transform="translate(1166.7921524047852, 743.799976348877)"><rect class="basic label-container" style="" x="-81.19921875" y="-23.5" width="162.3984375" height="47"/><g class="label" style="" transform="translate(0, -8.5)"><rect/><g><rect class="background" style="stroke: none"/><text y="-10.1" style=""><tspan class="text-outer-tspan row" x="0" y="-0.1em" dy="1.1em"><tspan font-style="normal" class="text-inner-tspan" font-weight="normal">Engine</tspan><tspan font-style="normal" class="text-inner-tspan" font-weight="normal"> Core</tspan><tspan font-style="normal" class="text-inner-tspan" font-weight="normal"> 2</tspan></tspan></text></g></g></g><g class="node default" id="flowchart-EC3-14" transform="translate(1166.7921524047852, 148.89999961853027)"><rect class="basic label-container" style="" x="-81.19921875" y="-23.5" width="162.3984375" height="47"/><g class="label" style="" transform="translate(0, -8.5)"><rect/><g><rect class="background" style="stroke: none"/><text y="-10.1" style=""><tspan class="text-outer-tspan row" x="0" y="-0.1em" dy="1.1em"><tspan font-style="normal" class="text-inner-tspan" font-weight="normal">Engine</tspan><tspan font-style="normal" class="text-inner-tspan" font-weight="normal"> Core</tspan><tspan font-style="normal" class="text-inner-tspan" font-weight="normal"> 3</tspan></tspan></text></g></g></g></g></g></g><style>/*
 * Red Hat Technical Diagram Styles for Mermaid SVG
 *
 * Based on:
 *   - CCS "Working with technical diagrams" guidelines
 *   - Red Hat Design System tokens (@rhds/tokens v3.0.2)
 *
 * Usage: mmdc -i input.mmd -o output.svg -C rh-diagrams.css -c mermaid-config.json -I rh-diagram-svg
 *
 * Note: All selectors use #rh-diagram-svg prefix to override mermaid's
 * built-in ID-scoped styles which have higher specificity than
 * class-only selectors. Pass -I rh-diagram-svg to mmdc to set the SVG ID.
 */

/* ============================================================
 * TYPOGRAPHY
 * Red Hat Display for labels/headings, Red Hat Text for body
 * ============================================================ */

/* Color tokens for use in .mmd style statements */
#rh-diagram-svg {
  --rh-blue-fill: #e0f0ff;    /* blue-10 */
  --rh-blue-stroke: #0066cc;  /* blue-50 */
  --rh-green-fill: #e9f7df;   /* green-10 */
  --rh-green-stroke: #63993d; /* green-50 */
  --rh-gray-fill: #f2f2f2;    /* gray-10 */
  --rh-gray-stroke: #c7c7c7;  /* gray-30 */
}

/* Base SVG font */
#rh-diagram-svg {
  font-family: "Red Hat Text", RedHatText, Helvetica, Arial, sans-serif;
  font-size: 14px;
  fill: #151515; /* --rh-color-text-primary-on-light */
}

/* Node labels */
#rh-diagram-svg .nodeLabel,
#rh-diagram-svg .node .label text,
#rh-diagram-svg .node text {
  font-family: "Red Hat Display", RedHatDisplay, Helvetica, Arial, sans-serif;
  font-size: 14px;
  font-weight: 500;
  fill: #151515; /* --rh-color-text-primary-on-light */
}

/* Edge labels */
#rh-diagram-svg .edgeLabel,
#rh-diagram-svg .edgeLabel text,
#rh-diagram-svg .edgeLabel tspan {
  font-family: "Red Hat Text", RedHatText, Helvetica, Arial, sans-serif;
  font-size: 12px;
  font-weight: 400;
  fill: #4d4d4d; /* --rh-color-text-secondary-on-light */
}

/* Edge label background */
#rh-diagram-svg .edgeLabel rect.background,
#rh-diagram-svg .edgeLabel .background {
  fill: #ffffff; /* --rh-color-surface-lightest */
  opacity: 0.9;
}

/* Cluster/subgraph labels */
#rh-diagram-svg .cluster-label text,
#rh-diagram-svg .cluster-label tspan {
  font-family: "Red Hat Display", RedHatDisplay, Helvetica, Arial, sans-serif;
  font-size: 14px;
  font-weight: 500;
  fill: #151515; /* --rh-color-text-primary-on-light */
}

/* Title text */
#rh-diagram-svg .flowchartTitleText {
  font-family: "Red Hat Display", RedHatDisplay, Helvetica, Arial, sans-serif;
  font-size: 20px;
  font-weight: 700;
  fill: #151515; /* --rh-color-text-primary-on-light */
}

/* Generic label styling */
#rh-diagram-svg .label {
  font-family: "Red Hat Text", RedHatText, Helvetica, Arial, sans-serif;
  color: #151515;
}

#rh-diagram-svg .label text,
#rh-diagram-svg span {
  fill: #151515; /* --rh-color-text-primary-on-light */
  color: #151515;
}

/* ============================================================
 * NODES — Primary style
 * Light blue fill, RH blue border
 * ============================================================ */

#rh-diagram-svg .node rect,
#rh-diagram-svg .node circle,
#rh-diagram-svg .node ellipse,
#rh-diagram-svg .node polygon,
#rh-diagram-svg .node path {
  fill: #e0f0ff; /* --rh-color-blue-10 */
  stroke: #0066cc; /* --rh-color-blue-50 */
  stroke-width: 1px; /* --rh-border-width-sm */
}

/* ============================================================
 * EDGES — Lines &amp; arrows
 * Gray-60 for connectors, 2px stroke
 * ============================================================ */

#rh-diagram-svg .edgePath .path,
#rh-diagram-svg .flowchart-link {
  stroke: #4d4d4d; /* --rh-color-gray-60 */
  stroke-width: 2px; /* --rh-border-width-md */
}

#rh-diagram-svg .edge-pattern-dotted {
  stroke-dasharray: 3;
}

#rh-diagram-svg .edge-pattern-dashed {
  stroke-dasharray: 6;
}

/* Arrow markers */
#rh-diagram-svg .marker {
  fill: #4d4d4d; /* --rh-color-gray-60 */
  stroke: #4d4d4d;
}

#rh-diagram-svg .marker.cross {
  stroke: #4d4d4d;
}

#rh-diagram-svg .arrowheadPath {
  fill: #4d4d4d;
}

#rh-diagram-svg .arrowMarkerPath {
  fill: #4d4d4d;
  stroke: #4d4d4d;
}

/* ============================================================
 * GROUPINGS — Cluster/subgraph containers
 * Subtle gray background, light border
 * ============================================================ */

#rh-diagram-svg .cluster rect {
  fill: #f2f2f2; /* --rh-color-gray-10 */
  stroke: #c7c7c7; /* --rh-color-gray-30 */
  stroke-width: 1px;
}


#rh-diagram-svg .cluster text {
  fill: #151515;
}

#rh-diagram-svg .cluster span {
  color: #151515;
}

/* ============================================================
 * STATUS / SEMANTIC NODE VARIANTS
 * Apply via classDef in .mmd files:
 *
 *   classDef success fill:#e9f7df,stroke:#3d7317,color:#204d00
 *   classDef danger fill:#ffe3d9,stroke:#b1380b,color:#731f00
 *   classDef warning fill:#fff4cc,stroke:#dca614,color:#73480b
 *   classDef info fill:#ece6ff,stroke:#5e40be,color:#21134d
 *   classDef neutral fill:#f2f2f2,stroke:#4d4d4d,color:#151515
 *   classDef brand fill:#fce3e3,stroke:#ee0000,color:#5f0000
 * ============================================================ */

/* Success */
#rh-diagram-svg .node.success rect,
#rh-diagram-svg .node.success polygon {
  fill: #e9f7df; /* --rh-color-green-10 */
  stroke: #3d7317; /* --rh-color-green-60 */
}
#rh-diagram-svg .node.success .nodeLabel { fill: #204d00; }

/* Danger */
#rh-diagram-svg .node.danger rect,
#rh-diagram-svg .node.danger polygon {
  fill: #ffe3d9; /* --rh-color-red-orange-10 */
  stroke: #b1380b; /* --rh-color-red-orange-60 */
}
#rh-diagram-svg .node.danger .nodeLabel { fill: #731f00; }

/* Warning */
#rh-diagram-svg .node.warning rect,
#rh-diagram-svg .node.warning polygon {
  fill: #fff4cc; /* --rh-color-yellow-10 */
  stroke: #dca614; /* --rh-color-yellow-40 */
}
#rh-diagram-svg .node.warning .nodeLabel { fill: #73480b; }

/* Info */
#rh-diagram-svg .node.info rect,
#rh-diagram-svg .node.info polygon {
  fill: #ece6ff; /* --rh-color-purple-10 */
  stroke: #5e40be; /* --rh-color-purple-50 */
}
#rh-diagram-svg .node.info .nodeLabel { fill: #21134d; }

/* Neutral */
#rh-diagram-svg .node.neutral rect,
#rh-diagram-svg .node.neutral polygon {
  fill: #f2f2f2; /* --rh-color-gray-10 */
  stroke: #4d4d4d; /* --rh-color-gray-60 */
}
#rh-diagram-svg .node.neutral .nodeLabel { fill: #151515; }

/* Brand (Red Hat red) */
#rh-diagram-svg .node.brand rect,
#rh-diagram-svg .node.brand polygon {
  fill: #fce3e3; /* --rh-color-red-10 */
  stroke: #ee0000; /* --rh-color-red-50 */
}
#rh-diagram-svg .node.brand .nodeLabel { fill: #5f0000; }

/* ============================================================
 * TOOLTIP
 * ============================================================ */

#rh-diagram-svg div.mermaidTooltip {
  font-family: "Red Hat Text", RedHatText, Helvetica, Arial, sans-serif;
  font-size: 12px;
  background: #ffffff;
  border: 1px solid #c7c7c7; /* --rh-color-gray-30 */
  border-radius: 3px; /* --rh-border-radius-default */
  color: #151515;
}
</style></svg>