<svg id="rh-diagram-svg" width="1200" height="3022" xmlns="http://www.w3.org/2000/svg" xmlns:xlink="http://www.w3.org/1999/xlink" class="flowchart" style="background-color: white;" viewBox="0 0 307.3046875 773.7999877929688" role="graphics-document document" aria-roledescription="flowchart-v2"><style>#rh-diagram-svg{font-family:"trebuchet ms",verdana,arial,sans-serif;font-size:16px;fill:#333;}@keyframes edge-animation-frame{from{stroke-dashoffset:0;}}@keyframes dash{to{stroke-dashoffset:0;}}#rh-diagram-svg .edge-animation-slow{stroke-dasharray:9,5!important;stroke-dashoffset:900;animation:dash 50s linear infinite;stroke-linecap:round;}#rh-diagram-svg .edge-animation-fast{stroke-dasharray:9,5!important;stroke-dashoffset:900;animation:dash 20s linear infinite;stroke-linecap:round;}#rh-diagram-svg .error-icon{fill:#552222;}#rh-diagram-svg .error-text{fill:#552222;stroke:#552222;}#rh-diagram-svg .edge-thickness-normal{stroke-width:1px;}#rh-diagram-svg .edge-thickness-thick{stroke-width:3.5px;}#rh-diagram-svg .edge-pattern-solid{stroke-dasharray:0;}#rh-diagram-svg .edge-thickness-invisible{stroke-width:0;fill:none;}#rh-diagram-svg .edge-pattern-dashed{stroke-dasharray:3;}#rh-diagram-svg .edge-pattern-dotted{stroke-dasharray:2;}#rh-diagram-svg .marker{fill:#333333;stroke:#333333;}#rh-diagram-svg .marker.cross{stroke:#333333;}#rh-diagram-svg svg{font-family:"trebuchet ms",verdana,arial,sans-serif;font-size:16px;}#rh-diagram-svg p{margin:0;}#rh-diagram-svg .label{font-family:"trebuchet ms",verdana,arial,sans-serif;color:#333;}#rh-diagram-svg .cluster-label text{fill:#333;}#rh-diagram-svg .cluster-label span{color:#333;}#rh-diagram-svg .cluster-label span p{background-color:transparent;}#rh-diagram-svg .label text,#rh-diagram-svg span{fill:#333;color:#333;}#rh-diagram-svg .node rect,#rh-diagram-svg .node circle,#rh-diagram-svg .node ellipse,#rh-diagram-svg .node polygon,#rh-diagram-svg .node path{fill:#ECECFF;stroke:#9370DB;stroke-width:1px;}#rh-diagram-svg .rough-node .label text,#rh-diagram-svg .node .label text,#rh-diagram-svg .image-shape .label,#rh-diagram-svg .icon-shape .label{text-anchor:middle;}#rh-diagram-svg .node .katex path{fill:#000;stroke:#000;stroke-width:1px;}#rh-diagram-svg .rough-node .label,#rh-diagram-svg .node .label,#rh-diagram-svg .image-shape .label,#rh-diagram-svg .icon-shape .label{text-align:center;}#rh-diagram-svg .node.clickable{cursor:pointer;}#rh-diagram-svg .root .anchor path{fill:#333333!important;stroke-width:0;stroke:#333333;}#rh-diagram-svg .arrowheadPath{fill:#333333;}#rh-diagram-svg .edgePath .path{stroke:#333333;stroke-width:2.0px;}#rh-diagram-svg .flowchart-link{stroke:#333333;fill:none;}#rh-diagram-svg .edgeLabel{background-color:rgba(232,232,232, 0.8);text-align:center;}#rh-diagram-svg .edgeLabel p{background-color:rgba(232,232,232, 0.8);}#rh-diagram-svg .edgeLabel rect{opacity:0.5;background-color:rgba(232,232,232, 0.8);fill:rgba(232,232,232, 0.8);}#rh-diagram-svg .labelBkg{background-color:rgba(232, 232, 232, 0.5);}#rh-diagram-svg .cluster rect{fill:#ffffde;stroke:#aaaa33;stroke-width:1px;}#rh-diagram-svg .cluster text{fill:#333;}#rh-diagram-svg .cluster span{color:#333;}#rh-diagram-svg div.mermaidTooltip{position:absolute;text-align:center;max-width:200px;padding:2px;font-family:"trebuchet ms",verdana,arial,sans-serif;font-size:12px;background:hsl(80, 100%, 96.2745098039%);border:1px solid #aaaa33;border-radius:2px;pointer-events:none;z-index:100;}#rh-diagram-svg .flowchartTitleText{text-anchor:middle;font-size:18px;fill:#333;}#rh-diagram-svg rect.text{fill:none;stroke-width:0;}#rh-diagram-svg .icon-shape,#rh-diagram-svg .image-shape{background-color:rgba(232,232,232, 0.8);text-align:center;}#rh-diagram-svg .icon-shape p,#rh-diagram-svg .image-shape p{background-color:rgba(232,232,232, 0.8);padding:2px;}#rh-diagram-svg .icon-shape .label rect,#rh-diagram-svg .image-shape .label rect{opacity:0.5;background-color:rgba(232,232,232, 0.8);fill:rgba(232,232,232, 0.8);}#rh-diagram-svg .label-icon{display:inline-block;height:1em;overflow:visible;vertical-align:-0.125em;}#rh-diagram-svg .node .label-icon path{fill:currentColor;stroke:revert;stroke-width:revert;}#rh-diagram-svg :root{--mermaid-font-family:"trebuchet ms",verdana,arial,sans-serif;}</style><g><marker id="rh-diagram-svg_flowchart-v2-pointEnd" class="marker flowchart-v2" viewBox="0 0 10 10" refX="5" refY="5" markerUnits="userSpaceOnUse" markerWidth="8" markerHeight="8" orient="auto"><path d="M 0 0 L 10 5 L 0 10 z" class="arrowMarkerPath" style="stroke-width: 1; stroke-dasharray: 1, 0;"/></marker><marker id="rh-diagram-svg_flowchart-v2-pointStart" class="marker flowchart-v2" viewBox="0 0 10 10" refX="4.5" refY="5" markerUnits="userSpaceOnUse" markerWidth="8" markerHeight="8" orient="auto"><path d="M 0 5 L 10 10 L 10 0 z" class="arrowMarkerPath" style="stroke-width: 1; stroke-dasharray: 1, 0;"/></marker><marker id="rh-diagram-svg_flowchart-v2-circleEnd" class="marker flowchart-v2" viewBox="0 0 10 10" refX="11" refY="5" markerUnits="userSpaceOnUse" markerWidth="11" markerHeight="11" orient="auto"><circle cx="5" cy="5" r="5" class="arrowMarkerPath" style="stroke-width: 1; stroke-dasharray: 1, 0;"/></marker><marker id="rh-diagram-svg_flowchart-v2-circleStart" class="marker flowchart-v2" viewBox="0 0 10 10" refX="-1" refY="5" markerUnits="userSpaceOnUse" markerWidth="11" markerHeight="11" orient="auto"><circle cx="5" cy="5" r="5" class="arrowMarkerPath" style="stroke-width: 1; stroke-dasharray: 1, 0;"/></marker><marker id="rh-diagram-svg_flowchart-v2-crossEnd" class="marker cross flowchart-v2" viewBox="0 0 11 11" refX="12" refY="5.2" markerUnits="userSpaceOnUse" markerWidth="11" markerHeight="11" orient="auto"><path d="M 1,1 l 9,9 M 10,1 l -9,9" class="arrowMarkerPath" style="stroke-width: 2; stroke-dasharray: 1, 0;"/></marker><marker id="rh-diagram-svg_flowchart-v2-crossStart" class="marker cross flowchart-v2" viewBox="0 0 11 11" refX="-1" refY="5.2" markerUnits="userSpaceOnUse" markerWidth="11" markerHeight="11" orient="auto"><path d="M 1,1 l 9,9 M 10,1 l -9,9" class="arrowMarkerPath" style="stroke-width: 2; stroke-dasharray: 1, 0;"/></marker><g class="root"><g class="clusters"/><g class="edgePaths"><path d="M154.152,40.5L153.652,65L153.652,86" id="L_HTTP_API_0" class="edge-thickness-normal edge-pattern-solid edge-thickness-normal edge-pattern-solid flowchart-link" style=";" data-edge="true" data-et="edge" data-id="L_HTTP_API_0" data-points="W3sieCI6MTU0LjE1MjM0Mzc1LCJ5Ijo0MC41fSx7IngiOjE1My42NTIzNDM3NSwieSI6NjV9LHsieCI6MTUzLjY1MjM0Mzc1LCJ5Ijo5MH1d" marker-end="url(#rh-diagram-svg_flowchart-v2-pointEnd)"/><path d="M153.652,176.2L153.652,207.7L153.652,239.2" id="L_API_EC_0" class="edge-thickness-normal edge-pattern-dotted edge-thickness-normal edge-pattern-solid flowchart-link" style=";" data-edge="true" data-et="edge" data-id="L_API_EC_0" data-points="W3sieCI6MTUzLjY1MjM0Mzc1LCJ5IjoxNzIuMTk5OTk2OTQ4MjQyMn0seyJ4IjoxNTMuNjUyMzQzNzUsInkiOjIwNy42OTk5OTY5NDgyNDIyfSx7IngiOjE1My42NTIzNDM3NSwieSI6MjQzLjE5OTk5Njk0ODI0MjJ9XQ==" marker-start="url(#rh-diagram-svg_flowchart-v2-pointStart)" marker-end="url(#rh-diagram-svg_flowchart-v2-pointEnd)"/><path d="M153.652,307.8L153.652,332.8L153.652,353.8" id="L_EC_TP_0" class="edge-thickness-normal edge-pattern-dotted edge-thickness-normal edge-pattern-solid flowchart-link" style=";" data-edge="true" data-et="edge" data-id="L_EC_TP_0" data-points="W3sieCI6MTUzLjY1MjM0Mzc1LCJ5IjozMDcuNzk5OTk1NDIyMzYzM30seyJ4IjoxNTMuNjUyMzQzNzUsInkiOjMzMi43OTk5OTU0MjIzNjMzfSx7IngiOjE1My42NTIzNDM3NSwieSI6MzU3Ljc5OTk5NTQyMjM2MzN9XQ==" marker-end="url(#rh-diagram-svg_flowchart-v2-pointEnd)"/></g><g class="edgeLabels"><g class="edgeLabel"><g class="label" data-id="L_HTTP_API_0" transform="translate(0, 0)"><text y="-10.1" text-anchor="middle"><tspan class="text-outer-tspan row" x="0" y="-0.1em" dy="1.1em" text-anchor="middle"/></text></g></g><g><rect class="background" style="stroke: none"/></g><g class="edgeLabel" transform="translate(153.65234375, 207.6999969482422)"><g class="label" data-id="L_API_EC_0" transform="translate(0, -10.5)"><g><rect class="background" style="" x="-19.7734375" y="0" width="39.546875" height="21"/><text y="-10.1" text-anchor="middle" style=""><tspan class="text-outer-tspan row" x="0" y="-0.1em" dy="1.1em" text-anchor="middle"><tspan font-style="normal" class="text-inner-tspan" font-weight="normal">ZMQ</tspan></tspan></text></g></g></g><g class="edgeLabel"><g class="label" data-id="L_EC_TP_0" transform="translate(0, 0)"><text y="-10.1" text-anchor="middle"><tspan class="text-outer-tspan row" x="0" y="-0.1em" dy="1.1em" text-anchor="middle"/></text></g></g><g><rect class="background" style="stroke: none"/></g></g><g class="nodes"><g class="root" transform="translate(0, 349.7999954223633)"><g class="clusters"><g class="cluster" id="TP" data-look="classic"><rect style="" x="8" y="8" width="291.3046875" height="408"/><g class="cluster-label" transform="translate(16, 8)"><g><rect class="background" style="stroke: none"/><text y="-10.1" style="text-anchor:start;"><tspan class="text-outer-tspan row" x="0" y="-0.1em" dy="1.1em"><tspan font-style="normal" class="text-inner-tspan" font-weight="normal">TP</tspan><tspan font-style="normal" class="text-inner-tspan" font-weight="normal"> Group</tspan><tspan font-style="normal" class="text-inner-tspan" font-weight="normal"> (TP=4)</tspan></tspan></text></g></g></g></g><g class="edgePaths"/><g class="edgeLabels"/><g class="nodes"><g class="node default" id="flowchart-GW0-6" transform="translate(153.65234375, 66.5)"><rect class="basic label-container" style="" x="-108.15234375" y="-23.5" width="216.3046875" height="47"/><g class="label" style="" transform="translate(0, -8.5)"><rect/><g><rect class="background" style="stroke: none"/><text y="-10.1" style=""><tspan class="text-outer-tspan row" x="0" y="-0.1em" dy="1.1em"><tspan font-style="normal" class="text-inner-tspan" font-weight="normal">GPU</tspan><tspan font-style="normal" class="text-inner-tspan" font-weight="normal"> Worker</tspan><tspan font-style="normal" class="text-inner-tspan" font-weight="normal"> 0</tspan><tspan font-style="normal" class="text-inner-tspan" font-weight="normal"> GPU</tspan><tspan font-style="normal" class="text-inner-tspan" font-weight="normal"> 0</tspan></tspan></text></g></g></g><g class="node default" id="flowchart-GW1-7" transform="translate(153.65234375, 163.5)"><rect class="basic label-container" style="" x="-108.15234375" y="-23.5" width="216.3046875" height="47"/><g class="label" style="" transform="translate(0, -8.5)"><rect/><g><rect class="background" style="stroke: none"/><text y="-10.1" style=""><tspan class="text-outer-tspan row" x="0" y="-0.1em" dy="1.1em"><tspan font-style="normal" class="text-inner-tspan" font-weight="normal">GPU</tspan><tspan font-style="normal" class="text-inner-tspan" font-weight="normal"> Worker</tspan><tspan font-style="normal" class="text-inner-tspan" font-weight="normal"> 1</tspan><tspan font-style="normal" class="text-inner-tspan" font-weight="normal"> GPU</tspan><tspan font-style="normal" class="text-inner-tspan" font-weight="normal"> 1</tspan></tspan></text></g></g></g><g class="node default" id="flowchart-GW2-8" transform="translate(153.65234375, 260.5)"><rect class="basic label-container" style="" x="-108.15234375" y="-23.5" width="216.3046875" height="47"/><g class="label" style="" transform="translate(0, -8.5)"><rect/><g><rect class="background" style="stroke: none"/><text y="-10.1" style=""><tspan class="text-outer-tspan row" x="0" y="-0.1em" dy="1.1em"><tspan font-style="normal" class="text-inner-tspan" font-weight="normal">GPU</tspan><tspan font-style="normal" class="text-inner-tspan" font-weight="normal"> Worker</tspan><tspan font-style="normal" class="text-inner-tspan" font-weight="normal"> 2</tspan><tspan font-style="normal" class="text-inner-tspan" font-weight="normal"> GPU</tspan><tspan font-style="normal" class="text-inner-tspan" font-weight="normal"> 2</tspan></tspan></text></g></g></g><g class="node default" id="flowchart-GW3-9" transform="translate(153.65234375, 357.5)"><rect class="basic label-container" style="" x="-108.15234375" y="-23.5" width="216.3046875" height="47"/><g class="label" style="" transform="translate(0, -8.5)"><rect/><g><rect class="background" style="stroke: none"/><text y="-10.1" style=""><tspan class="text-outer-tspan row" x="0" y="-0.1em" dy="1.1em"><tspan font-style="normal" class="text-inner-tspan" font-weight="normal">GPU</tspan><tspan font-style="normal" class="text-inner-tspan" font-weight="normal"> Worker</tspan><tspan font-style="normal" class="text-inner-tspan" font-weight="normal"> 3</tspan><tspan font-style="normal" class="text-inner-tspan" font-weight="normal"> GPU</tspan><tspan font-style="normal" class="text-inner-tspan" font-weight="normal"> 3</tspan></tspan></text></g></g></g></g></g><g class="node default" id="flowchart-HTTP-0" transform="translate(153.65234375, 24)"><g class="basic label-container outer-path"><path d="M-16.390625 -16 C-8.066521178126381 -16, 0.25758264374723794 -16, 16.390625 -16 C16.390625 -16, 16.390625 -16, 16.390625 -16 C16.764826637307944 -15.988000081830835, 17.139028274615892 -15.976000163661672, 17.415748519691405 -15.967126284005381 C17.69137410364293 -15.940537015409841, 17.96699968759445 -15.913947746814301, 18.436659586952093 -15.868640221171939 C18.78925254880918 -15.811635725498142, 19.141845510666272 -15.754631229824346, 19.449163059221956 -15.704946511857047 C19.668388469109942 -15.654909742629608, 19.887613878997932 -15.604872973402168, 20.449098342552116 -15.476717808624471 C20.814548183450444 -15.368254214131207, 21.179998024348773 -15.259790619637943, 21.43235648837793 -15.184891952170698 C21.782899500537656 -15.055888883311837, 22.13344251269738 -14.926885814452975, 22.394897078069985 -14.830668117536348 C22.59471909864132 -14.742212836539053, 22.794541119212656 -14.653757555541759, 23.33276482588093 -14.415501886438706 C23.68875122612567 -14.229784009451196, 24.044737626370413 -14.044066132463685, 24.242105832063 -13.941099265974232 C24.56056431597781 -13.748047861555294, 24.87902279989262 -13.554996457136355, 25.119183419368778 -13.409409678269451 C25.454085899271075 -13.175796205984302, 25.78898837917337 -12.942182733699154, 25.960393487859456 -12.822617949887306 C26.18465791037451 -12.64377304085847, 26.408922332889567 -12.464928131829634, 26.762279324924613 -12.183135333906153 C26.99487828409132 -11.971895113422168, 27.22747724325803 -11.760654892938181, 27.521545809655784 -11.493589601563642 C27.69146016565773 -11.318139078763565, 27.861374521659677 -11.142688555963488, 28.235072953205048 -10.756814244181072 C28.430836952154724 -10.52685871172768, 28.6266009511044 -10.296903179274286, 28.89992871948848 -9.975836829739738 C29.114291736906974 -9.688609915271584, 29.32865475432547 -9.401383000803431, 29.51338107355129 -9.153866561954718 C29.700085926382453 -8.867037770733189, 29.886790779213612 -8.58020897951166, 30.072909208085537 -8.294281092968403 C30.182839811300553 -8.099088175279487, 30.292770414515573 -7.9038952575905705, 30.576213901968003 -7.400612643853364 C30.728966398565596 -7.083418816288619, 30.881718895163186 -6.766224988723874, 31.021226968252996 -6.476533489958305 C31.12158426132998 -6.2286490357818955, 31.22194155440696 -5.980764581605485, 31.406119752796165 -5.52584087074093 C31.47856022679367 -5.307661704882559, 31.551000700791178 -5.089482539024187, 31.72931064858657 -4.552441386096524 C31.815623784294264 -4.223291991293438, 31.901936920001955 -3.894142596490352, 31.989471594909176 -3.560334943301032 C32.03162142416824 -3.3439044784252925, 32.07377125342731 -3.127474013549553, 32.185533534631205 -2.5535983205340735 C32.219583647205084 -2.289512371366339, 32.25363375977896 -2.025426422198604, 32.31669080718717 -1.536368414522911 C32.34145666212893 -1.1506202331667996, 32.366222517070675 -0.764872051810688, 32.382404459211 -0.5128252411464826 C32.382404459211 -0.2694760943083829, 32.382404459211 -0.0261269474702831, 32.382404459211 0.5128252411464788 C32.36515070680022 0.7815663619226922, 32.34789695438944 1.0503074826989056, 32.31669080718717 1.5363684145229002 C32.275845054394416 1.853160007277296, 32.23499930160167 2.169951600031692, 32.185533534631205 2.5535983205340624 C32.132750304484865 2.8246290515958723, 32.079967074338526 3.095659782657682, 31.989471594909176 3.5603349433010285 C31.92608934483889 3.80203893285998, 31.862707094768602 4.043742922418931, 31.72931064858657 4.552441386096513 C31.66250863542225 4.753638406292058, 31.59570662225793 4.9548354264876036, 31.406119752796165 5.525840870740919 C31.282195861463144 5.831935278238933, 31.158271970130123 6.138029685736946, 31.021226968253 6.4765334899583005 C30.905621887076368 6.71658991457406, 30.790016805899736 6.9566463391898195, 30.576213901968003 7.400612643853361 C30.412511135707636 7.691283482051242, 30.24880836944727 7.981954320249122, 30.07290920808554 8.294281092968399 C29.889332147400257 8.576304755524065, 29.705755086714976 8.858328418079731, 29.513381073551297 9.15386656195471 C29.28552992108867 9.459166348587614, 29.057678768626044 9.764466135220518, 28.89992871948848 9.975836829739734 C28.68502080137741 10.228279898959958, 28.470112883266342 10.480722968180181, 28.235072953205055 10.756814244181063 C28.065035085457417 10.932392302999066, 27.894997217709783 11.10797036181707, 27.521545809655784 11.493589601563638 C27.239946626485537 11.749330529012756, 26.958347443315294 12.005071456461875, 26.762279324924627 12.183135333906142 C26.511496566591102 12.383127910067655, 26.260713808257577 12.583120486229168, 25.96039348785946 12.822617949887304 C25.700342418143084 13.004018318692077, 25.44029134842671 13.18541868749685, 25.119183419368788 13.409409678269446 C24.771269747947205 13.620316990452887, 24.42335607652562 13.831224302636326, 24.242105832063004 13.94109926597423 C24.029116403840785 14.052215714251522, 23.816126975618566 14.163332162528814, 23.332764825880933 14.415501886438705 C22.998900287392452 14.563293813887901, 22.66503574890397 14.711085741337097, 22.39489707806999 14.830668117536346 C22.103981585850473 14.93772770786646, 21.813066093630955 15.044787298196574, 21.43235648837794 15.184891952170695 C21.155772146046207 15.266980733153915, 20.87918780371447 15.349069514137136, 20.449098342552134 15.476717808624468 C20.13567970674667 15.548253566999328, 19.82226107094121 15.619789325374187, 19.449163059221963 15.704946511857045 C19.065424333943223 15.76698641302185, 18.681685608664484 15.829026314186658, 18.436659586952103 15.868640221171937 C18.22417592780342 15.889138264221023, 18.011692268654738 15.909636307270107, 17.415748519691405 15.967126284005381 C17.17325450788217 15.974902594978143, 16.930760496072935 15.982678905950905, 16.390625000000004 16 C16.390625000000004 16, 16.390625 16, 16.390625 16 C5.712913735576317 16, -4.964797528847367 16, -16.390624999999996 16 C-16.662327227129694 15.991287038412253, -16.934029454259388 15.982574076824507, -17.415748519691398 15.967126284005381 C-17.74645068162453 15.935223844171231, -18.077152843557663 15.903321404337081, -18.4366595869521 15.868640221171937 C-18.694498907462897 15.826954759405545, -18.952338227973698 15.785269297639154, -19.449163059221956 15.704946511857045 C-19.80805820897806 15.623031035934938, -20.166953358734165 15.541115560012832, -20.449098342552112 15.476717808624471 C-20.743415513801086 15.389366017100134, -21.03773268505006 15.302014225575796, -21.432356488377923 15.184891952170702 C-21.729458415624727 15.075555696563768, -22.02656034287153 14.966219440956836, -22.394897078069988 14.830668117536348 C-22.74588849892671 14.675294627313646, -23.096879919783433 14.519921137090945, -23.33276482588093 14.415501886438708 C-23.656407562242137 14.246657678182132, -23.98005029860335 14.077813469925553, -24.242105832063 13.941099265974234 C-24.53441614378886 13.763899037199952, -24.826726455514716 13.586698808425671, -25.119183419368767 13.409409678269457 C-25.387104323821223 13.22251965343245, -25.655025228273683 13.03562962859544, -25.960393487859456 12.822617949887308 C-26.162638287882164 12.661333103829353, -26.364883087904875 12.500048257771398, -26.762279324924613 12.183135333906154 C-26.955102251817383 12.008018653517214, -27.147925178710157 11.832901973128275, -27.521545809655777 11.493589601563649 C-27.80692840552889 11.198908640977793, -28.092311001402003 10.904227680391937, -28.235072953205048 10.756814244181069 C-28.445242130220283 10.509937569894017, -28.65541130723552 10.263060895606968, -28.899928719488475 9.97583682973974 C-29.05821521361558 9.763747347805689, -29.21650170774268 9.551657865871636, -29.51338107355129 9.15386656195472 C-29.69578705757786 8.873641987624948, -29.878193041604433 8.593417413295176, -30.072909208085534 8.29428109296841 C-30.22117104960786 8.031027180206095, -30.369432891130188 7.767773267443782, -30.576213901968 7.400612643853366 C-30.726228794635528 7.089103509424742, -30.876243687303056 6.777594374996119, -31.021226968252996 6.476533489958307 C-31.100445776296887 6.280861502498437, -31.179664584340777 6.085189515038569, -31.406119752796165 5.525840870740931 C-31.483789456524757 5.29191209809714, -31.561459160253353 5.057983325453349, -31.72931064858657 4.552441386096519 C-31.827032301140918 4.17978637207466, -31.924753953695266 3.8071313580528, -31.989471594909176 3.5603349433010343 C-32.03673130059745 3.3176663429340802, -32.08399100628573 3.0749977425671258, -32.185533534631205 2.5535983205340753 C-32.2142477078172 2.3308968635583387, -32.2429618810032 2.1081954065826025, -32.31669080718717 1.5363684145229202 C-32.32995917914192 1.3297028112905513, -32.343227551096675 1.1230372080581825, -32.382404459211 0.5128252411464846 C-32.382404459211 0.30597458042358716, -32.382404459211 0.09912391970068973, -32.382404459211 -0.5128252411464769 C-32.36707731684219 -0.751557855387345, -32.35175017447338 -0.9902904696282132, -32.31669080718717 -1.5363684145228982 C-32.28077270791433 -1.8149420996521217, -32.24485460864149 -2.0935157847813453, -32.185533534631205 -2.5535983205340678 C-32.11775654552812 -2.9016188349066945, -32.04997955642503 -3.2496393492793207, -31.989471594909176 -3.5603349433010267 C-31.918233610999387 -3.8319962506865846, -31.846995627089598 -4.103657558072142, -31.729310648586573 -4.552441386096511 C-31.631635486089706 -4.84662341311335, -31.53396032359284 -5.140805440130189, -31.406119752796172 -5.525840870740911 C-31.318980018186853 -5.741077699958085, -31.231840283577533 -5.95631452917526, -31.021226968253 -6.476533489958299 C-30.922040496005202 -6.682496321831382, -30.8228540237574 -6.888459153704466, -30.576213901968003 -7.400612643853359 C-30.458882400657586 -7.6089466055328545, -30.34155089934717 -7.81728056721235, -30.072909208085537 -8.294281092968404 C-29.93136492211175 -8.511731126186822, -29.78982063613796 -8.72918115940524, -29.513381073551294 -9.153866561954715 C-29.370430768046297 -9.345406948290671, -29.227480462541298 -9.536947334626626, -28.89992871948848 -9.975836829739734 C-28.635421259118942 -10.28654234359066, -28.370913798749406 -10.59724785744159, -28.235072953205055 -10.756814244181063 C-28.01098766957402 -10.988200697274042, -27.786902385942987 -11.219587150367023, -27.52154580965579 -11.493589601563633 C-27.362582887168443 -11.63795552183819, -27.203619964681096 -11.78232144211275, -26.762279324924627 -12.18313533390614 C-26.54110391764164 -12.359516835489552, -26.319928510358647 -12.535898337072965, -25.960393487859463 -12.822617949887302 C-25.629777367938583 -13.053241443002946, -25.299161248017707 -13.28386493611859, -25.119183419368788 -13.409409678269444 C-24.93109132761475 -13.523432209642564, -24.742999235860715 -13.637454741015686, -24.242105832063007 -13.941099265974229 C-23.894489886126202 -14.12245028231082, -23.5468739401894 -14.303801298647413, -23.332764825880936 -14.415501886438705 C-22.992506886979005 -14.56612398259745, -22.652248948077073 -14.716746078756197, -22.394897078069995 -14.830668117536344 C-22.137596235311655 -14.925357206134331, -21.880295392553315 -15.02004629473232, -21.43235648837794 -15.184891952170695 C-21.10094148348194 -15.283254185990968, -20.769526478585938 -15.381616419811241, -20.449098342552134 -15.476717808624466 C-20.13701612049626 -15.547948539281897, -19.82493389844039 -15.619179269939327, -19.449163059221963 -15.704946511857043 C-19.198091836857717 -15.745537760002486, -18.947020614493475 -15.786129008147928, -18.436659586952107 -15.868640221171937 C-18.202459152516884 -15.89123325541467, -17.96825871808166 -15.913826289657406, -17.41574851969141 -15.967126284005381 C-17.129345318276425 -15.976310677224747, -16.842942116861437 -15.985495070444113, -16.390625000000004 -16 C-16.390625000000004 -16, -16.390625 -16, -16.390625 -16" stroke="none" stroke-width="0" fill="#ECECFF" style=""/><path d="M-16.390625 -16 C-8.391227931658117 -16, -0.3918308633162333 -16, 16.390625 -16 M-16.390625 -16 C-9.278031902952254 -16, -2.1654388059045058 -16, 16.390625 -16 M16.390625 -16 C16.390625 -16, 16.390625 -16, 16.390625 -16 M16.390625 -16 C16.390625 -16, 16.390625 -16, 16.390625 -16 M16.390625 -16 C16.759398411221017 -15.988174154476042, 17.128171822442035 -15.976348308952085, 17.415748519691405 -15.967126284005381 M16.390625 -16 C16.79641646457795 -15.986987057556155, 17.202207929155893 -15.973974115112311, 17.415748519691405 -15.967126284005381 M17.415748519691405 -15.967126284005381 C17.75042150126735 -15.934840783975899, 18.0850944828433 -15.902555283946416, 18.436659586952093 -15.868640221171939 M17.415748519691405 -15.967126284005381 C17.684470595973913 -15.941202988491987, 17.95319267225642 -15.915279692978595, 18.436659586952093 -15.868640221171939 M18.436659586952093 -15.868640221171939 C18.667120498434517 -15.831381088254522, 18.89758140991694 -15.794121955337106, 19.449163059221956 -15.704946511857047 M18.436659586952093 -15.868640221171939 C18.81550762790982 -15.80739100792033, 19.194355668867548 -15.746141794668723, 19.449163059221956 -15.704946511857047 M19.449163059221956 -15.704946511857047 C19.690344723455254 -15.64989837085324, 19.93152638768855 -15.594850229849433, 20.449098342552116 -15.476717808624471 M19.449163059221956 -15.704946511857047 C19.783407303519116 -15.628657444243753, 20.117651547816273 -15.55236837663046, 20.449098342552116 -15.476717808624471 M20.449098342552116 -15.476717808624471 C20.70631902213585 -15.400376061102918, 20.963539701719586 -15.324034313581365, 21.43235648837793 -15.184891952170698 M20.449098342552116 -15.476717808624471 C20.677728475990982 -15.408861585123876, 20.906358609429844 -15.341005361623282, 21.43235648837793 -15.184891952170698 M21.43235648837793 -15.184891952170698 C21.677559113741285 -15.094655119408761, 21.922761739104644 -15.004418286646825, 22.394897078069985 -14.830668117536348 M21.43235648837793 -15.184891952170698 C21.689083345026678 -15.090414095766912, 21.945810201675425 -14.995936239363123, 22.394897078069985 -14.830668117536348 M22.394897078069985 -14.830668117536348 C22.72930404315944 -14.682636073921413, 23.063711008248895 -14.534604030306479, 23.33276482588093 -14.415501886438706 M22.394897078069985 -14.830668117536348 C22.73518384959619 -14.680033258030125, 23.075470621122392 -14.529398398523904, 23.33276482588093 -14.415501886438706 M23.33276482588093 -14.415501886438706 C23.528235002750407 -14.313525220370522, 23.723705179619888 -14.21154855430234, 24.242105832063 -13.941099265974232 M23.33276482588093 -14.415501886438706 C23.67603641009472 -14.236417320830315, 24.019307994308516 -14.057332755221921, 24.242105832063 -13.941099265974232 M24.242105832063 -13.941099265974232 C24.455530700165617 -13.811719856706684, 24.668955568268235 -13.682340447439136, 25.119183419368778 -13.409409678269451 M24.242105832063 -13.941099265974232 C24.49800839387821 -13.785969629151474, 24.75391095569342 -13.630839992328717, 25.119183419368778 -13.409409678269451 M25.119183419368778 -13.409409678269451 C25.429678727431003 -13.192821592490496, 25.74017403549323 -12.97623350671154, 25.960393487859456 -12.822617949887306 M25.119183419368778 -13.409409678269451 C25.390470428415814 -13.220171604583584, 25.661757437462846 -13.030933530897716, 25.960393487859456 -12.822617949887306 M25.960393487859456 -12.822617949887306 C26.172080125217963 -12.653803489811898, 26.383766762576467 -12.48498902973649, 26.762279324924613 -12.183135333906153 M25.960393487859456 -12.822617949887306 C26.191326673948126 -12.638454879371764, 26.422259860036792 -12.454291808856224, 26.762279324924613 -12.183135333906153 M26.762279324924613 -12.183135333906153 C26.95996943641971 -12.00359840524003, 27.157659547914804 -11.824061476573908, 27.521545809655784 -11.493589601563642 M26.762279324924613 -12.183135333906153 C27.038913462060485 -11.931903529897536, 27.315547599196357 -11.680671725888919, 27.521545809655784 -11.493589601563642 M27.521545809655784 -11.493589601563642 C27.781122283212984 -11.225555580991012, 28.040698756770183 -10.957521560418382, 28.235072953205048 -10.756814244181072 M27.521545809655784 -11.493589601563642 C27.803436833307398 -11.202513975959898, 28.085327856959008 -10.911438350356152, 28.235072953205048 -10.756814244181072 M28.235072953205048 -10.756814244181072 C28.416855596886418 -10.543282007187484, 28.598638240567787 -10.329749770193898, 28.89992871948848 -9.975836829739738 M28.235072953205048 -10.756814244181072 C28.423979227239556 -10.534914185628637, 28.612885501274068 -10.313014127076201, 28.89992871948848 -9.975836829739738 M28.89992871948848 -9.975836829739738 C29.042598602592676 -9.784672183873845, 29.185268485696874 -9.593507538007954, 29.51338107355129 -9.153866561954718 M28.89992871948848 -9.975836829739738 C29.04242480450814 -9.784905057473791, 29.184920889527803 -9.593973285207847, 29.51338107355129 -9.153866561954718 M29.51338107355129 -9.153866561954718 C29.64547664272165 -8.950932295082085, 29.777572211892014 -8.747998028209452, 30.072909208085537 -8.294281092968403 M29.51338107355129 -9.153866561954718 C29.674718645222253 -8.906008726664028, 29.836056216893212 -8.658150891373339, 30.072909208085537 -8.294281092968403 M30.072909208085537 -8.294281092968403 C30.250018742912705 -7.979805179597643, 30.427128277739868 -7.665329266226883, 30.576213901968003 -7.400612643853364 M30.072909208085537 -8.294281092968403 C30.187769519007965 -8.090334980057944, 30.302629829930392 -7.886388867147485, 30.576213901968003 -7.400612643853364 M30.576213901968003 -7.400612643853364 C30.70102447364514 -7.141440821247363, 30.825835045322275 -6.882268998641362, 31.021226968252996 -6.476533489958305 M30.576213901968003 -7.400612643853364 C30.678402174470328 -7.188416509523522, 30.780590446972653 -6.97622037519368, 31.021226968252996 -6.476533489958305 M31.021226968252996 -6.476533489958305 C31.16693076025644 -6.116642306718619, 31.312634552259887 -5.756751123478934, 31.406119752796165 -5.52584087074093 M31.021226968252996 -6.476533489958305 C31.144626943542185 -6.1717331652177885, 31.268026918831378 -5.866932840477271, 31.406119752796165 -5.52584087074093 M31.406119752796165 -5.52584087074093 C31.533008138629388 -5.143673269530031, 31.659896524462614 -4.761505668319133, 31.72931064858657 -4.552441386096524 M31.406119752796165 -5.52584087074093 C31.49974462522046 -5.243857672096597, 31.59336949764475 -4.961874473452265, 31.72931064858657 -4.552441386096524 M31.72931064858657 -4.552441386096524 C31.787870791395637 -4.329126181439112, 31.8464309342047 -4.1058109767817, 31.989471594909176 -3.560334943301032 M31.72931064858657 -4.552441386096524 C31.805951912351592 -4.260175030826658, 31.882593176116615 -3.9679086755567927, 31.989471594909176 -3.560334943301032 M31.989471594909176 -3.560334943301032 C32.0583507752566 -3.2066549098369315, 32.12722995560403 -2.8529748763728304, 32.185533534631205 -2.5535983205340735 M31.989471594909176 -3.560334943301032 C32.05459746585116 -3.225927360371653, 32.11972333679314 -2.8915197774422734, 32.185533534631205 -2.5535983205340735 M32.185533534631205 -2.5535983205340735 C32.22963660907157 -2.211543584311709, 32.273739683511934 -1.8694888480893443, 32.31669080718717 -1.536368414522911 M32.185533534631205 -2.5535983205340735 C32.23044648947306 -2.205262311846714, 32.275359444314915 -1.8569263031593544, 32.31669080718717 -1.536368414522911 M32.31669080718717 -1.536368414522911 C32.33019874194062 -1.325971427329199, 32.343706676694076 -1.1155744401354868, 32.382404459211 -0.5128252411464826 M32.31669080718717 -1.536368414522911 C32.34194470433431 -1.1430185818772798, 32.367198601481455 -0.7496687492316485, 32.382404459211 -0.5128252411464826 M32.382404459211 -0.5128252411464826 C32.382404459211 -0.10315169125785967, 32.382404459211 0.3065218586307633, 32.382404459211 0.5128252411464788 M32.382404459211 -0.5128252411464826 C32.382404459211 -0.12127067348076426, 32.382404459211 0.27028389418495413, 32.382404459211 0.5128252411464788 M32.382404459211 0.5128252411464788 C32.36338206150756 0.8091144399807182, 32.34435966380411 1.1054036388149577, 32.31669080718717 1.5363684145229002 M32.382404459211 0.5128252411464788 C32.36280472318285 0.8181069504071659, 32.34320498715469 1.123388659667853, 32.31669080718717 1.5363684145229002 M32.31669080718717 1.5363684145229002 C32.286032490749186 1.7741482626465799, 32.2553741743112 2.0119281107702593, 32.185533534631205 2.5535983205340624 M32.31669080718717 1.5363684145229002 C32.28113001878038 1.8121708671340178, 32.2455692303736 2.0879733197451356, 32.185533534631205 2.5535983205340624 M32.185533534631205 2.5535983205340624 C32.13728235201002 2.801357945402781, 32.08903116938884 3.049117570271499, 31.989471594909176 3.5603349433010285 M32.185533534631205 2.5535983205340624 C32.117357806742554 2.903666274297098, 32.049182078853896 3.2537342280601327, 31.989471594909176 3.5603349433010285 M31.989471594909176 3.5603349433010285 C31.907768723028717 3.8719034040298825, 31.82606585114826 4.183471864758737, 31.72931064858657 4.552441386096513 M31.989471594909176 3.5603349433010285 C31.898923626025578 3.905633592392152, 31.808375657141976 4.250932241483276, 31.72931064858657 4.552441386096513 M31.72931064858657 4.552441386096513 C31.603634179131838 4.9309588882680435, 31.477957709677106 5.309476390439574, 31.406119752796165 5.525840870740919 M31.72931064858657 4.552441386096513 C31.61210902769515 4.905433994679089, 31.494907406803737 5.258426603261664, 31.406119752796165 5.525840870740919 M31.406119752796165 5.525840870740919 C31.31070033237151 5.761528683998807, 31.21528091194686 5.997216497256695, 31.021226968253 6.4765334899583005 M31.406119752796165 5.525840870740919 C31.294933056550864 5.800474160115347, 31.183746360305562 6.075107449489774, 31.021226968253 6.4765334899583005 M31.021226968253 6.4765334899583005 C30.861565322943086 6.808074312656279, 30.701903677633172 7.1396151353542585, 30.576213901968003 7.400612643853361 M31.021226968253 6.4765334899583005 C30.8927836273879 6.743248835511919, 30.764340286522796 7.009964181065537, 30.576213901968003 7.400612643853361 M30.576213901968003 7.400612643853361 C30.395907420698414 7.720765059358575, 30.215600939428825 8.04091747486379, 30.07290920808554 8.294281092968399 M30.576213901968003 7.400612643853361 C30.4260384354161 7.667264391631237, 30.275862968864196 7.933916139409113, 30.07290920808554 8.294281092968399 M30.07290920808554 8.294281092968399 C29.9216954134762 8.526586088077659, 29.770481618866857 8.758891083186917, 29.513381073551297 9.15386656195471 M30.07290920808554 8.294281092968399 C29.925919928528945 8.520096098515515, 29.77893064897235 8.74591110406263, 29.513381073551297 9.15386656195471 M29.513381073551297 9.15386656195471 C29.287854628823332 9.4560514520084, 29.062328184095367 9.758236342062087, 28.89992871948848 9.975836829739734 M29.513381073551297 9.15386656195471 C29.327582893318088 9.40281919690478, 29.141784713084878 9.651771831854848, 28.89992871948848 9.975836829739734 M28.89992871948848 9.975836829739734 C28.75963946219994 10.140628574035732, 28.6193502049114 10.305420318331732, 28.235072953205055 10.756814244181063 M28.89992871948848 9.975836829739734 C28.746402826368733 10.156177079668984, 28.592876933248984 10.336517329598234, 28.235072953205055 10.756814244181063 M28.235072953205055 10.756814244181063 C27.951138801773816 11.049999566961183, 27.667204650342573 11.343184889741304, 27.521545809655784 11.493589601563638 M28.235072953205055 10.756814244181063 C27.970437570816937 11.030072003465753, 27.705802188428823 11.303329762750442, 27.521545809655784 11.493589601563638 M27.521545809655784 11.493589601563638 C27.24127355314464 11.748125449329516, 26.961001296633494 12.002661297095393, 26.762279324924627 12.183135333906142 M27.521545809655784 11.493589601563638 C27.36612175226487 11.634741618190853, 27.21069769487396 11.77589363481807, 26.762279324924627 12.183135333906142 M26.762279324924627 12.183135333906142 C26.510052967889745 12.384279141616213, 26.25782661085486 12.585422949326285, 25.96039348785946 12.822617949887304 M26.762279324924627 12.183135333906142 C26.571638689401464 12.335166167575494, 26.3809980538783 12.487197001244846, 25.96039348785946 12.822617949887304 M25.96039348785946 12.822617949887304 C25.778582841032375 12.949441186657827, 25.59677219420529 13.076264423428348, 25.119183419368788 13.409409678269446 M25.96039348785946 12.822617949887304 C25.634964932545984 13.049622822498877, 25.30953637723251 13.276627695110449, 25.119183419368788 13.409409678269446 M25.119183419368788 13.409409678269446 C24.778579264794192 13.615885918384754, 24.437975110219593 13.822362158500063, 24.242105832063004 13.94109926597423 M25.119183419368788 13.409409678269446 C24.793478306049995 13.606854032019, 24.467773192731205 13.804298385768554, 24.242105832063004 13.94109926597423 M24.242105832063004 13.94109926597423 C23.917375694966758 14.110510770497763, 23.59264555787051 14.279922275021294, 23.332764825880933 14.415501886438705 M24.242105832063004 13.94109926597423 C23.99712305848988 14.068906622028374, 23.752140284916756 14.196713978082517, 23.332764825880933 14.415501886438705 M23.332764825880933 14.415501886438705 C23.1313038684934 14.504682676147196, 22.92984291110587 14.593863465855687, 22.39489707806999 14.830668117536346 M23.332764825880933 14.415501886438705 C23.104747849337343 14.516438238071265, 22.87673087279375 14.617374589703823, 22.39489707806999 14.830668117536346 M22.39489707806999 14.830668117536346 C22.037598707472114 14.962157220746297, 21.680300336874236 15.093646323956246, 21.43235648837794 15.184891952170695 M22.39489707806999 14.830668117536346 C22.0582469350254 14.954558482136564, 21.72159679198081 15.07844884673678, 21.43235648837794 15.184891952170695 M21.43235648837794 15.184891952170695 C21.0405701624641 15.301172077173533, 20.64878383655026 15.41745220217637, 20.449098342552134 15.476717808624468 M21.43235648837794 15.184891952170695 C21.189185190936175 15.257063916819224, 20.94601389349441 15.329235881467753, 20.449098342552134 15.476717808624468 M20.449098342552134 15.476717808624468 C20.204333333750807 15.532583824642419, 19.959568324949476 15.588449840660369, 19.449163059221963 15.704946511857045 M20.449098342552134 15.476717808624468 C20.132837013892196 15.548902393093057, 19.816575685232255 15.621086977561648, 19.449163059221963 15.704946511857045 M19.449163059221963 15.704946511857045 C19.143494828242854 15.754364580949213, 18.837826597263746 15.80378265004138, 18.436659586952103 15.868640221171937 M19.449163059221963 15.704946511857045 C19.13422186232318 15.75586376216618, 18.819280665424394 15.806781012475318, 18.436659586952103 15.868640221171937 M18.436659586952103 15.868640221171937 C18.03499232936042 15.907388578436253, 17.633325071768738 15.946136935700569, 17.415748519691405 15.967126284005381 M18.436659586952103 15.868640221171937 C18.076193688447063 15.903413932877049, 17.715727789942022 15.938187644582161, 17.415748519691405 15.967126284005381 M17.415748519691405 15.967126284005381 C17.06267972605324 15.97844851301064, 16.709610932415075 15.9897707420159, 16.390625000000004 16 M17.415748519691405 15.967126284005381 C17.074903163304057 15.978056531169484, 16.734057806916706 15.988986778333587, 16.390625000000004 16 M16.390625000000004 16 C16.390625000000004 16, 16.390625 16, 16.390625 16 M16.390625000000004 16 C16.390625000000004 16, 16.390625 16, 16.390625 16 M16.390625 16 C9.00885380994729 16, 1.6270826198945798 16, -16.390624999999996 16 M16.390625 16 C9.009541089124795 16, 1.628457178249592 16, -16.390624999999996 16 M-16.390624999999996 16 C-16.670331078288914 15.991030370484127, -16.95003715657783 15.982060740968256, -17.415748519691398 15.967126284005381 M-16.390624999999996 16 C-16.61300282947983 15.992868775840769, -16.83538065895966 15.985737551681536, -17.415748519691398 15.967126284005381 M-17.415748519691398 15.967126284005381 C-17.796137855588672 15.93043058225648, -18.176527191485945 15.89373488050758, -18.4366595869521 15.868640221171937 M-17.415748519691398 15.967126284005381 C-17.81716019151131 15.928402582793082, -18.218571863331217 15.889678881580782, -18.4366595869521 15.868640221171937 M-18.4366595869521 15.868640221171937 C-18.78885873727079 15.811699393893615, -19.14105788758948 15.754758566615292, -19.449163059221956 15.704946511857045 M-18.4366595869521 15.868640221171937 C-18.693948911591743 15.827043678472712, -18.951238236231386 15.785447135773486, -19.449163059221956 15.704946511857045 M-19.449163059221956 15.704946511857045 C-19.73038480841343 15.640759482747509, -20.011606557604903 15.57657245363797, -20.449098342552112 15.476717808624471 M-19.449163059221956 15.704946511857045 C-19.66456152157663 15.65578321843092, -19.879959983931304 15.606619925004791, -20.449098342552112 15.476717808624471 M-20.449098342552112 15.476717808624471 C-20.82391282022004 15.365474839093972, -21.19872729788797 15.254231869563473, -21.432356488377923 15.184891952170702 M-20.449098342552112 15.476717808624471 C-20.668065153062358 15.411729608645274, -20.887031963572603 15.346741408666077, -21.432356488377923 15.184891952170702 M-21.432356488377923 15.184891952170702 C-21.69403268408199 15.088592693243369, -21.95570887978605 14.992293434316037, -22.394897078069988 14.830668117536348 M-21.432356488377923 15.184891952170702 C-21.73236722849329 15.074485226539368, -22.03237796860865 14.964078500908032, -22.394897078069988 14.830668117536348 M-22.394897078069988 14.830668117536348 C-22.61367094406005 14.733823416758703, -22.832444810050113 14.636978715981058, -23.33276482588093 14.415501886438708 M-22.394897078069988 14.830668117536348 C-22.67683178859125 14.705863984484626, -22.95876649911251 14.581059851432903, -23.33276482588093 14.415501886438708 M-23.33276482588093 14.415501886438708 C-23.68001307010081 14.234342699852311, -24.027261314320693 14.053183513265914, -24.242105832063 13.941099265974234 M-23.33276482588093 14.415501886438708 C-23.549208461775063 14.302583380231503, -23.765652097669197 14.189664874024299, -24.242105832063 13.941099265974234 M-24.242105832063 13.941099265974234 C-24.49026507460933 13.790663674797067, -24.738424317155655 13.640228083619899, -25.119183419368767 13.409409678269457 M-24.242105832063 13.941099265974234 C-24.494821748628755 13.7879013922285, -24.74753766519451 13.634703518482768, -25.119183419368767 13.409409678269457 M-25.119183419368767 13.409409678269457 C-25.4134035159064 13.204174475507507, -25.70762361244403 12.998939272745556, -25.960393487859456 12.822617949887308 M-25.119183419368767 13.409409678269457 C-25.380186495258354 13.227345231169934, -25.64118957114794 13.045280784070414, -25.960393487859456 12.822617949887308 M-25.960393487859456 12.822617949887308 C-26.168897535970007 12.656341520044887, -26.37740158408056 12.490065090202465, -26.762279324924613 12.183135333906154 M-25.960393487859456 12.822617949887308 C-26.126964796112617 12.689781764204083, -26.293536104365778 12.556945578520859, -26.762279324924613 12.183135333906154 M-26.762279324924613 12.183135333906154 C-27.03710456121304 11.933546325786292, -27.31192979750147 11.68395731766643, -27.521545809655777 11.493589601563649 M-26.762279324924613 12.183135333906154 C-27.0569228815751 11.915547851597491, -27.35156643822559 11.647960369288828, -27.521545809655777 11.493589601563649 M-27.521545809655777 11.493589601563649 C-27.754363668381234 11.253186047727928, -27.98718152710669 11.012782493892209, -28.235072953205048 10.756814244181069 M-27.521545809655777 11.493589601563649 C-27.669750484705585 11.34055610674461, -27.817955159755392 11.187522611925571, -28.235072953205048 10.756814244181069 M-28.235072953205048 10.756814244181069 C-28.384192493865324 10.58164994657927, -28.5333120345256 10.406485648977473, -28.899928719488475 9.97583682973974 M-28.235072953205048 10.756814244181069 C-28.39616767425946 10.567583218281253, -28.557262395313867 10.37835219238144, -28.899928719488475 9.97583682973974 M-28.899928719488475 9.97583682973974 C-29.084026296973814 9.729162847543718, -29.268123874459157 9.482488865347694, -29.51338107355129 9.15386656195472 M-28.899928719488475 9.97583682973974 C-29.116628331125405 9.685479091887002, -29.33332794276233 9.395121354034265, -29.51338107355129 9.15386656195472 M-29.51338107355129 9.15386656195472 C-29.67045342340925 8.912561252741225, -29.827525773267208 8.671255943527731, -30.072909208085534 8.29428109296841 M-29.51338107355129 9.15386656195472 C-29.66805509847891 8.916245723874644, -29.82272912340653 8.67862488579457, -30.072909208085534 8.29428109296841 M-30.072909208085534 8.29428109296841 C-30.261412618527995 7.959574199687677, -30.449916028970456 7.624867306406945, -30.576213901968 7.400612643853366 M-30.072909208085534 8.29428109296841 C-30.230907647402358 8.013738864884527, -30.38890608671918 7.733196636800645, -30.576213901968 7.400612643853366 M-30.576213901968 7.400612643853366 C-30.666389911996042 7.213360229572612, -30.756565922024087 7.026107815291859, -31.021226968252996 6.476533489958307 M-30.576213901968 7.400612643853366 C-30.749157357447213 7.041491858153623, -30.922100812926427 6.682371072453882, -31.021226968252996 6.476533489958307 M-31.021226968252996 6.476533489958307 C-31.132298409843795 6.202184881808801, -31.243369851434593 5.927836273659294, -31.406119752796165 5.525840870740931 M-31.021226968252996 6.476533489958307 C-31.13185334140807 6.20328420944985, -31.242479714563146 5.930034928941395, -31.406119752796165 5.525840870740931 M-31.406119752796165 5.525840870740931 C-31.512781383027292 5.2045930347076945, -31.619443013258415 4.883345198674458, -31.72931064858657 4.552441386096519 M-31.406119752796165 5.525840870740931 C-31.528715967597382 5.156600604813857, -31.651312182398595 4.787360338886782, -31.72931064858657 4.552441386096519 M-31.72931064858657 4.552441386096519 C-31.811999646040277 4.237112401167329, -31.89468864349399 3.92178341623814, -31.989471594909176 3.5603349433010343 M-31.72931064858657 4.552441386096519 C-31.829987855048532 4.168515564079761, -31.930665061510496 3.7845897420630026, -31.989471594909176 3.5603349433010343 M-31.989471594909176 3.5603349433010343 C-32.02893401092533 3.3577037774426346, -32.0683964269415 3.1550726115842354, -32.185533534631205 2.5535983205340753 M-31.989471594909176 3.5603349433010343 C-32.04881624231719 3.2556127213565915, -32.10816088972519 2.9508904994121488, -32.185533534631205 2.5535983205340753 M-32.185533534631205 2.5535983205340753 C-32.22762963521858 2.2271092771936973, -32.269725735805956 1.9006202338533198, -32.31669080718717 1.5363684145229202 M-32.185533534631205 2.5535983205340753 C-32.215297821606875 2.322752388374022, -32.24506210858255 2.091906456213969, -32.31669080718717 1.5363684145229202 M-32.31669080718717 1.5363684145229202 C-32.3360152507354 1.2353746078491605, -32.35533969428363 0.934380801175401, -32.382404459211 0.5128252411464846 M-32.31669080718717 1.5363684145229202 C-32.3326981979856 1.2870403819041156, -32.34870558878403 1.037712349285311, -32.382404459211 0.5128252411464846 M-32.382404459211 0.5128252411464846 C-32.382404459211 0.1991104015956831, -32.382404459211 -0.11460443795511843, -32.382404459211 -0.5128252411464769 M-32.382404459211 0.5128252411464846 C-32.382404459211 0.30439578968866676, -32.382404459211 0.09596633823084894, -32.382404459211 -0.5128252411464769 M-32.382404459211 -0.5128252411464769 C-32.36070701851018 -0.850780393920629, -32.33900957780937 -1.188735546694781, -32.31669080718717 -1.5363684145228982 M-32.382404459211 -0.5128252411464769 C-32.36125126702995 -0.842303283915837, -32.34009807484889 -1.171781326685197, -32.31669080718717 -1.5363684145228982 M-32.31669080718717 -1.5363684145228982 C-32.28317955259387 -1.7962750876028155, -32.24966829800057 -2.056181760682733, -32.185533534631205 -2.5535983205340678 M-32.31669080718717 -1.5363684145228982 C-32.28162884271142 -1.8083020872288154, -32.24656687823567 -2.0802357599347325, -32.185533534631205 -2.5535983205340678 M-32.185533534631205 -2.5535983205340678 C-32.13417821276998 -2.817297044340331, -32.08282289090876 -3.080995768146594, -31.989471594909176 -3.5603349433010267 M-32.185533534631205 -2.5535983205340678 C-32.13142595781827 -2.831429291828041, -32.07731838100535 -3.1092602631220143, -31.989471594909176 -3.5603349433010267 M-31.989471594909176 -3.5603349433010267 C-31.907500758280488 -3.872925269751545, -31.8255299216518 -4.185515596202064, -31.729310648586573 -4.552441386096511 M-31.989471594909176 -3.5603349433010267 C-31.912105693437226 -3.8553646562073745, -31.834739791965276 -4.150394369113722, -31.729310648586573 -4.552441386096511 M-31.729310648586573 -4.552441386096511 C-31.655279428175515 -4.77541162670148, -31.581248207764453 -4.998381867306449, -31.406119752796172 -5.525840870740911 M-31.729310648586573 -4.552441386096511 C-31.612335005416224 -4.904753385787898, -31.49535936224587 -5.257065385479285, -31.406119752796172 -5.525840870740911 M-31.406119752796172 -5.525840870740911 C-31.323151064461037 -5.730775135019159, -31.2401823761259 -5.935709399297408, -31.021226968253 -6.476533489958299 M-31.406119752796172 -5.525840870740911 C-31.272072653576785 -5.8569397974371515, -31.138025554357398 -6.188038724133392, -31.021226968253 -6.476533489958299 M-31.021226968253 -6.476533489958299 C-30.854394840241728 -6.822963973409398, -30.68756271223046 -7.1693944568604975, -30.576213901968003 -7.400612643853359 M-31.021226968253 -6.476533489958299 C-30.918900633092758 -6.689016314351376, -30.816574297932515 -6.9014991387444535, -30.576213901968003 -7.400612643853359 M-30.576213901968003 -7.400612643853359 C-30.458986000241868 -7.608762653980365, -30.341758098515736 -7.816912664107373, -30.072909208085537 -8.294281092968404 M-30.576213901968003 -7.400612643853359 C-30.433314138879673 -7.6543456433867965, -30.29041437579134 -7.908078642920234, -30.072909208085537 -8.294281092968404 M-30.072909208085537 -8.294281092968404 C-29.943266825003704 -8.493446607236358, -29.81362444192187 -8.69261212150431, -29.513381073551294 -9.153866561954715 M-30.072909208085537 -8.294281092968404 C-29.92404240188452 -8.522980483627844, -29.775175595683507 -8.751679874287282, -29.513381073551294 -9.153866561954715 M-29.513381073551294 -9.153866561954715 C-29.270381924429156 -9.479463284100481, -29.027382775307014 -9.805060006246247, -28.89992871948848 -9.975836829739734 M-29.513381073551294 -9.153866561954715 C-29.38812236571692 -9.32170181914974, -29.262863657882548 -9.489537076344764, -28.89992871948848 -9.975836829739734 M-28.89992871948848 -9.975836829739734 C-28.664472084197108 -10.252417591415073, -28.429015448905737 -10.528998353090412, -28.235072953205055 -10.756814244181063 M-28.89992871948848 -9.975836829739734 C-28.69758568678429 -10.213520469598803, -28.4952426540801 -10.451204109457874, -28.235072953205055 -10.756814244181063 M-28.235072953205055 -10.756814244181063 C-27.979470583364375 -11.020744676386405, -27.72386821352369 -11.284675108591747, -27.52154580965579 -11.493589601563633 M-28.235072953205055 -10.756814244181063 C-27.965202408815266 -11.035477738047277, -27.695331864425473 -11.314141231913489, -27.52154580965579 -11.493589601563633 M-27.52154580965579 -11.493589601563633 C-27.242124291080376 -11.747352831645573, -26.962702772504958 -12.001116061727513, -26.762279324924627 -12.18313533390614 M-27.52154580965579 -11.493589601563633 C-27.27689416890383 -11.715775748566866, -27.03224252815187 -11.9379618955701, -26.762279324924627 -12.18313533390614 M-26.762279324924627 -12.18313533390614 C-26.561835039757078 -12.342984317280816, -26.36139075458953 -12.502833300655494, -25.960393487859463 -12.822617949887302 M-26.762279324924627 -12.18313533390614 C-26.49944055525718 -12.392742258282519, -26.236601785589738 -12.6023491826589, -25.960393487859463 -12.822617949887302 M-25.960393487859463 -12.822617949887302 C-25.72978115523592 -12.983483130078504, -25.49916882261238 -13.144348310269706, -25.119183419368788 -13.409409678269444 M-25.960393487859463 -12.822617949887302 C-25.734363650381535 -12.98028657983794, -25.508333812903608 -13.137955209788581, -25.119183419368788 -13.409409678269444 M-25.119183419368788 -13.409409678269444 C-24.895685937385164 -13.54489516526491, -24.67218845540154 -13.680380652260375, -24.242105832063007 -13.941099265974229 M-25.119183419368788 -13.409409678269444 C-24.795971648817698 -13.60534255298071, -24.472759878266608 -13.801275427691975, -24.242105832063007 -13.941099265974229 M-24.242105832063007 -13.941099265974229 C-24.016038987193177 -14.059038194140095, -23.789972142323347 -14.17697712230596, -23.332764825880936 -14.415501886438705 M-24.242105832063007 -13.941099265974229 C-23.89007829991445 -14.124751804011737, -23.53805076776589 -14.308404342049245, -23.332764825880936 -14.415501886438705 M-23.332764825880936 -14.415501886438705 C-23.068972996918962 -14.532274704013592, -22.805181167956984 -14.649047521588477, -22.394897078069995 -14.830668117536344 M-23.332764825880936 -14.415501886438705 C-23.068807291100274 -14.532348057064036, -22.80484975631961 -14.649194227689367, -22.394897078069995 -14.830668117536344 M-22.394897078069995 -14.830668117536344 C-22.124893928177336 -14.930031772578602, -21.854890778284673 -15.029395427620857, -21.43235648837794 -15.184891952170695 M-22.394897078069995 -14.830668117536344 C-22.174749784156436 -14.911684356715812, -21.954602490242877 -14.992700595895277, -21.43235648837794 -15.184891952170695 M-21.43235648837794 -15.184891952170695 C-21.10212113981051 -15.282904070184792, -20.77188579124308 -15.380916188198887, -20.449098342552134 -15.476717808624466 M-21.43235648837794 -15.184891952170695 C-21.22996395116495 -15.244960994835404, -21.027571413951957 -15.305030037500112, -20.449098342552134 -15.476717808624466 M-20.449098342552134 -15.476717808624466 C-20.21360002015024 -15.530468763942526, -19.978101697748343 -15.584219719260586, -19.449163059221963 -15.704946511857043 M-20.449098342552134 -15.476717808624466 C-20.05925013345883 -15.5656981183527, -19.669401924365523 -15.654678428080933, -19.449163059221963 -15.704946511857043 M-19.449163059221963 -15.704946511857043 C-19.096396483966274 -15.761979075998735, -18.74362990871058 -15.819011640140426, -18.436659586952107 -15.868640221171937 M-19.449163059221963 -15.704946511857043 C-19.076667093375843 -15.765168770865685, -18.704171127529726 -15.825391029874329, -18.436659586952107 -15.868640221171937 M-18.436659586952107 -15.868640221171937 C-18.16387265346784 -15.894955648570878, -17.89108571998358 -15.921271075969818, -17.41574851969141 -15.967126284005381 M-18.436659586952107 -15.868640221171937 C-18.190541726831942 -15.892382915137697, -17.94442386671178 -15.916125609103455, -17.41574851969141 -15.967126284005381 M-17.41574851969141 -15.967126284005381 C-17.14571350537487 -15.975785781323243, -16.875678491058338 -15.984445278641104, -16.390625000000004 -16 M-17.41574851969141 -15.967126284005381 C-17.049760943879672 -15.978862793210062, -16.683773368067936 -15.990599302414745, -16.390625000000004 -16 M-16.390625000000004 -16 C-16.390625000000004 -16, -16.390625000000004 -16, -16.390625 -16 M-16.390625000000004 -16 C-16.390625000000004 -16, -16.390625 -16, -16.390625 -16" stroke="#9370DB" stroke-width="1.3" fill="none" stroke-dasharray="0 0" style=""/></g><g class="label" style="" transform="translate(0, -8.5)"><rect/><g><rect class="background" style="stroke: none"/><text y="-10.1" style=""><tspan class="text-outer-tspan row" x="0" y="-0.1em" dy="1.1em"><tspan font-style="normal" class="text-inner-tspan" font-weight="normal">HTTP</tspan></tspan></text></g></g></g><g class="node default" id="flowchart-API-1" transform="translate(153.65234375, 131.0999984741211)"><rect class="basic label-container" style="" x="-120.5703125" y="-41.099998474121094" width="241.140625" height="82.19999694824219"/><g class="label" style="" transform="translate(0, -26.099998474121094)"><rect/><g><rect class="background" style="stroke: none"/><text y="-10.1" style=""><tspan class="text-outer-tspan row" x="0" y="-0.1em" dy="1.1em"><tspan font-style="normal" class="text-inner-tspan" font-weight="normal">API</tspan><tspan font-style="normal" class="text-inner-tspan" font-weight="normal"> Server</tspan><tspan font-style="normal" class="text-inner-tspan" font-weight="normal"> Input</tspan></tspan><tspan class="text-outer-tspan row" x="0" y="1em" dy="1.1em"><tspan font-style="normal" class="text-inner-tspan" font-weight="normal">Processing,</tspan><tspan font-style="normal" class="text-inner-tspan" font-weight="normal"> Tokenization,</tspan></tspan><tspan class="text-outer-tspan row" x="0" y="2.1em" dy="1.1em"><tspan font-style="normal" class="text-inner-tspan" font-weight="normal">Streaming</tspan></tspan></text></g></g></g><g class="node default" id="flowchart-EC-4" transform="translate(153.65234375, 275.49999618530273)"><rect class="basic label-container" style="" x="-127.56640625" y="-32.29999923706055" width="255.1328125" height="64.5999984741211"/><g class="label" style="" transform="translate(0, -17.299999237060547)"><rect/><g><rect class="background" style="stroke: none"/><text y="-10.1" style=""><tspan class="text-outer-tspan row" x="0" y="-0.1em" dy="1.1em"><tspan font-style="normal" class="text-inner-tspan" font-weight="normal">Engine</tspan><tspan font-style="normal" class="text-inner-tspan" font-weight="normal"> Core</tspan><tspan font-style="normal" class="text-inner-tspan" font-weight="normal"> Scheduler,</tspan><tspan font-style="normal" class="text-inner-tspan" font-weight="normal"> KV</tspan></tspan><tspan class="text-outer-tspan row" x="0" y="1em" dy="1.1em"><tspan font-style="normal" class="text-inner-tspan" font-weight="normal">Cache</tspan><tspan font-style="normal" class="text-inner-tspan" font-weight="normal"> Manager</tspan></tspan></text></g></g></g></g></g></g><style>/*
 * Red Hat Technical Diagram Styles for Mermaid SVG
 *
 * Based on:
 *   - CCS "Working with technical diagrams" guidelines
 *   - Red Hat Design System tokens (@rhds/tokens v3.0.2)
 *
 * Usage: mmdc -i input.mmd -o output.svg -C rh-diagrams.css -c mermaid-config.json -I rh-diagram-svg
 *
 * Note: All selectors use #rh-diagram-svg prefix to override mermaid's
 * built-in ID-scoped styles which have higher specificity than
 * class-only selectors. Pass -I rh-diagram-svg to mmdc to set the SVG ID.
 */

/* ============================================================
 * TYPOGRAPHY
 * Red Hat Display for labels/headings, Red Hat Text for body
 * ============================================================ */

/* Color tokens for use in .mmd style statements */
#rh-diagram-svg {
  --rh-blue-fill: #e0f0ff;    /* blue-10 */
  --rh-blue-stroke: #0066cc;  /* blue-50 */
  --rh-green-fill: #e9f7df;   /* green-10 */
  --rh-green-stroke: #63993d; /* green-50 */
  --rh-gray-fill: #f2f2f2;    /* gray-10 */
  --rh-gray-stroke: #c7c7c7;  /* gray-30 */
}

/* Base SVG font */
#rh-diagram-svg {
  font-family: "Red Hat Text", RedHatText, Helvetica, Arial, sans-serif;
  font-size: 14px;
  fill: #151515; /* --rh-color-text-primary-on-light */
}

/* Node labels */
#rh-diagram-svg .nodeLabel,
#rh-diagram-svg .node .label text,
#rh-diagram-svg .node text {
  font-family: "Red Hat Display", RedHatDisplay, Helvetica, Arial, sans-serif;
  font-size: 14px;
  font-weight: 500;
  fill: #151515; /* --rh-color-text-primary-on-light */
}

/* Edge labels */
#rh-diagram-svg .edgeLabel,
#rh-diagram-svg .edgeLabel text,
#rh-diagram-svg .edgeLabel tspan {
  font-family: "Red Hat Text", RedHatText, Helvetica, Arial, sans-serif;
  font-size: 12px;
  font-weight: 400;
  fill: #4d4d4d; /* --rh-color-text-secondary-on-light */
}

/* Edge label background */
#rh-diagram-svg .edgeLabel rect.background,
#rh-diagram-svg .edgeLabel .background {
  fill: #ffffff; /* --rh-color-surface-lightest */
  opacity: 0.9;
}

/* Cluster/subgraph labels */
#rh-diagram-svg .cluster-label text,
#rh-diagram-svg .cluster-label tspan {
  font-family: "Red Hat Display", RedHatDisplay, Helvetica, Arial, sans-serif;
  font-size: 14px;
  font-weight: 500;
  fill: #151515; /* --rh-color-text-primary-on-light */
}

/* Title text */
#rh-diagram-svg .flowchartTitleText {
  font-family: "Red Hat Display", RedHatDisplay, Helvetica, Arial, sans-serif;
  font-size: 20px;
  font-weight: 700;
  fill: #151515; /* --rh-color-text-primary-on-light */
}

/* Generic label styling */
#rh-diagram-svg .label {
  font-family: "Red Hat Text", RedHatText, Helvetica, Arial, sans-serif;
  color: #151515;
}

#rh-diagram-svg .label text,
#rh-diagram-svg span {
  fill: #151515; /* --rh-color-text-primary-on-light */
  color: #151515;
}

/* ============================================================
 * NODES — Primary style
 * Light blue fill, RH blue border
 * ============================================================ */

#rh-diagram-svg .node rect,
#rh-diagram-svg .node circle,
#rh-diagram-svg .node ellipse,
#rh-diagram-svg .node polygon,
#rh-diagram-svg .node path {
  fill: #e0f0ff; /* --rh-color-blue-10 */
  stroke: #0066cc; /* --rh-color-blue-50 */
  stroke-width: 1px; /* --rh-border-width-sm */
}

/* ============================================================
 * EDGES — Lines &amp; arrows
 * Gray-60 for connectors, 2px stroke
 * ============================================================ */

#rh-diagram-svg .edgePath .path,
#rh-diagram-svg .flowchart-link {
  stroke: #4d4d4d; /* --rh-color-gray-60 */
  stroke-width: 2px; /* --rh-border-width-md */
}

#rh-diagram-svg .edge-pattern-dotted {
  stroke-dasharray: 3;
}

#rh-diagram-svg .edge-pattern-dashed {
  stroke-dasharray: 6;
}

/* Arrow markers */
#rh-diagram-svg .marker {
  fill: #4d4d4d; /* --rh-color-gray-60 */
  stroke: #4d4d4d;
}

#rh-diagram-svg .marker.cross {
  stroke: #4d4d4d;
}

#rh-diagram-svg .arrowheadPath {
  fill: #4d4d4d;
}

#rh-diagram-svg .arrowMarkerPath {
  fill: #4d4d4d;
  stroke: #4d4d4d;
}

/* ============================================================
 * GROUPINGS — Cluster/subgraph containers
 * Subtle gray background, light border
 * ============================================================ */

#rh-diagram-svg .cluster rect {
  fill: #f2f2f2; /* --rh-color-gray-10 */
  stroke: #c7c7c7; /* --rh-color-gray-30 */
  stroke-width: 1px;
}


#rh-diagram-svg .cluster text {
  fill: #151515;
}

#rh-diagram-svg .cluster span {
  color: #151515;
}

/* ============================================================
 * STATUS / SEMANTIC NODE VARIANTS
 * Apply via classDef in .mmd files:
 *
 *   classDef success fill:#e9f7df,stroke:#3d7317,color:#204d00
 *   classDef danger fill:#ffe3d9,stroke:#b1380b,color:#731f00
 *   classDef warning fill:#fff4cc,stroke:#dca614,color:#73480b
 *   classDef info fill:#ece6ff,stroke:#5e40be,color:#21134d
 *   classDef neutral fill:#f2f2f2,stroke:#4d4d4d,color:#151515
 *   classDef brand fill:#fce3e3,stroke:#ee0000,color:#5f0000
 * ============================================================ */

/* Success */
#rh-diagram-svg .node.success rect,
#rh-diagram-svg .node.success polygon {
  fill: #e9f7df; /* --rh-color-green-10 */
  stroke: #3d7317; /* --rh-color-green-60 */
}
#rh-diagram-svg .node.success .nodeLabel { fill: #204d00; }

/* Danger */
#rh-diagram-svg .node.danger rect,
#rh-diagram-svg .node.danger polygon {
  fill: #ffe3d9; /* --rh-color-red-orange-10 */
  stroke: #b1380b; /* --rh-color-red-orange-60 */
}
#rh-diagram-svg .node.danger .nodeLabel { fill: #731f00; }

/* Warning */
#rh-diagram-svg .node.warning rect,
#rh-diagram-svg .node.warning polygon {
  fill: #fff4cc; /* --rh-color-yellow-10 */
  stroke: #dca614; /* --rh-color-yellow-40 */
}
#rh-diagram-svg .node.warning .nodeLabel { fill: #73480b; }

/* Info */
#rh-diagram-svg .node.info rect,
#rh-diagram-svg .node.info polygon {
  fill: #ece6ff; /* --rh-color-purple-10 */
  stroke: #5e40be; /* --rh-color-purple-50 */
}
#rh-diagram-svg .node.info .nodeLabel { fill: #21134d; }

/* Neutral */
#rh-diagram-svg .node.neutral rect,
#rh-diagram-svg .node.neutral polygon {
  fill: #f2f2f2; /* --rh-color-gray-10 */
  stroke: #4d4d4d; /* --rh-color-gray-60 */
}
#rh-diagram-svg .node.neutral .nodeLabel { fill: #151515; }

/* Brand (Red Hat red) */
#rh-diagram-svg .node.brand rect,
#rh-diagram-svg .node.brand polygon {
  fill: #fce3e3; /* --rh-color-red-10 */
  stroke: #ee0000; /* --rh-color-red-50 */
}
#rh-diagram-svg .node.brand .nodeLabel { fill: #5f0000; }

/* ============================================================
 * TOOLTIP
 * ============================================================ */

#rh-diagram-svg div.mermaidTooltip {
  font-family: "Red Hat Text", RedHatText, Helvetica, Arial, sans-serif;
  font-size: 12px;
  background: #ffffff;
  border: 1px solid #c7c7c7; /* --rh-color-gray-30 */
  border-radius: 3px; /* --rh-border-radius-default */
  color: #151515;
}
</style></svg>