<svg id="rh-diagram-svg" width="1804" height="830" xmlns="http://www.w3.org/2000/svg" xmlns:xlink="http://www.w3.org/1999/xlink" class="flowchart" style="background-color: white;" viewBox="0 0 1803.6632080078125 830.2999877929688" role="graphics-document document" aria-roledescription="flowchart-v2"><style>#rh-diagram-svg{font-family:"trebuchet ms",verdana,arial,sans-serif;font-size:16px;fill:#333;}@keyframes edge-animation-frame{from{stroke-dashoffset:0;}}@keyframes dash{to{stroke-dashoffset:0;}}#rh-diagram-svg .edge-animation-slow{stroke-dasharray:9,5!important;stroke-dashoffset:900;animation:dash 50s linear infinite;stroke-linecap:round;}#rh-diagram-svg .edge-animation-fast{stroke-dasharray:9,5!important;stroke-dashoffset:900;animation:dash 20s linear infinite;stroke-linecap:round;}#rh-diagram-svg .error-icon{fill:#552222;}#rh-diagram-svg .error-text{fill:#552222;stroke:#552222;}#rh-diagram-svg .edge-thickness-normal{stroke-width:1px;}#rh-diagram-svg .edge-thickness-thick{stroke-width:3.5px;}#rh-diagram-svg .edge-pattern-solid{stroke-dasharray:0;}#rh-diagram-svg .edge-thickness-invisible{stroke-width:0;fill:none;}#rh-diagram-svg .edge-pattern-dashed{stroke-dasharray:3;}#rh-diagram-svg .edge-pattern-dotted{stroke-dasharray:2;}#rh-diagram-svg .marker{fill:#333333;stroke:#333333;}#rh-diagram-svg .marker.cross{stroke:#333333;}#rh-diagram-svg svg{font-family:"trebuchet ms",verdana,arial,sans-serif;font-size:16px;}#rh-diagram-svg p{margin:0;}#rh-diagram-svg .label{font-family:"trebuchet ms",verdana,arial,sans-serif;color:#333;}#rh-diagram-svg .cluster-label text{fill:#333;}#rh-diagram-svg .cluster-label span{color:#333;}#rh-diagram-svg .cluster-label span p{background-color:transparent;}#rh-diagram-svg .label text,#rh-diagram-svg span{fill:#333;color:#333;}#rh-diagram-svg .node rect,#rh-diagram-svg .node circle,#rh-diagram-svg .node ellipse,#rh-diagram-svg .node polygon,#rh-diagram-svg .node path{fill:#ECECFF;stroke:#9370DB;stroke-width:1px;}#rh-diagram-svg .rough-node .label text,#rh-diagram-svg .node .label text,#rh-diagram-svg .image-shape .label,#rh-diagram-svg .icon-shape .label{text-anchor:middle;}#rh-diagram-svg .node .katex path{fill:#000;stroke:#000;stroke-width:1px;}#rh-diagram-svg .rough-node .label,#rh-diagram-svg .node .label,#rh-diagram-svg .image-shape .label,#rh-diagram-svg .icon-shape .label{text-align:center;}#rh-diagram-svg .node.clickable{cursor:pointer;}#rh-diagram-svg .root .anchor path{fill:#333333!important;stroke-width:0;stroke:#333333;}#rh-diagram-svg .arrowheadPath{fill:#333333;}#rh-diagram-svg .edgePath .path{stroke:#333333;stroke-width:2.0px;}#rh-diagram-svg .flowchart-link{stroke:#333333;fill:none;}#rh-diagram-svg .edgeLabel{background-color:rgba(232,232,232, 0.8);text-align:center;}#rh-diagram-svg .edgeLabel p{background-color:rgba(232,232,232, 0.8);}#rh-diagram-svg .edgeLabel rect{opacity:0.5;background-color:rgba(232,232,232, 0.8);fill:rgba(232,232,232, 0.8);}#rh-diagram-svg .labelBkg{background-color:rgba(232, 232, 232, 0.5);}#rh-diagram-svg .cluster rect{fill:#ffffde;stroke:#aaaa33;stroke-width:1px;}#rh-diagram-svg .cluster text{fill:#333;}#rh-diagram-svg .cluster span{color:#333;}#rh-diagram-svg div.mermaidTooltip{position:absolute;text-align:center;max-width:200px;padding:2px;font-family:"trebuchet ms",verdana,arial,sans-serif;font-size:12px;background:hsl(80, 100%, 96.2745098039%);border:1px solid #aaaa33;border-radius:2px;pointer-events:none;z-index:100;}#rh-diagram-svg .flowchartTitleText{text-anchor:middle;font-size:18px;fill:#333;}#rh-diagram-svg rect.text{fill:none;stroke-width:0;}#rh-diagram-svg .icon-shape,#rh-diagram-svg .image-shape{background-color:rgba(232,232,232, 0.8);text-align:center;}#rh-diagram-svg .icon-shape p,#rh-diagram-svg .image-shape p{background-color:rgba(232,232,232, 0.8);padding:2px;}#rh-diagram-svg .icon-shape .label rect,#rh-diagram-svg .image-shape .label rect{opacity:0.5;background-color:rgba(232,232,232, 0.8);fill:rgba(232,232,232, 0.8);}#rh-diagram-svg .label-icon{display:inline-block;height:1em;overflow:visible;vertical-align:-0.125em;}#rh-diagram-svg .node .label-icon path{fill:currentColor;stroke:revert;stroke-width:revert;}#rh-diagram-svg :root{--mermaid-font-family:"trebuchet ms",verdana,arial,sans-serif;}#rh-diagram-svg .success rect{fill:#e9f7df!important;stroke:#3d7317!important;color:#204d00!important;}#rh-diagram-svg .success polygon{fill:#e9f7df!important;stroke:#3d7317!important;color:#204d00!important;}#rh-diagram-svg .success ellipse{fill:#e9f7df!important;stroke:#3d7317!important;color:#204d00!important;}#rh-diagram-svg .success circle{fill:#e9f7df!important;stroke:#3d7317!important;color:#204d00!important;}#rh-diagram-svg .success path{fill:#e9f7df!important;stroke:#3d7317!important;color:#204d00!important;}#rh-diagram-svg .success tspan{fill:#204d00!important;}</style><g><marker id="rh-diagram-svg_flowchart-v2-pointEnd" class="marker flowchart-v2" viewBox="0 0 10 10" refX="5" refY="5" markerUnits="userSpaceOnUse" markerWidth="8" markerHeight="8" orient="auto"><path d="M 0 0 L 10 5 L 0 10 z" class="arrowMarkerPath" style="stroke-width: 1; stroke-dasharray: 1, 0;"/></marker><marker id="rh-diagram-svg_flowchart-v2-pointStart" class="marker flowchart-v2" viewBox="0 0 10 10" refX="4.5" refY="5" markerUnits="userSpaceOnUse" markerWidth="8" markerHeight="8" orient="auto"><path d="M 0 5 L 10 10 L 10 0 z" class="arrowMarkerPath" style="stroke-width: 1; stroke-dasharray: 1, 0;"/></marker><marker id="rh-diagram-svg_flowchart-v2-circleEnd" class="marker flowchart-v2" viewBox="0 0 10 10" refX="11" refY="5" markerUnits="userSpaceOnUse" markerWidth="11" markerHeight="11" orient="auto"><circle cx="5" cy="5" r="5" class="arrowMarkerPath" style="stroke-width: 1; stroke-dasharray: 1, 0;"/></marker><marker id="rh-diagram-svg_flowchart-v2-circleStart" class="marker flowchart-v2" viewBox="0 0 10 10" refX="-1" refY="5" markerUnits="userSpaceOnUse" markerWidth="11" markerHeight="11" orient="auto"><circle cx="5" cy="5" r="5" class="arrowMarkerPath" style="stroke-width: 1; stroke-dasharray: 1, 0;"/></marker><marker id="rh-diagram-svg_flowchart-v2-crossEnd" class="marker cross flowchart-v2" viewBox="0 0 11 11" refX="12" refY="5.2" markerUnits="userSpaceOnUse" markerWidth="11" markerHeight="11" orient="auto"><path d="M 1,1 l 9,9 M 10,1 l -9,9" class="arrowMarkerPath" style="stroke-width: 2; stroke-dasharray: 1, 0;"/></marker><marker id="rh-diagram-svg_flowchart-v2-crossStart" class="marker cross flowchart-v2" viewBox="0 0 11 11" refX="-1" refY="5.2" markerUnits="userSpaceOnUse" markerWidth="11" markerHeight="11" orient="auto"><path d="M 1,1 l 9,9 M 10,1 l -9,9" class="arrowMarkerPath" style="stroke-width: 2; stroke-dasharray: 1, 0;"/></marker><g class="root"><g class="clusters"><g class="cluster" id="ECs" data-look="classic"><rect style="" x="1035.5929336547852" y="8" width="262.3984375" height="814.299976348877"/><g class="cluster-label" transform="translate(1043.5929336547852, 8)"><g><rect class="background" style="stroke: none"/><text y="-10.1" style="text-anchor:start;text-anchor:start;"><tspan class="text-outer-tspan row" x="0" y="-0.1em" dy="1.1em"><tspan font-style="normal" class="text-inner-tspan" font-weight="normal">Engine</tspan><tspan font-style="normal" class="text-inner-tspan" font-weight="normal"> Cores</tspan><tspan font-style="normal" class="text-inner-tspan" font-weight="normal"> (×4,</tspan><tspan font-style="normal" class="text-inner-tspan" font-weight="normal"> DP=4)</tspan></tspan></text></g></g></g><g class="cluster" id="DP3" data-look="classic"><rect style="fill:#ffffff;stroke:#ffffff;fill:#ffffff;stroke:#ffffff;" x="1060.5929336547852" y="28" width="212.3984375" height="231.79999923706055"/><g class="cluster-label" transform="translate(1068.5929336547852, 28)"><g><rect class="background" style="stroke: none"/><text y="-10.1" style="text-anchor:start;text-anchor:start;"><tspan class="text-outer-tspan row" x="0" y="-0.1em" dy="1.1em"><tspan font-style="normal" class="text-inner-tspan" font-weight="normal">DP</tspan><tspan font-style="normal" class="text-inner-tspan" font-weight="normal"> Rank</tspan><tspan font-style="normal" class="text-inner-tspan" font-weight="normal"> 3</tspan></tspan></text></g></g></g><g class="cluster" id="DP2" data-look="classic"><rect style="fill:#ffffff;stroke:#ffffff;fill:#ffffff;stroke:#ffffff;" x="1060.5929336547852" y="685.299976348877" width="212.3984375" height="117"/><g class="cluster-label" transform="translate(1068.5929336547852, 685.299976348877)"><g><rect class="background" style="stroke: none"/><text y="-10.1" style="text-anchor:start;text-anchor:start;"><tspan class="text-outer-tspan row" x="0" y="-0.1em" dy="1.1em"><tspan font-style="normal" class="text-inner-tspan" font-weight="normal">DP</tspan><tspan font-style="normal" class="text-inner-tspan" font-weight="normal"> Rank</tspan><tspan font-style="normal" class="text-inner-tspan" font-weight="normal"> 2</tspan></tspan></text></g></g></g><g class="cluster" id="DP1" data-look="classic"><rect style="fill:#ffffff;stroke:#ffffff;fill:#ffffff;stroke:#ffffff;" x="1060.5929336547852" y="495.6999855041504" width="212.3984375" height="117"/><g class="cluster-label" transform="translate(1068.5929336547852, 495.6999855041504)"><g><rect class="background" style="stroke: none"/><text y="-10.1" style="text-anchor:start;text-anchor:start;"><tspan class="text-outer-tspan row" x="0" y="-0.1em" dy="1.1em"><tspan font-style="normal" class="text-inner-tspan" font-weight="normal">DP</tspan><tspan font-style="normal" class="text-inner-tspan" font-weight="normal"> Rank</tspan><tspan font-style="normal" class="text-inner-tspan" font-weight="normal"> 1</tspan></tspan></text></g></g></g><g class="cluster" id="DP0" data-look="classic"><rect style="fill:#ffffff;stroke:#ffffff;fill:#ffffff;stroke:#ffffff;" x="1060.5929336547852" y="306.0999946594238" width="212.3984375" height="117"/><g class="cluster-label" transform="translate(1068.5929336547852, 306.0999946594238)"><g><rect class="background" style="stroke: none"/><text y="-10.1" style="text-anchor:start;text-anchor:start;"><tspan class="text-outer-tspan row" x="0" y="-0.1em" dy="1.1em"><tspan font-style="normal" class="text-inner-tspan" font-weight="normal">DP</tspan><tspan font-style="normal" class="text-inner-tspan" font-weight="normal"> Rank</tspan><tspan font-style="normal" class="text-inner-tspan" font-weight="normal"> 0</tspan></tspan></text></g></g></g></g><g class="edgePaths"><path d="M72.765,77.25L97.765,77.25L118.765,77.25" id="L_HTTP_APIs_0" class="edge-thickness-normal edge-pattern-dotted edge-thickness-normal edge-pattern-solid flowchart-link" style=";" data-edge="true" data-et="edge" data-id="L_HTTP_APIs_0" data-points="W3sieCI6NzIuNzY0ODA4NjU0Nzg1MTYsInkiOjc3LjI1fSx7IngiOjk3Ljc2NDgwODY1NDc4NTE2LCJ5Ijo3Ny4yNX0seyJ4IjoxMjIuNzY0ODA4NjU0Nzg1MTYsInkiOjc3LjI1fV0=" marker-end="url(#rh-diagram-svg_flowchart-v2-pointEnd)"/><path d="M950.046,77.25L990.819,77.25L1031.593,77.25" id="L_APIs_ECs_0" class="edge-thickness-normal edge-pattern-dotted edge-thickness-normal edge-pattern-solid flowchart-link" style=";" data-edge="true" data-et="edge" data-id="L_APIs_ECs_0" data-points="W3sieCI6OTQ2LjA0NjA1ODY1NDc4NTIsInkiOjc3LjI1fSx7IngiOjk5MC44MTk0OTYxNTQ3ODUyLCJ5Ijo3Ny4yNX0seyJ4IjoxMDM1LjU5MjkzMzY1NDc4NTIsInkiOjc3LjI1fSx7IngiOjEwNjAuNTkyOTMzNjU0Nzg1MiwieSI6NzcuMjV9LHsieCI6MTEzMS45NjA1ODcxMDI0NTE3LCJ5IjoxMjUuMzk5OTk5NjE4NTMwMjd9XQ==" marker-start="url(#rh-diagram-svg_flowchart-v2-pointStart)" marker-end="url(#rh-diagram-svg_flowchart-v2-pointEnd)"/><path d="M619.816,220.55L990.819,220.55L1031.593,220.55" id="L_DPC_ECs_0" class="edge-thickness-normal edge-pattern-dotted edge-thickness-normal edge-pattern-solid flowchart-link" style=";" data-edge="true" data-et="edge" data-id="L_DPC_ECs_0" data-points="W3sieCI6NjE5LjgxNTU4OTkwNDc4NTIsInkiOjIyMC41NDk5OTkyMzcwNjA1NX0seyJ4Ijo5OTAuODE5NDk2MTU0Nzg1MiwieSI6MjIwLjU0OTk5OTIzNzA2MDU1fSx7IngiOjEwMzUuNTkyOTMzNjU0Nzg1MiwieSI6MjIwLjU0OTk5OTIzNzA2MDU1fSx7IngiOjEwNjAuNTkyOTMzNjU0Nzg1MiwieSI6MjIwLjU0OTk5OTIzNzA2MDU1fSx7IngiOjExMzEuOTYwNTg3MTAyNDUxNywieSI6MTcyLjM5OTk5OTYxODUzMDI3fV0=" marker-end="url(#rh-diagram-svg_flowchart-v2-pointEnd)"/><path d="M1247.991,364.6L1272.991,364.6L1297.991,364.6L1322.991,364.6L1343.991,364.6" id="L_EC0_GW0G_0" class="edge-thickness-normal edge-pattern-dotted edge-thickness-normal edge-pattern-solid flowchart-link" style=";" data-edge="true" data-et="edge" data-id="L_EC0_GW0G_0" data-points="W3sieCI6MTI0Ny45OTEzNzExNTQ3ODUyLCJ5IjozNjQuNTk5OTk0NjU5NDIzOH0seyJ4IjoxMjcyLjk5MTM3MTE1NDc4NTIsInkiOjM2NC41OTk5OTQ2NTk0MjM4fSx7IngiOjEyOTcuOTkxMzcxMTU0Nzg1MiwieSI6MzY0LjU5OTk5NDY1OTQyMzh9LHsieCI6MTMyMi45OTEzNzExNTQ3ODUyLCJ5IjozNjQuNTk5OTk0NjU5NDIzOH0seyJ4IjoxMzQ3Ljk5MTM3MTE1NDc4NTIsInkiOjM2NC41OTk5OTQ2NTk0MjM4fV0=" marker-end="url(#rh-diagram-svg_flowchart-v2-pointEnd)"/><path d="M1247.991,554.2L1272.991,554.2L1297.991,554.2L1322.991,554.2L1343.991,554.2" id="L_EC1_GW1G_0" class="edge-thickness-normal edge-pattern-dotted edge-thickness-normal edge-pattern-solid flowchart-link" style=";" data-edge="true" data-et="edge" data-id="L_EC1_GW1G_0" data-points="W3sieCI6MTI0Ny45OTEzNzExNTQ3ODUyLCJ5Ijo1NTQuMTk5OTg1NTA0MTUwNH0seyJ4IjoxMjcyLjk5MTM3MTE1NDc4NTIsInkiOjU1NC4xOTk5ODU1MDQxNTA0fSx7IngiOjEyOTcuOTkxMzcxMTU0Nzg1MiwieSI6NTU0LjE5OTk4NTUwNDE1MDR9LHsieCI6MTMyMi45OTEzNzExNTQ3ODUyLCJ5Ijo1NTQuMTk5OTg1NTA0MTUwNH0seyJ4IjoxMzQ3Ljk5MTM3MTE1NDc4NTIsInkiOjU1NC4xOTk5ODU1MDQxNTA0fV0=" marker-end="url(#rh-diagram-svg_flowchart-v2-pointEnd)"/><path d="M1247.991,743.8L1272.991,743.8L1297.991,743.8L1322.991,743.8L1343.991,743.8" id="L_EC2_GW2G_0" class="edge-thickness-normal edge-pattern-dotted edge-thickness-normal edge-pattern-solid flowchart-link" style=";" data-edge="true" data-et="edge" data-id="L_EC2_GW2G_0" data-points="W3sieCI6MTI0Ny45OTEzNzExNTQ3ODUyLCJ5Ijo3NDMuNzk5OTc2MzQ4ODc3fSx7IngiOjEyNzIuOTkxMzcxMTU0Nzg1MiwieSI6NzQzLjc5OTk3NjM0ODg3N30seyJ4IjoxMjk3Ljk5MTM3MTE1NDc4NTIsInkiOjc0My43OTk5NzYzNDg4Nzd9LHsieCI6MTMyMi45OTEzNzExNTQ3ODUyLCJ5Ijo3NDMuNzk5OTc2MzQ4ODc3fSx7IngiOjEzNDcuOTkxMzcxMTU0Nzg1MiwieSI6NzQzLjc5OTk3NjM0ODg3N31d" marker-end="url(#rh-diagram-svg_flowchart-v2-pointEnd)"/><path d="M1247.991,148.9L1272.991,148.9L1297.991,148.9L1322.991,148.9L1343.991,148.9" id="L_EC3_GW3G_0" class="edge-thickness-normal edge-pattern-dotted edge-thickness-normal edge-pattern-solid flowchart-link" style=";" data-edge="true" data-et="edge" data-id="L_EC3_GW3G_0" data-points="W3sieCI6MTI0Ny45OTEzNzExNTQ3ODUyLCJ5IjoxNDguODk5OTk5NjE4NTMwMjd9LHsieCI6MTI3Mi45OTEzNzExNTQ3ODUyLCJ5IjoxNDguODk5OTk5NjE4NTMwMjd9LHsieCI6MTI5Ny45OTEzNzExNTQ3ODUyLCJ5IjoxNDguODk5OTk5NjE4NTMwMjd9LHsieCI6MTMyMi45OTEzNzExNTQ3ODUyLCJ5IjoxNDguODk5OTk5NjE4NTMwMjd9LHsieCI6MTM0Ny45OTEzNzExNTQ3ODUyLCJ5IjoxNDguODk5OTk5NjE4NTMwMjd9XQ==" marker-end="url(#rh-diagram-svg_flowchart-v2-pointEnd)"/></g><g class="edgeLabels"><g class="edgeLabel"><g class="label" data-id="L_HTTP_APIs_0" transform="translate(0, 0)"><text y="-10.1" text-anchor="middle"><tspan class="text-outer-tspan row" x="0" y="-0.1em" dy="1.1em" text-anchor="middle"/></text></g></g><g><rect class="background" style="stroke: none"/></g><g class="edgeLabel" transform="translate(990.8194961547852, 77.25)"><g class="label" data-id="L_APIs_ECs_0" transform="translate(0, -10.5)"><g><rect class="background" style="" x="-19.7734375" y="0" width="39.546875" height="21"/><text y="-10.1" text-anchor="middle" style=""><tspan class="text-outer-tspan row" x="0" y="-0.1em" dy="1.1em" text-anchor="middle"><tspan font-style="normal" class="text-inner-tspan" font-weight="normal">ZMQ</tspan></tspan></text></g></g></g><g class="edgeLabel"><g class="label" data-id="L_DPC_ECs_0" transform="translate(0, 0)"><text y="-10.1" text-anchor="middle"><tspan class="text-outer-tspan row" x="0" y="-0.1em" dy="1.1em" text-anchor="middle"/></text></g></g><g><rect class="background" style="stroke: none"/></g><g class="edgeLabel"><g class="label" data-id="L_EC0_GW0G_0" transform="translate(0, 0)"><text y="-10.1" text-anchor="middle"><tspan class="text-outer-tspan row" x="0" y="-0.1em" dy="1.1em" text-anchor="middle"/></text></g></g><g><rect class="background" style="stroke: none"/></g><g class="edgeLabel"><g class="label" data-id="L_EC1_GW1G_0" transform="translate(0, 0)"><text y="-10.1" text-anchor="middle"><tspan class="text-outer-tspan row" x="0" y="-0.1em" dy="1.1em" text-anchor="middle"/></text></g></g><g><rect class="background" style="stroke: none"/></g><g class="edgeLabel"><g class="label" data-id="L_EC2_GW2G_0" transform="translate(0, 0)"><text y="-10.1" text-anchor="middle"><tspan class="text-outer-tspan row" x="0" y="-0.1em" dy="1.1em" text-anchor="middle"/></text></g></g><g><rect class="background" style="stroke: none"/></g><g class="edgeLabel"><g class="label" data-id="L_EC3_GW3G_0" transform="translate(0, 0)"><text y="-10.1" text-anchor="middle"><tspan class="text-outer-tspan row" x="0" y="-0.1em" dy="1.1em" text-anchor="middle"/></text></g></g><g><rect class="background" style="stroke: none"/></g></g><g class="nodes"><g class="root" transform="translate(1339.9913711547852, 71.10000419616699)"><g class="clusters"><g class="cluster" id="GW3G" data-look="classic"><rect style="" x="8" y="8" width="447.671875" height="139.5999984741211"/><g class="cluster-label" transform="translate(16, 8)"><g><rect class="background" style="stroke: none"/><text y="-10.1" style="text-anchor:start;text-anchor:start;"><tspan class="text-outer-tspan row" x="0" y="-0.1em" dy="1.1em"><tspan font-style="normal" class="text-inner-tspan" font-weight="normal">TP</tspan><tspan font-style="normal" class="text-inner-tspan" font-weight="normal"> Group</tspan><tspan font-style="normal" class="text-inner-tspan" font-weight="normal"> 3</tspan></tspan></text></g></g></g></g><g class="edgePaths"/><g class="edgeLabels"/><g class="nodes"><g class="node default" id="flowchart-GW6-21" transform="translate(124.91796875, 77.79999923706055)"><rect class="basic label-container" style="" x="-81.91796875" y="-32.29999923706055" width="163.8359375" height="64.5999984741211"/><g class="label" style="" transform="translate(0, -17.299999237060547)"><rect/><g><rect class="background" style="stroke: none"/><text y="-10.1" style=""><tspan class="text-outer-tspan row" x="0" y="-0.1em" dy="1.1em"><tspan font-style="normal" class="text-inner-tspan" font-weight="normal">GPU</tspan><tspan font-style="normal" class="text-inner-tspan" font-weight="normal"> Worker</tspan><tspan font-style="normal" class="text-inner-tspan" font-weight="normal"> 6</tspan></tspan><tspan class="text-outer-tspan row" x="0" y="1em" dy="1.1em"><tspan font-style="normal" class="text-inner-tspan" font-weight="normal">GPU</tspan><tspan font-style="normal" class="text-inner-tspan" font-weight="normal"> 6</tspan></tspan></text></g></g></g><g class="node default" id="flowchart-GW7-22" transform="translate(338.75390625, 77.79999923706055)"><rect class="basic label-container" style="" x="-81.91796875" y="-32.29999923706055" width="163.8359375" height="64.5999984741211"/><g class="label" style="" transform="translate(0, -17.299999237060547)"><rect/><g><rect class="background" style="stroke: none"/><text y="-10.1" style=""><tspan class="text-outer-tspan row" x="0" y="-0.1em" dy="1.1em"><tspan font-style="normal" class="text-inner-tspan" font-weight="normal">GPU</tspan><tspan font-style="normal" class="text-inner-tspan" font-weight="normal"> Worker</tspan><tspan font-style="normal" class="text-inner-tspan" font-weight="normal"> 7</tspan></tspan><tspan class="text-outer-tspan row" x="0" y="1em" dy="1.1em"><tspan font-style="normal" class="text-inner-tspan" font-weight="normal">GPU</tspan><tspan font-style="normal" class="text-inner-tspan" font-weight="normal"> 7</tspan></tspan></text></g></g></g></g></g><g class="root" transform="translate(1339.9913711547852, 665.9999809265137)"><g class="clusters"><g class="cluster" id="GW2G" data-look="classic"><rect style="" x="8" y="8" width="447.671875" height="139.5999984741211"/><g class="cluster-label" transform="translate(16, 8)"><g><rect class="background" style="stroke: none"/><text y="-10.1" style="text-anchor:start;text-anchor:start;"><tspan class="text-outer-tspan row" x="0" y="-0.1em" dy="1.1em"><tspan font-style="normal" class="text-inner-tspan" font-weight="normal">TP</tspan><tspan font-style="normal" class="text-inner-tspan" font-weight="normal"> Group</tspan><tspan font-style="normal" class="text-inner-tspan" font-weight="normal"> 2</tspan></tspan></text></g></g></g></g><g class="edgePaths"/><g class="edgeLabels"/><g class="nodes"><g class="node default" id="flowchart-GW4-19" transform="translate(124.91796875, 77.79999923706055)"><rect class="basic label-container" style="" x="-81.91796875" y="-32.29999923706055" width="163.8359375" height="64.5999984741211"/><g class="label" style="" transform="translate(0, -17.299999237060547)"><rect/><g><rect class="background" style="stroke: none"/><text y="-10.1" style=""><tspan class="text-outer-tspan row" x="0" y="-0.1em" dy="1.1em"><tspan font-style="normal" class="text-inner-tspan" font-weight="normal">GPU</tspan><tspan font-style="normal" class="text-inner-tspan" font-weight="normal"> Worker</tspan><tspan font-style="normal" class="text-inner-tspan" font-weight="normal"> 4</tspan></tspan><tspan class="text-outer-tspan row" x="0" y="1em" dy="1.1em"><tspan font-style="normal" class="text-inner-tspan" font-weight="normal">GPU</tspan><tspan font-style="normal" class="text-inner-tspan" font-weight="normal"> 4</tspan></tspan></text></g></g></g><g class="node default" id="flowchart-GW5-20" transform="translate(338.75390625, 77.79999923706055)"><rect class="basic label-container" style="" x="-81.91796875" y="-32.29999923706055" width="163.8359375" height="64.5999984741211"/><g class="label" style="" transform="translate(0, -17.299999237060547)"><rect/><g><rect class="background" style="stroke: none"/><text y="-10.1" style=""><tspan class="text-outer-tspan row" x="0" y="-0.1em" dy="1.1em"><tspan font-style="normal" class="text-inner-tspan" font-weight="normal">GPU</tspan><tspan font-style="normal" class="text-inner-tspan" font-weight="normal"> Worker</tspan><tspan font-style="normal" class="text-inner-tspan" font-weight="normal"> 5</tspan></tspan><tspan class="text-outer-tspan row" x="0" y="1em" dy="1.1em"><tspan font-style="normal" class="text-inner-tspan" font-weight="normal">GPU</tspan><tspan font-style="normal" class="text-inner-tspan" font-weight="normal"> 5</tspan></tspan></text></g></g></g></g></g><g class="root" transform="translate(1339.9913711547852, 476.3999900817871)"><g class="clusters"><g class="cluster" id="GW1G" data-look="classic"><rect style="" x="8" y="8" width="447.671875" height="139.5999984741211"/><g class="cluster-label" transform="translate(16, 8)"><g><rect class="background" style="stroke: none"/><text y="-10.1" style="text-anchor:start;text-anchor:start;"><tspan class="text-outer-tspan row" x="0" y="-0.1em" dy="1.1em"><tspan font-style="normal" class="text-inner-tspan" font-weight="normal">TP</tspan><tspan font-style="normal" class="text-inner-tspan" font-weight="normal"> Group</tspan><tspan font-style="normal" class="text-inner-tspan" font-weight="normal"> 1</tspan></tspan></text></g></g></g></g><g class="edgePaths"/><g class="edgeLabels"/><g class="nodes"><g class="node default" id="flowchart-GW2-17" transform="translate(124.91796875, 77.79999923706055)"><rect class="basic label-container" style="" x="-81.91796875" y="-32.29999923706055" width="163.8359375" height="64.5999984741211"/><g class="label" style="" transform="translate(0, -17.299999237060547)"><rect/><g><rect class="background" style="stroke: none"/><text y="-10.1" style=""><tspan class="text-outer-tspan row" x="0" y="-0.1em" dy="1.1em"><tspan font-style="normal" class="text-inner-tspan" font-weight="normal">GPU</tspan><tspan font-style="normal" class="text-inner-tspan" font-weight="normal"> Worker</tspan><tspan font-style="normal" class="text-inner-tspan" font-weight="normal"> 2</tspan></tspan><tspan class="text-outer-tspan row" x="0" y="1em" dy="1.1em"><tspan font-style="normal" class="text-inner-tspan" font-weight="normal">GPU</tspan><tspan font-style="normal" class="text-inner-tspan" font-weight="normal"> 2</tspan></tspan></text></g></g></g><g class="node default" id="flowchart-GW3-18" transform="translate(338.75390625, 77.79999923706055)"><rect class="basic label-container" style="" x="-81.91796875" y="-32.29999923706055" width="163.8359375" height="64.5999984741211"/><g class="label" style="" transform="translate(0, -17.299999237060547)"><rect/><g><rect class="background" style="stroke: none"/><text y="-10.1" style=""><tspan class="text-outer-tspan row" x="0" y="-0.1em" dy="1.1em"><tspan font-style="normal" class="text-inner-tspan" font-weight="normal">GPU</tspan><tspan font-style="normal" class="text-inner-tspan" font-weight="normal"> Worker</tspan><tspan font-style="normal" class="text-inner-tspan" font-weight="normal"> 3</tspan></tspan><tspan class="text-outer-tspan row" x="0" y="1em" dy="1.1em"><tspan font-style="normal" class="text-inner-tspan" font-weight="normal">GPU</tspan><tspan font-style="normal" class="text-inner-tspan" font-weight="normal"> 3</tspan></tspan></text></g></g></g></g></g><g class="root" transform="translate(1339.9913711547852, 286.79999923706055)"><g class="clusters"><g class="cluster" id="GW0G" data-look="classic"><rect style="" x="8" y="8" width="447.671875" height="139.5999984741211"/><g class="cluster-label" transform="translate(16, 8)"><g><rect class="background" style="stroke: none"/><text y="-10.1" style="text-anchor:start;text-anchor:start;"><tspan class="text-outer-tspan row" x="0" y="-0.1em" dy="1.1em"><tspan font-style="normal" class="text-inner-tspan" font-weight="normal">TP</tspan><tspan font-style="normal" class="text-inner-tspan" font-weight="normal"> Group</tspan><tspan font-style="normal" class="text-inner-tspan" font-weight="normal"> 0</tspan></tspan></text></g></g></g></g><g class="edgePaths"/><g class="edgeLabels"/><g class="nodes"><g class="node default" id="flowchart-GW0-15" transform="translate(124.91796875, 77.79999923706055)"><rect class="basic label-container" style="" x="-81.91796875" y="-32.29999923706055" width="163.8359375" height="64.5999984741211"/><g class="label" style="" transform="translate(0, -17.299999237060547)"><rect/><g><rect class="background" style="stroke: none"/><text y="-10.1" style=""><tspan class="text-outer-tspan row" x="0" y="-0.1em" dy="1.1em"><tspan font-style="normal" class="text-inner-tspan" font-weight="normal">GPU</tspan><tspan font-style="normal" class="text-inner-tspan" font-weight="normal"> Worker</tspan><tspan font-style="normal" class="text-inner-tspan" font-weight="normal"> 0</tspan></tspan><tspan class="text-outer-tspan row" x="0" y="1em" dy="1.1em"><tspan font-style="normal" class="text-inner-tspan" font-weight="normal">GPU</tspan><tspan font-style="normal" class="text-inner-tspan" font-weight="normal"> 0</tspan></tspan></text></g></g></g><g class="node default" id="flowchart-GW1-16" transform="translate(338.75390625, 77.79999923706055)"><rect class="basic label-container" style="" x="-81.91796875" y="-32.29999923706055" width="163.8359375" height="64.5999984741211"/><g class="label" style="" transform="translate(0, -17.299999237060547)"><rect/><g><rect class="background" style="stroke: none"/><text y="-10.1" style=""><tspan class="text-outer-tspan row" x="0" y="-0.1em" dy="1.1em"><tspan font-style="normal" class="text-inner-tspan" font-weight="normal">GPU</tspan><tspan font-style="normal" class="text-inner-tspan" font-weight="normal"> Worker</tspan><tspan font-style="normal" class="text-inner-tspan" font-weight="normal"> 1</tspan></tspan><tspan class="text-outer-tspan row" x="0" y="1em" dy="1.1em"><tspan font-style="normal" class="text-inner-tspan" font-weight="normal">GPU</tspan><tspan font-style="normal" class="text-inner-tspan" font-weight="normal"> 1</tspan></tspan></text></g></g></g></g></g><g class="root" transform="translate(114.76480865478516, 8.25)"><g class="clusters"><g class="cluster" id="APIs" data-look="classic"><rect style="" x="8" y="8" width="823.28125" height="122"/><g class="cluster-label" transform="translate(16, 8)"><g><rect class="background" style="stroke: none"/><text y="-10.1" style="text-anchor:start;text-anchor:start;"><tspan class="text-outer-tspan row" x="0" y="-0.1em" dy="1.1em"><tspan font-style="normal" class="text-inner-tspan" font-weight="normal">API</tspan><tspan font-style="normal" class="text-inner-tspan" font-weight="normal"> Servers</tspan><tspan font-style="normal" class="text-inner-tspan" font-weight="normal"> (×4)</tspan></tspan></text></g></g></g></g><g class="edgePaths"/><g class="edgeLabels"/><g class="nodes"><g class="node default" id="flowchart-API0-2" transform="translate(118.41015625, 69)"><rect class="basic label-container" style="" x="-75.41015625" y="-23.5" width="150.8203125" height="47"/><g class="label" style="" transform="translate(0, -8.5)"><rect/><g><rect class="background" style="stroke: none"/><text y="-10.1" style=""><tspan class="text-outer-tspan row" x="0" y="-0.1em" dy="1.1em"><tspan font-style="normal" class="text-inner-tspan" font-weight="normal">API</tspan><tspan font-style="normal" class="text-inner-tspan" font-weight="normal"> Server</tspan><tspan font-style="normal" class="text-inner-tspan" font-weight="normal"> 0</tspan></tspan></text></g></g></g><g class="node default" id="flowchart-API1-3" transform="translate(319.23046875, 69)"><rect class="basic label-container" style="" x="-75.41015625" y="-23.5" width="150.8203125" height="47"/><g class="label" style="" transform="translate(0, -8.5)"><rect/><g><rect class="background" style="stroke: none"/><text y="-10.1" style=""><tspan class="text-outer-tspan row" x="0" y="-0.1em" dy="1.1em"><tspan font-style="normal" class="text-inner-tspan" font-weight="normal">API</tspan><tspan font-style="normal" class="text-inner-tspan" font-weight="normal"> Server</tspan><tspan font-style="normal" class="text-inner-tspan" font-weight="normal"> 1</tspan></tspan></text></g></g></g><g class="node default" id="flowchart-API2-4" transform="translate(520.05078125, 69)"><rect class="basic label-container" style="" x="-75.41015625" y="-23.5" width="150.8203125" height="47"/><g class="label" style="" transform="translate(0, -8.5)"><rect/><g><rect class="background" style="stroke: none"/><text y="-10.1" style=""><tspan class="text-outer-tspan row" x="0" y="-0.1em" dy="1.1em"><tspan font-style="normal" class="text-inner-tspan" font-weight="normal">API</tspan><tspan font-style="normal" class="text-inner-tspan" font-weight="normal"> Server</tspan><tspan font-style="normal" class="text-inner-tspan" font-weight="normal"> 2</tspan></tspan></text></g></g></g><g class="node default" id="flowchart-API3-5" transform="translate(720.87109375, 69)"><rect class="basic label-container" style="" x="-75.41015625" y="-23.5" width="150.8203125" height="47"/><g class="label" style="" transform="translate(0, -8.5)"><rect/><g><rect class="background" style="stroke: none"/><text y="-10.1" style=""><tspan class="text-outer-tspan row" x="0" y="-0.1em" dy="1.1em"><tspan font-style="normal" class="text-inner-tspan" font-weight="normal">API</tspan><tspan font-style="normal" class="text-inner-tspan" font-weight="normal"> Server</tspan><tspan font-style="normal" class="text-inner-tspan" font-weight="normal"> 3</tspan></tspan></text></g></g></g></g></g><g class="node default" id="flowchart-HTTP-0" transform="translate(40.38240432739258, 77.25)"><g class="basic label-container outer-path"><path d="M-16.390625 -16 C-3.330551389195774 -16, 9.729522221608452 -16, 16.390625 -16 C16.390625 -16, 16.390625 -16, 16.390625 -16 C16.669202373412155 -15.991066565852636, 16.94777974682431 -15.98213313170527, 17.415748519691405 -15.967126284005381 C17.74600082017407 -15.93526724176432, 18.076253120656737 -15.903408199523259, 18.436659586952093 -15.868640221171939 C18.681770588018054 -15.829012575383798, 18.926881589084015 -15.789384929595656, 19.449163059221956 -15.704946511857047 C19.848349931565448 -15.613834713182431, 20.247536803908943 -15.522722914507813, 20.449098342552116 -15.476717808624471 C20.800805350600438 -15.372333014783488, 21.152512358648757 -15.267948220942504, 21.43235648837793 -15.184891952170698 C21.774964379944443 -15.05880908104159, 22.11757227151095 -14.932726209912481, 22.394897078069985 -14.830668117536348 C22.74293488565068 -14.676602104295117, 23.090972693231375 -14.522536091053889, 23.33276482588093 -14.415501886438706 C23.52116448066869 -14.317213907211668, 23.709564135456453 -14.218925927984632, 24.242105832063 -13.941099265974232 C24.560405555458367 -13.74814410311516, 24.878705278853733 -13.55518894025609, 25.119183419368778 -13.409409678269451 C25.350940807247863 -13.247745757100626, 25.582698195126948 -13.086081835931799, 25.960393487859456 -12.822617949887306 C26.238432471062808 -12.60088925971071, 26.516471454266163 -12.379160569534113, 26.762279324924613 -12.183135333906153 C26.93716322651699 -12.024310401654432, 27.112047128109364 -11.865485469402712, 27.521545809655784 -11.493589601563642 C27.74931282337551 -11.258401459878423, 27.977079837095243 -11.023213318193203, 28.235072953205048 -10.756814244181072 C28.49844347155273 -10.447444247122853, 28.76181398990041 -10.138074250064632, 28.89992871948848 -9.975836829739738 C29.108054992755104 -9.69696658425601, 29.316181266021733 -9.418096338772282, 29.51338107355129 -9.153866561954718 C29.686953580410858 -8.887212580674209, 29.86052608727043 -8.6205585993937, 30.072909208085537 -8.294281092968403 C30.22527648585712 -8.023737562425037, 30.377643763628704 -7.7531940318816694, 30.576213901968003 -7.400612643853364 C30.665822800927398 -7.21453784784089, 30.755431699886792 -7.028463051828416, 31.021226968252996 -6.476533489958305 C31.10923248272991 -6.259158167729449, 31.19723799720683 -6.0417828455005935, 31.406119752796165 -5.52584087074093 C31.501012186784518 -5.2400399786241545, 31.595904620772874 -4.954239086507378, 31.72931064858657 -4.552441386096524 C31.815142637879962 -4.225126811101335, 31.90097462717336 -3.8978122361061462, 31.989471594909176 -3.560334943301032 C32.05442775609773 -3.226798784087353, 32.11938391728628 -2.893262624873674, 32.185533534631205 -2.5535983205340735 C32.23338561163097 -2.182467060785278, 32.28123768863074 -1.8113358010364826, 32.31669080718717 -1.536368414522911 C32.33201133585431 -1.2977388140240644, 32.34733186452145 -1.0591092135252178, 32.382404459211 -0.5128252411464826 C32.382404459211 -0.3011097329234681, 32.382404459211 -0.08939422470045355, 32.382404459211 0.5128252411464788 C32.36861540494175 0.7276008917144169, 32.35482635067249 0.9423765422823551, 32.31669080718717 1.5363684145229002 C32.274738680160176 1.8617408273597866, 32.23278655313318 2.1871132401966733, 32.185533534631205 2.5535983205340624 C32.14033522467542 2.785682089490823, 32.09513691471963 3.0177658584475844, 31.989471594909176 3.5603349433010285 C31.922537244394185 3.8155846313457085, 31.855602893879194 4.0708343193903875, 31.72931064858657 4.552441386096513 C31.610934521400136 4.908971420507516, 31.492558394213702 5.265501454918519, 31.406119752796165 5.525840870740919 C31.278657991896207 5.840673884469316, 31.151196230996252 6.155506898197714, 31.021226968253 6.4765334899583005 C30.89927817032511 6.72976277814184, 30.77732937239722 6.98299206632538, 30.576213901968003 7.400612643853361 C30.419433203009145 7.678992650622092, 30.262652504050287 7.957372657390825, 30.07290920808554 8.294281092968399 C29.898349432712763 8.562451783803914, 29.723789657339985 8.830622474639428, 29.513381073551297 9.15386656195471 C29.32370957277088 9.408009093571275, 29.134038071990464 9.66215162518784, 28.89992871948848 9.975836829739734 C28.70863995945707 10.20053549191142, 28.51735119942566 10.425234154083107, 28.235072953205055 10.756814244181063 C27.987958602684838 11.011980099558679, 27.74084425216462 11.267145954936293, 27.521545809655784 11.493589601563638 C27.303305061503536 11.691790074701737, 27.08506431335129 11.889990547839838, 26.762279324924627 12.183135333906142 C26.57285799249453 12.334193805805791, 26.383436660064437 12.48525227770544, 25.96039348785946 12.822617949887304 C25.752452468339833 12.967668603482542, 25.544511448820206 13.112719257077778, 25.119183419368788 13.409409678269446 C24.790346595282795 13.608752493490053, 24.4615097711968 13.808095308710662, 24.242105832063004 13.94109926597423 C24.026557646552014 14.053550616290112, 23.811009461041024 14.166001966605993, 23.332764825880933 14.415501886438705 C22.996269363942517 14.564458445655617, 22.659773902004098 14.71341500487253, 22.39489707806999 14.830668117536346 C22.075578033768352 14.948180477592237, 21.756258989466716 15.065692837648127, 21.43235648837794 15.184891952170695 C21.09614476356037 15.284677827285194, 20.7599330387428 15.384463702399692, 20.449098342552134 15.476717808624468 C20.070998785458677 15.563016565200854, 19.69289922836522 15.649315321777243, 19.449163059221963 15.704946511857045 C19.232080422373993 15.740042749081633, 19.014997785526024 15.77513898630622, 18.436659586952103 15.868640221171937 C18.149131333846032 15.896377725945763, 17.86160308073996 15.924115230719588, 17.415748519691405 15.967126284005381 C17.04928046198865 15.978878201329106, 16.682812404285897 15.990630118652833, 16.390625000000004 16 C16.390625000000004 16, 16.390625 16, 16.390625 16 C8.224705555475317 16, 0.05878611095063491 16, -16.390624999999996 16 C-16.651786860603323 15.991625047451175, -16.91294872120665 15.98325009490235, -17.415748519691398 15.967126284005381 C-17.73094932339958 15.936719241556082, -18.04615012710777 15.90631219910678, -18.4366595869521 15.868640221171937 C-18.798183704761282 15.810191805465955, -19.15970782257046 15.751743389759973, -19.449163059221956 15.704946511857045 C-19.827765246403825 15.618533033242946, -20.20636743358569 15.532119554628846, -20.449098342552112 15.476717808624471 C-20.659353420532398 15.414315205131349, -20.869608498512683 15.351912601638226, -21.432356488377923 15.184891952170702 C-21.810678516623575 15.045665948605809, -22.189000544869227 14.906439945040917, -22.394897078069988 14.830668117536348 C-22.768381629715883 14.665337585548297, -23.141866181361777 14.500007053560246, -23.33276482588093 14.415501886438708 C-23.562520772871814 14.295638356059271, -23.7922767198627 14.175774825679834, -24.242105832063 13.941099265974234 C-24.48295031641494 13.795097924200796, -24.723794800766875 13.649096582427358, -25.119183419368767 13.409409678269457 C-25.39015004485736 13.220395090284779, -25.66111667034595 13.031380502300102, -25.960393487859456 12.822617949887308 C-26.24064969399948 12.599121083421496, -26.520905900139507 12.375624216955686, -26.762279324924613 12.183135333906154 C-27.01901155442066 11.949977915840405, -27.275743783916706 11.716820497774656, -27.521545809655777 11.493589601563649 C-27.672609374531 11.337604068280648, -27.823672939406226 11.181618534997646, -28.235072953205048 10.756814244181069 C-28.433912570103544 10.523245915877375, -28.63275218700204 10.28967758757368, -28.899928719488475 9.97583682973974 C-29.13627669144316 9.659152079063654, -29.37262466339785 9.342467328387567, -29.51338107355129 9.15386656195472 C-29.696234024938644 8.872955325731242, -29.879086976326 8.592044089507766, -30.072909208085534 8.29428109296841 C-30.189824048475312 8.086686954945, -30.306738888865095 7.879092816921588, -30.576213901968 7.400612643853366 C-30.690446236719744 7.163406756560953, -30.80467857147149 6.9262008692685395, -31.021226968252996 6.476533489958307 C-31.155461849261226 6.144970738613109, -31.28969673026946 5.813407987267912, -31.406119752796165 5.525840870740931 C-31.476486611832975 5.313907102758504, -31.546853470869785 5.101973334776077, -31.72931064858657 4.552441386096519 C-31.828528356896843 4.174081263082653, -31.927746065207117 3.795721140068786, -31.989471594909176 3.5603349433010343 C-32.032101328509725 3.3414402710596134, -32.074731062110274 3.1225455988181925, -32.185533534631205 2.5535983205340753 C-32.21302438867022 2.3403846852906396, -32.24051524270923 2.1271710500472034, -32.31669080718717 1.5363684145229202 C-32.33153858132186 1.3051023474676426, -32.34638635545654 1.0738362804123651, -32.382404459211 0.5128252411464846 C-32.382404459211 0.3022511928624654, -32.382404459211 0.09167714457844617, -32.382404459211 -0.5128252411464769 C-32.36902994953249 -0.7211440250992465, -32.355655439853976 -0.9294628090520161, -32.31669080718717 -1.5363684145228982 C-32.28036351946783 -1.8181156844398023, -32.24403623174848 -2.0998629543567064, -32.185533534631205 -2.5535983205340678 C-32.11655046953991 -2.9078117802019032, -32.04756740444861 -3.2620252398697387, -31.989471594909176 -3.5603349433010267 C-31.89116951419481 -3.935203381456183, -31.79286743348045 -4.3100718196113394, -31.729310648586573 -4.552441386096511 C-31.616599764612488 -4.891908610585849, -31.5038888806384 -5.2313758350751876, -31.406119752796172 -5.525840870740911 C-31.31957606832109 -5.739605444602673, -31.23303238384601 -5.953370018464435, -31.021226968253 -6.476533489958299 C-30.86677906912311 -6.797247857157167, -30.712331169993213 -7.117962224356035, -30.576213901968003 -7.400612643853359 C-30.385744092633576 -7.7388110774862575, -30.19527428329915 -8.077009511119156, -30.072909208085537 -8.294281092968404 C-29.86229456866962 -8.617841737060797, -29.6516799292537 -8.941402381153189, -29.513381073551294 -9.153866561954715 C-29.31342467641122 -9.421789917719886, -29.113468279271146 -9.689713273485058, -28.89992871948848 -9.975836829739734 C-28.730342843430055 -10.17504204946767, -28.56075696737163 -10.374247269195608, -28.235072953205055 -10.756814244181063 C-27.973403355688674 -11.027009587090221, -27.711733758172294 -11.297204929999378, -27.52154580965579 -11.493589601563633 C-27.35462551808391 -11.645182193900315, -27.18770522651203 -11.796774786236996, -26.762279324924627 -12.18313533390614 C-26.53076987024169 -12.36775796329046, -26.299260415558756 -12.552380592674778, -25.960393487859463 -12.822617949887302 C-25.70957312545644 -12.99757937686116, -25.45875276305342 -13.172540803835018, -25.119183419368788 -13.409409678269444 C-24.877615542692975 -13.55584954472074, -24.63604766601716 -13.702289411172037, -24.242105832063007 -13.941099265974229 C-23.971069189293384 -14.082498908899888, -23.700032546523758 -14.223898551825545, -23.332764825880936 -14.415501886438705 C-23.001220699024515 -14.562266636490953, -22.669676572168093 -14.709031386543202, -22.394897078069995 -14.830668117536344 C-22.046618996996525 -14.95883767081867, -21.69834091592306 -15.087007224100997, -21.43235648837794 -15.184891952170695 C-21.058688737048296 -15.295794579343282, -20.685020985718648 -15.406697206515869, -20.449098342552134 -15.476717808624466 C-20.2458817097596 -15.523100678946902, -20.042665076967065 -15.569483549269336, -19.449163059221963 -15.704946511857043 C-19.140480505935155 -15.7548519132035, -18.83179795264835 -15.80475731454996, -18.436659586952107 -15.868640221171937 C-18.13286151459382 -15.897947255841704, -17.829063442235533 -15.92725429051147, -17.41574851969141 -15.967126284005381 C-17.17520105267974 -15.974840173075204, -16.93465358566807 -15.982554062145029, -16.390625000000004 -16 C-16.390625000000004 -16, -16.390625000000004 -16, -16.390625 -16" stroke="none" stroke-width="0" fill="#ECECFF" style=""/><path d="M-16.390625 -16 C-6.521042592704109 -16, 3.3485398145917813 -16, 16.390625 -16 M-16.390625 -16 C-4.061011915828754 -16, 8.268601168342492 -16, 16.390625 -16 M16.390625 -16 C16.390625 -16, 16.390625 -16, 16.390625 -16 M16.390625 -16 C16.390625 -16, 16.390625 -16, 16.390625 -16 M16.390625 -16 C16.72765656859497 -15.989192053587312, 17.064688137189943 -15.978384107174621, 17.415748519691405 -15.967126284005381 M16.390625 -16 C16.652904395065743 -15.991589210296114, 16.915183790131486 -15.983178420592228, 17.415748519691405 -15.967126284005381 M17.415748519691405 -15.967126284005381 C17.664756793061013 -15.94310475534968, 17.913765066430624 -15.919083226693976, 18.436659586952093 -15.868640221171939 M17.415748519691405 -15.967126284005381 C17.769131487648583 -15.933035854091752, 18.12251445560576 -15.898945424178123, 18.436659586952093 -15.868640221171939 M18.436659586952093 -15.868640221171939 C18.776334632693274 -15.813724193995826, 19.116009678434455 -15.758808166819716, 19.449163059221956 -15.704946511857047 M18.436659586952093 -15.868640221171939 C18.693747843805514 -15.827076185553086, 18.950836100658936 -15.785512149934235, 19.449163059221956 -15.704946511857047 M19.449163059221956 -15.704946511857047 C19.67030612854581 -15.654472049377269, 19.89144919786967 -15.603997586897489, 20.449098342552116 -15.476717808624471 M19.449163059221956 -15.704946511857047 C19.66617428596243 -15.655415115484132, 19.8831855127029 -15.605883719111219, 20.449098342552116 -15.476717808624471 M20.449098342552116 -15.476717808624471 C20.817454527456295 -15.367391626485983, 21.18581071236047 -15.258065444347492, 21.43235648837793 -15.184891952170698 M20.449098342552116 -15.476717808624471 C20.81877187039264 -15.367000646017349, 21.188445398233167 -15.257283483410225, 21.43235648837793 -15.184891952170698 M21.43235648837793 -15.184891952170698 C21.7077067718896 -15.083560502528284, 21.983057055401275 -14.98222905288587, 22.394897078069985 -14.830668117536348 M21.43235648837793 -15.184891952170698 C21.656764452139953 -15.102307747101797, 21.88117241590198 -15.019723542032894, 22.394897078069985 -14.830668117536348 M22.394897078069985 -14.830668117536348 C22.74714420954225 -14.674738761473478, 23.09939134101451 -14.518809405410607, 23.33276482588093 -14.415501886438706 M22.394897078069985 -14.830668117536348 C22.739400373703067 -14.678166727886754, 23.08390366933615 -14.525665338237161, 23.33276482588093 -14.415501886438706 M23.33276482588093 -14.415501886438706 C23.68145514881994 -14.233590368308237, 24.03014547175895 -14.051678850177765, 24.242105832063 -13.941099265974232 M23.33276482588093 -14.415501886438706 C23.550974304814325 -14.301662141048995, 23.76918378374772 -14.187822395659284, 24.242105832063 -13.941099265974232 M24.242105832063 -13.941099265974232 C24.53213575534678 -13.76528142207459, 24.822165678630554 -13.58946357817495, 25.119183419368778 -13.409409678269451 M24.242105832063 -13.941099265974232 C24.48019933260462 -13.796765586753185, 24.718292833146243 -13.652431907532137, 25.119183419368778 -13.409409678269451 M25.119183419368778 -13.409409678269451 C25.319605771956496 -13.269603721248068, 25.520028124544215 -13.129797764226682, 25.960393487859456 -12.822617949887306 M25.119183419368778 -13.409409678269451 C25.29800485497501 -13.284671585845729, 25.47682629058124 -13.159933493422006, 25.960393487859456 -12.822617949887306 M25.960393487859456 -12.822617949887306 C26.250867062235198 -12.590973004149099, 26.541340636610936 -12.359328058410892, 26.762279324924613 -12.183135333906153 M25.960393487859456 -12.822617949887306 C26.21433309526908 -12.620107870594886, 26.468272702678703 -12.417597791302468, 26.762279324924613 -12.183135333906153 M26.762279324924613 -12.183135333906153 C27.025079271735102 -11.94446737551843, 27.28787921854559 -11.705799417130708, 27.521545809655784 -11.493589601563642 M26.762279324924613 -12.183135333906153 C26.975722240963023 -11.98929212495016, 27.189165157001433 -11.795448915994166, 27.521545809655784 -11.493589601563642 M27.521545809655784 -11.493589601563642 C27.690009233403135 -11.319637285440189, 27.858472657150486 -11.145684969316738, 28.235072953205048 -10.756814244181072 M27.521545809655784 -11.493589601563642 C27.740699705161873 -11.267295211584162, 27.959853600667962 -11.041000821604683, 28.235072953205048 -10.756814244181072 M28.235072953205048 -10.756814244181072 C28.417005312172616 -10.543106143093276, 28.59893767114018 -10.329398042005481, 28.89992871948848 -9.975836829739738 M28.235072953205048 -10.756814244181072 C28.42387690057513 -10.535034384351226, 28.61268084794521 -10.31325452452138, 28.89992871948848 -9.975836829739738 M28.89992871948848 -9.975836829739738 C29.03854660644159 -9.79010148957186, 29.1771644933947 -9.604366149403983, 29.51338107355129 -9.153866561954718 M28.89992871948848 -9.975836829739738 C29.030922446315284 -9.80031716956583, 29.161916173142092 -9.624797509391923, 29.51338107355129 -9.153866561954718 M29.51338107355129 -9.153866561954718 C29.706178412670734 -8.857678075732748, 29.89897575179018 -8.561489589510778, 30.072909208085537 -8.294281092968403 M29.51338107355129 -9.153866561954718 C29.668845489181315 -8.91503147150613, 29.824309904811336 -8.67619638105754, 30.072909208085537 -8.294281092968403 M30.072909208085537 -8.294281092968403 C30.26434104389513 -7.954374483913105, 30.455772879704725 -7.614467874857807, 30.576213901968003 -7.400612643853364 M30.072909208085537 -8.294281092968403 C30.25442332915486 -7.97198439071197, 30.435937450224184 -7.649687688455537, 30.576213901968003 -7.400612643853364 M30.576213901968003 -7.400612643853364 C30.700879517121336 -7.141741826570617, 30.825545132274666 -6.882871009287869, 31.021226968252996 -6.476533489958305 M30.576213901968003 -7.400612643853364 C30.720108547430563 -7.101812333698164, 30.864003192893126 -6.803012023542965, 31.021226968252996 -6.476533489958305 M31.021226968252996 -6.476533489958305 C31.16372983777425 -6.124548647135251, 31.306232707295507 -5.772563804312196, 31.406119752796165 -5.52584087074093 M31.021226968252996 -6.476533489958305 C31.1170519287579 -6.239843984861622, 31.2128768892628 -6.003154479764939, 31.406119752796165 -5.52584087074093 M31.406119752796165 -5.52584087074093 C31.52155942318401 -5.178154976346424, 31.636999093571855 -4.830469081951918, 31.72931064858657 -4.552441386096524 M31.406119752796165 -5.52584087074093 C31.47180692185216 -5.328001583373372, 31.537494090908158 -5.130162296005815, 31.72931064858657 -4.552441386096524 M31.72931064858657 -4.552441386096524 C31.81999058820378 -4.206639475401661, 31.91067052782099 -3.8608375647067987, 31.989471594909176 -3.560334943301032 M31.72931064858657 -4.552441386096524 C31.78364583176938 -4.3452377836031095, 31.83798101495219 -4.1380341811096955, 31.989471594909176 -3.560334943301032 M31.989471594909176 -3.560334943301032 C32.050351728109575 -3.2477283263376844, 32.11123186130998 -2.9351217093743367, 32.185533534631205 -2.5535983205340735 M31.989471594909176 -3.560334943301032 C32.05519323011266 -3.2228682368036896, 32.12091486531614 -2.885401530306347, 32.185533534631205 -2.5535983205340735 M32.185533534631205 -2.5535983205340735 C32.21240894951841 -2.3451579098198594, 32.23928436440561 -2.1367174991056452, 32.31669080718717 -1.536368414522911 M32.185533534631205 -2.5535983205340735 C32.21882585003738 -2.2953896965550187, 32.25211816544356 -2.0371810725759634, 32.31669080718717 -1.536368414522911 M32.31669080718717 -1.536368414522911 C32.34087492947235 -1.159681188859073, 32.36505905175753 -0.782993963195235, 32.382404459211 -0.5128252411464826 M32.31669080718717 -1.536368414522911 C32.33719344508613 -1.2170232798151557, 32.35769608298509 -0.8976781451074003, 32.382404459211 -0.5128252411464826 M32.382404459211 -0.5128252411464826 C32.382404459211 -0.24727818638450522, 32.382404459211 0.018268868377472214, 32.382404459211 0.5128252411464788 M32.382404459211 -0.5128252411464826 C32.382404459211 -0.29646687530342464, 32.382404459211 -0.08010850946036668, 32.382404459211 0.5128252411464788 M32.382404459211 0.5128252411464788 C32.36001543836566 0.8615523129051341, 32.337626417520305 1.2102793846637894, 32.31669080718717 1.5363684145229002 M32.382404459211 0.5128252411464788 C32.360143899529874 0.8595514265804584, 32.337883339848744 1.2062776120144378, 32.31669080718717 1.5363684145229002 M32.31669080718717 1.5363684145229002 C32.27612696251669 1.8509735835500132, 32.23556311784621 2.165578752577126, 32.185533534631205 2.5535983205340624 M32.31669080718717 1.5363684145229002 C32.28818162626444 1.7574799919850883, 32.25967244534171 1.9785915694472767, 32.185533534631205 2.5535983205340624 M32.185533534631205 2.5535983205340624 C32.13582877660213 2.808821747909015, 32.08612401857306 3.064045175283968, 31.989471594909176 3.5603349433010285 M32.185533534631205 2.5535983205340624 C32.11710969203518 2.9049402908804063, 32.048685849439146 3.25628226122675, 31.989471594909176 3.5603349433010285 M31.989471594909176 3.5603349433010285 C31.919797336253577 3.8260330885695435, 31.850123077597978 4.0917312338380585, 31.72931064858657 4.552441386096513 M31.989471594909176 3.5603349433010285 C31.90860381600309 3.868718832587022, 31.827736037097 4.177102721873015, 31.72931064858657 4.552441386096513 M31.72931064858657 4.552441386096513 C31.644498350845193 4.807882513888997, 31.559686053103817 5.063323641681482, 31.406119752796165 5.525840870740919 M31.72931064858657 4.552441386096513 C31.606478459731562 4.922392368276247, 31.483646270876555 5.292343350455981, 31.406119752796165 5.525840870740919 M31.406119752796165 5.525840870740919 C31.320282848833624 5.737859683072034, 31.234445944871087 5.94987849540315, 31.021226968253 6.4765334899583005 M31.406119752796165 5.525840870740919 C31.278456853457957 5.841170700300547, 31.150793954119745 6.156500529860176, 31.021226968253 6.4765334899583005 M31.021226968253 6.4765334899583005 C30.910370983067782 6.706728315133512, 30.799514997882564 6.936923140308724, 30.576213901968003 7.400612643853361 M31.021226968253 6.4765334899583005 C30.87461413427261 6.780978176730694, 30.728001300292213 7.085422863503087, 30.576213901968003 7.400612643853361 M30.576213901968003 7.400612643853361 C30.446164443138553 7.631528626940746, 30.316114984309102 7.862444610028132, 30.07290920808554 8.294281092968399 M30.576213901968003 7.400612643853361 C30.398333391565195 7.716457502428417, 30.220452881162387 8.032302361003474, 30.07290920808554 8.294281092968399 M30.07290920808554 8.294281092968399 C29.859868553973566 8.621568747110093, 29.646827899861595 8.948856401251788, 29.513381073551297 9.15386656195471 M30.07290920808554 8.294281092968399 C29.904904550068487 8.552381363250044, 29.736899892051436 8.810481633531689, 29.513381073551297 9.15386656195471 M29.513381073551297 9.15386656195471 C29.378315748908037 9.334841792272474, 29.243250424264772 9.515817022590237, 28.89992871948848 9.975836829739734 M29.513381073551297 9.15386656195471 C29.329444778114656 9.40032444089857, 29.145508482678018 9.64678231984243, 28.89992871948848 9.975836829739734 M28.89992871948848 9.975836829739734 C28.711158166461775 10.197577462673658, 28.522387613435072 10.419318095607581, 28.235072953205055 10.756814244181063 M28.89992871948848 9.975836829739734 C28.731371302838824 10.173833962525132, 28.562813886189172 10.37183109531053, 28.235072953205055 10.756814244181063 M28.235072953205055 10.756814244181063 C27.954825124549192 11.046193136042877, 27.674577295893332 11.335572027904691, 27.521545809655784 11.493589601563638 M28.235072953205055 10.756814244181063 C28.06450799661371 10.932936565504995, 27.893943040022364 11.109058886828928, 27.521545809655784 11.493589601563638 M27.521545809655784 11.493589601563638 C27.313035837564616 11.682952841345292, 27.104525865473448 11.872316081126947, 26.762279324924627 12.183135333906142 M27.521545809655784 11.493589601563638 C27.290591351333436 11.703336329891886, 27.05963689301109 11.913083058220135, 26.762279324924627 12.183135333906142 M26.762279324924627 12.183135333906142 C26.55079821317152 12.35178589278051, 26.339317101418416 12.520436451654877, 25.96039348785946 12.822617949887304 M26.762279324924627 12.183135333906142 C26.515485544397226 12.37994680641843, 26.26869176386982 12.576758278930717, 25.96039348785946 12.822617949887304 M25.96039348785946 12.822617949887304 C25.69845622559058 13.005334044964746, 25.4365189633217 13.188050140042186, 25.119183419368788 13.409409678269446 M25.96039348785946 12.822617949887304 C25.68056239289801 13.017816008039548, 25.400731297936563 13.213014066191793, 25.119183419368788 13.409409678269446 M25.119183419368788 13.409409678269446 C24.824709107614765 13.587921736577876, 24.530234795860743 13.766433794886305, 24.242105832063004 13.94109926597423 M25.119183419368788 13.409409678269446 C24.849586637734777 13.57284083162253, 24.579989856100767 13.736271984975613, 24.242105832063004 13.94109926597423 M24.242105832063004 13.94109926597423 C23.987005551080525 14.074184919163262, 23.731905270098043 14.207270572352293, 23.332764825880933 14.415501886438705 M24.242105832063004 13.94109926597423 C23.95581953643166 14.090454643029979, 23.669533240800316 14.239810020085727, 23.332764825880933 14.415501886438705 M23.332764825880933 14.415501886438705 C23.055796997606528 14.538107328057071, 22.778829169332123 14.660712769675438, 22.39489707806999 14.830668117536346 M23.332764825880933 14.415501886438705 C23.027800231339004 14.550500665989139, 22.72283563679708 14.685499445539575, 22.39489707806999 14.830668117536346 M22.39489707806999 14.830668117536346 C22.077563165978376 14.947449930588588, 21.76022925388676 15.064231743640828, 21.43235648837794 15.184891952170695 M22.39489707806999 14.830668117536346 C22.11148213760334 14.934967435487064, 21.82806719713669 15.039266753437783, 21.43235648837794 15.184891952170695 M21.43235648837794 15.184891952170695 C21.08925839563379 15.28672166513852, 20.74616030288964 15.388551378106344, 20.449098342552134 15.476717808624468 M21.43235648837794 15.184891952170695 C21.057738105742963 15.29607672172474, 20.683119723107982 15.407261491278785, 20.449098342552134 15.476717808624468 M20.449098342552134 15.476717808624468 C20.068291972280377 15.563634377645196, 19.68748560200862 15.650550946665923, 19.449163059221963 15.704946511857045 M20.449098342552134 15.476717808624468 C20.16367611831843 15.541863568751733, 19.878253894084725 15.607009328878998, 19.449163059221963 15.704946511857045 M19.449163059221963 15.704946511857045 C19.085894912008705 15.763676888711927, 18.72262676479545 15.822407265566811, 18.436659586952103 15.868640221171937 M19.449163059221963 15.704946511857045 C19.12068520474724 15.758052263984712, 18.792207350272513 15.811158016112378, 18.436659586952103 15.868640221171937 M18.436659586952103 15.868640221171937 C18.21572518613652 15.889953497106124, 17.994790785320937 15.911266773040312, 17.415748519691405 15.967126284005381 M18.436659586952103 15.868640221171937 C18.179151129477383 15.893481752365293, 17.921642672002662 15.918323283558648, 17.415748519691405 15.967126284005381 M17.415748519691405 15.967126284005381 C17.156585201774305 15.975437147180186, 16.897421883857206 15.983748010354992, 16.390625000000004 16 M17.415748519691405 15.967126284005381 C17.08753601820322 15.977651420101228, 16.759323516715035 15.988176556197075, 16.390625000000004 16 M16.390625000000004 16 C16.390625000000004 16, 16.390625 16, 16.390625 16 M16.390625000000004 16 C16.390625000000004 16, 16.390625 16, 16.390625 16 M16.390625 16 C4.800874651374336 16, -6.788875697251328 16, -16.390624999999996 16 M16.390625 16 C5.32155642108042 16, -5.747512157839161 16, -16.390624999999996 16 M-16.390624999999996 16 C-16.75578034146534 15.988290178930962, -17.120935682930686 15.976580357861922, -17.415748519691398 15.967126284005381 M-16.390624999999996 16 C-16.694587362177366 15.990252518671818, -16.99854972435474 15.980505037343637, -17.415748519691398 15.967126284005381 M-17.415748519691398 15.967126284005381 C-17.70585700448986 15.939139867383373, -17.995965489288324 15.911153450761365, -18.4366595869521 15.868640221171937 M-17.415748519691398 15.967126284005381 C-17.711872342183007 15.938559574990618, -18.00799616467462 15.909992865975854, -18.4366595869521 15.868640221171937 M-18.4366595869521 15.868640221171937 C-18.758753508960016 15.816566573737369, -19.080847430967935 15.764492926302799, -19.449163059221956 15.704946511857045 M-18.4366595869521 15.868640221171937 C-18.685166413974393 15.828463564578199, -18.933673240996683 15.788286907984462, -19.449163059221956 15.704946511857045 M-19.449163059221956 15.704946511857045 C-19.809831017970666 15.622626403851037, -20.170498976719376 15.540306295845028, -20.449098342552112 15.476717808624471 M-19.449163059221956 15.704946511857045 C-19.75342389675757 15.635500961177058, -20.05768473429319 15.566055410497073, -20.449098342552112 15.476717808624471 M-20.449098342552112 15.476717808624471 C-20.750770683853283 15.387183041236717, -21.052443025154453 15.297648273848964, -21.432356488377923 15.184891952170702 M-20.449098342552112 15.476717808624471 C-20.677917195578644 15.408805574140867, -20.906736048605172 15.340893339657264, -21.432356488377923 15.184891952170702 M-21.432356488377923 15.184891952170702 C-21.671165276821522 15.097008110499218, -21.909974065265118 15.009124268827732, -22.394897078069988 14.830668117536348 M-21.432356488377923 15.184891952170702 C-21.808079970541215 15.046622237584815, -22.183803452704506 14.908352522998927, -22.394897078069988 14.830668117536348 M-22.394897078069988 14.830668117536348 C-22.728170109755283 14.683138032602496, -23.061443141440574 14.535607947668646, -23.33276482588093 14.415501886438708 M-22.394897078069988 14.830668117536348 C-22.676561087134708 14.705983815989363, -22.958225096199424 14.581299514442378, -23.33276482588093 14.415501886438708 M-23.33276482588093 14.415501886438708 C-23.591997919199446 14.280260147701158, -23.85123101251796 14.14501840896361, -24.242105832063 13.941099265974234 M-23.33276482588093 14.415501886438708 C-23.5284526159719 14.313411691692261, -23.72414040606287 14.211321496945812, -24.242105832063 13.941099265974234 M-24.242105832063 13.941099265974234 C-24.591586236922453 13.729242190773608, -24.94106664178191 13.517385115572981, -25.119183419368767 13.409409678269457 M-24.242105832063 13.941099265974234 C-24.418671492647064 13.834064124913178, -24.595237153231132 13.727028983852122, -25.119183419368767 13.409409678269457 M-25.119183419368767 13.409409678269457 C-25.324574956231938 13.266137433410039, -25.529966493095106 13.122865188550621, -25.960393487859456 12.822617949887308 M-25.119183419368767 13.409409678269457 C-25.321180741867046 13.268505090417817, -25.52317806436532 13.127600502566176, -25.960393487859456 12.822617949887308 M-25.960393487859456 12.822617949887308 C-26.173315940232296 12.652817960224386, -26.38623839260514 12.483017970561463, -26.762279324924613 12.183135333906154 M-25.960393487859456 12.822617949887308 C-26.139738130735807 12.6795953697548, -26.319082773612156 12.536572789622292, -26.762279324924613 12.183135333906154 M-26.762279324924613 12.183135333906154 C-26.989891360889658 11.97642410512716, -27.217503396854703 11.769712876348166, -27.521545809655777 11.493589601563649 M-26.762279324924613 12.183135333906154 C-27.035064484813468 11.93539906919492, -27.30784964470232 11.687662804483688, -27.521545809655777 11.493589601563649 M-27.521545809655777 11.493589601563649 C-27.79443248898069 11.211811700747637, -28.067319168305605 10.930033799931625, -28.235072953205048 10.756814244181069 M-27.521545809655777 11.493589601563649 C-27.73343883698048 11.274792654109815, -27.945331864305178 11.055995706655983, -28.235072953205048 10.756814244181069 M-28.235072953205048 10.756814244181069 C-28.420864804482118 10.538572563815197, -28.60665665575919 10.320330883449326, -28.899928719488475 9.97583682973974 M-28.235072953205048 10.756814244181069 C-28.49237363798244 10.454574219017823, -28.749674322759834 10.15233419385458, -28.899928719488475 9.97583682973974 M-28.899928719488475 9.97583682973974 C-29.026020354770957 9.806885525645502, -29.152111990053438 9.637934221551264, -29.51338107355129 9.15386656195472 M-28.899928719488475 9.97583682973974 C-29.069120904187965 9.74913471596754, -29.238313088887455 9.52243260219534, -29.51338107355129 9.15386656195472 M-29.51338107355129 9.15386656195472 C-29.68713292876894 8.886937053434423, -29.860884783986588 8.620007544914124, -30.072909208085534 8.29428109296841 M-29.51338107355129 9.15386656195472 C-29.733395953894963 8.81586462347917, -29.953410834238635 8.477862685003622, -30.072909208085534 8.29428109296841 M-30.072909208085534 8.29428109296841 C-30.226177535584036 8.022137657393717, -30.379445863082537 7.749994221819025, -30.576213901968 7.400612643853366 M-30.072909208085534 8.29428109296841 C-30.210693923859466 8.049630377896392, -30.3484786396334 7.804979662824375, -30.576213901968 7.400612643853366 M-30.576213901968 7.400612643853366 C-30.710990069568567 7.120747048082767, -30.845766237169137 6.840881452312168, -31.021226968252996 6.476533489958307 M-30.576213901968 7.400612643853366 C-30.7003767681496 7.142785795567526, -30.8245396343312 6.884958947281685, -31.021226968252996 6.476533489958307 M-31.021226968252996 6.476533489958307 C-31.14431426598106 6.172505484838987, -31.267401563709118 5.868477479719667, -31.406119752796165 5.525840870740931 M-31.021226968252996 6.476533489958307 C-31.130411206049246 6.206846311667938, -31.2395954438455 5.93715913337757, -31.406119752796165 5.525840870740931 M-31.406119752796165 5.525840870740931 C-31.527279218957528 5.160927862802279, -31.648438685118894 4.7960148548636266, -31.72931064858657 4.552441386096519 M-31.406119752796165 5.525840870740931 C-31.507705357331442 5.21988121534873, -31.60929096186672 4.9139215599565285, -31.72931064858657 4.552441386096519 M-31.72931064858657 4.552441386096519 C-31.810303750217983 4.243579586943646, -31.891296851849397 3.9347177877907726, -31.989471594909176 3.5603349433010343 M-31.72931064858657 4.552441386096519 C-31.809225133427336 4.2476928202418485, -31.889139618268107 3.9429442543871778, -31.989471594909176 3.5603349433010343 M-31.989471594909176 3.5603349433010343 C-32.04922819592864 3.2534974266281793, -32.10898479694811 2.946659909955325, -32.185533534631205 2.5535983205340753 M-31.989471594909176 3.5603349433010343 C-32.02972218575913 3.3536566662519176, -32.069972776609085 3.1469783892028014, -32.185533534631205 2.5535983205340753 M-32.185533534631205 2.5535983205340753 C-32.23362017392232 2.180647841973149, -32.28170681321343 1.8076973634122222, -32.31669080718717 1.5363684145229202 M-32.185533534631205 2.5535983205340753 C-32.21453108021557 2.3286990831947545, -32.24352862579995 2.1037998458554332, -32.31669080718717 1.5363684145229202 M-32.31669080718717 1.5363684145229202 C-32.34151518967179 1.1497086194440622, -32.36633957215641 0.763048824365204, -32.382404459211 0.5128252411464846 M-32.31669080718717 1.5363684145229202 C-32.3381919726024 1.2014704077523204, -32.35969313801763 0.8665724009817207, -32.382404459211 0.5128252411464846 M-32.382404459211 0.5128252411464846 C-32.382404459211 0.23021434339287578, -32.382404459211 -0.052396554360733094, -32.382404459211 -0.5128252411464769 M-32.382404459211 0.5128252411464846 C-32.382404459211 0.2603495803683548, -32.382404459211 0.007873919590224987, -32.382404459211 -0.5128252411464769 M-32.382404459211 -0.5128252411464769 C-32.361548937410014 -0.8376668274710525, -32.34069341560903 -1.162508413795628, -32.31669080718717 -1.5363684145228982 M-32.382404459211 -0.5128252411464769 C-32.366738544578034 -0.7568345068536396, -32.35107262994507 -1.0008437725608024, -32.31669080718717 -1.5363684145228982 M-32.31669080718717 -1.5363684145228982 C-32.2815034817723 -1.8092743619173284, -32.24631615635742 -2.0821803093117586, -32.185533534631205 -2.5535983205340678 M-32.31669080718717 -1.5363684145228982 C-32.278029332796194 -1.8362191753277102, -32.23936785840521 -2.136069936132522, -32.185533534631205 -2.5535983205340678 M-32.185533534631205 -2.5535983205340678 C-32.11462526744514 -2.917697286066907, -32.04371700025908 -3.2817962515997463, -31.989471594909176 -3.5603349433010267 M-32.185533534631205 -2.5535983205340678 C-32.1428104838919 -2.772972156560418, -32.100087433152595 -2.992345992586769, -31.989471594909176 -3.5603349433010267 M-31.989471594909176 -3.5603349433010267 C-31.919889187781912 -3.825682818883306, -31.850306780654645 -4.091030694465585, -31.729310648586573 -4.552441386096511 M-31.989471594909176 -3.5603349433010267 C-31.88834889006324 -3.9459596437360944, -31.787226185217307 -4.331584344171162, -31.729310648586573 -4.552441386096511 M-31.729310648586573 -4.552441386096511 C-31.62655892402112 -4.861913209223611, -31.523807199455664 -5.171385032350711, -31.406119752796172 -5.525840870740911 M-31.729310648586573 -4.552441386096511 C-31.642832081485842 -4.812901051715398, -31.556353514385115 -5.073360717334285, -31.406119752796172 -5.525840870740911 M-31.406119752796172 -5.525840870740911 C-31.264831176750814 -5.874826385201727, -31.12354260070546 -6.223811899662544, -31.021226968253 -6.476533489958299 M-31.406119752796172 -5.525840870740911 C-31.328524867919985 -5.71750173658014, -31.250929983043793 -5.909162602419369, -31.021226968253 -6.476533489958299 M-31.021226968253 -6.476533489958299 C-30.877305653028202 -6.775389180445421, -30.733384337803408 -7.074244870932543, -30.576213901968003 -7.400612643853359 M-31.021226968253 -6.476533489958299 C-30.882529286807166 -6.7645421931355445, -30.743831605361336 -7.052550896312789, -30.576213901968003 -7.400612643853359 M-30.576213901968003 -7.400612643853359 C-30.44757151517161 -7.629030228064561, -30.318929128375213 -7.857447812275763, -30.072909208085537 -8.294281092968404 M-30.576213901968003 -7.400612643853359 C-30.416445545145898 -7.68429753969145, -30.256677188323795 -7.96798243552954, -30.072909208085537 -8.294281092968404 M-30.072909208085537 -8.294281092968404 C-29.865495816507302 -8.61292376072671, -29.658082424929063 -8.931566428485016, -29.513381073551294 -9.153866561954715 M-30.072909208085537 -8.294281092968404 C-29.9598461624496 -8.46797629274399, -29.84678311681367 -8.641671492519574, -29.513381073551294 -9.153866561954715 M-29.513381073551294 -9.153866561954715 C-29.275420510851124 -9.47271203731971, -29.037459948150953 -9.791557512684703, -28.89992871948848 -9.975836829739734 M-29.513381073551294 -9.153866561954715 C-29.324516239974937 -9.406928233006735, -29.13565140639858 -9.659989904058754, -28.89992871948848 -9.975836829739734 M-28.89992871948848 -9.975836829739734 C-28.759322202357417 -10.141001245499353, -28.61871568522636 -10.306165661258973, -28.235072953205055 -10.756814244181063 M-28.89992871948848 -9.975836829739734 C-28.726309577863532 -10.179779752701421, -28.552690436238585 -10.383722675663108, -28.235072953205055 -10.756814244181063 M-28.235072953205055 -10.756814244181063 C-27.976687685887644 -11.023618246511262, -27.71830241857023 -11.29042224884146, -27.52154580965579 -11.493589601563633 M-28.235072953205055 -10.756814244181063 C-27.96009408560347 -11.04075250116459, -27.685115218001883 -11.324690758148115, -27.52154580965579 -11.493589601563633 M-27.52154580965579 -11.493589601563633 C-27.255735518435802 -11.734991475094715, -26.989925227215817 -11.976393348625795, -26.762279324924627 -12.18313533390614 M-27.52154580965579 -11.493589601563633 C-27.27148982696982 -11.720683828920283, -27.021433844283848 -11.947778056276933, -26.762279324924627 -12.18313533390614 M-26.762279324924627 -12.18313533390614 C-26.537745889012854 -12.36219477396011, -26.313212453101084 -12.541254214014083, -25.960393487859463 -12.822617949887302 M-26.762279324924627 -12.18313533390614 C-26.53251863370885 -12.366363370961949, -26.302757942493077 -12.549591408017758, -25.960393487859463 -12.822617949887302 M-25.960393487859463 -12.822617949887302 C-25.73890505382901 -12.977118693387167, -25.517416619798563 -13.131619436887034, -25.119183419368788 -13.409409678269444 M-25.960393487859463 -12.822617949887302 C-25.723193468021737 -12.988078415502736, -25.485993448184008 -13.15353888111817, -25.119183419368788 -13.409409678269444 M-25.119183419368788 -13.409409678269444 C-24.86370712470852 -13.564280909437855, -24.60823083004825 -13.719152140606264, -24.242105832063007 -13.941099265974229 M-25.119183419368788 -13.409409678269444 C-24.876928376398748 -13.556266108966538, -24.634673333428708 -13.70312253966363, -24.242105832063007 -13.941099265974229 M-24.242105832063007 -13.941099265974229 C-23.917046368711425 -14.110682579794226, -23.591986905359846 -14.280265893614224, -23.332764825880936 -14.415501886438705 M-24.242105832063007 -13.941099265974229 C-23.930958100908036 -14.103424838018144, -23.619810369753065 -14.26575041006206, -23.332764825880936 -14.415501886438705 M-23.332764825880936 -14.415501886438705 C-23.11814512734754 -14.510507660512284, -22.90352542881414 -14.605513434585863, -22.394897078069995 -14.830668117536344 M-23.332764825880936 -14.415501886438705 C-22.999397114050023 -14.563073883464435, -22.66602940221911 -14.710645880490166, -22.394897078069995 -14.830668117536344 M-22.394897078069995 -14.830668117536344 C-22.18546458906215 -14.907741209463937, -21.976032100054308 -14.98481430139153, -21.43235648837794 -15.184891952170695 M-22.394897078069995 -14.830668117536344 C-22.146809380004186 -14.921966683722104, -21.898721681938373 -15.013265249907864, -21.43235648837794 -15.184891952170695 M-21.43235648837794 -15.184891952170695 C-21.123508444439626 -15.276556430435122, -20.814660400501307 -15.36822090869955, -20.449098342552134 -15.476717808624466 M-21.43235648837794 -15.184891952170695 C-21.15587291103432 -15.26695082663437, -20.879389333690696 -15.349009701098042, -20.449098342552134 -15.476717808624466 M-20.449098342552134 -15.476717808624466 C-20.17003364506802 -15.540412504757876, -19.890968947583904 -15.604107200891287, -19.449163059221963 -15.704946511857043 M-20.449098342552134 -15.476717808624466 C-20.08958303221652 -15.558774832151919, -19.730067721880907 -15.640831855679373, -19.449163059221963 -15.704946511857043 M-19.449163059221963 -15.704946511857043 C-19.24579056801271 -15.737826199058532, -19.042418076803457 -15.77070588626002, -18.436659586952107 -15.868640221171937 M-19.449163059221963 -15.704946511857043 C-19.096584363507592 -15.761948701091521, -18.744005667793218 -15.818950890326, -18.436659586952107 -15.868640221171937 M-18.436659586952107 -15.868640221171937 C-18.2032259804791 -15.891159280443402, -17.96979237400609 -15.913678339714867, -17.41574851969141 -15.967126284005381 M-18.436659586952107 -15.868640221171937 C-18.160408809376843 -15.895289801444454, -17.88415803180158 -15.921939381716971, -17.41574851969141 -15.967126284005381 M-17.41574851969141 -15.967126284005381 C-17.148894832009734 -15.97568376237014, -16.882041144328063 -15.984241240734898, -16.390625000000004 -16 M-17.41574851969141 -15.967126284005381 C-17.03796158357093 -15.979241175729102, -16.660174647450447 -15.991356067452825, -16.390625000000004 -16 M-16.390625000000004 -16 C-16.390625000000004 -16, -16.390625 -16, -16.390625 -16 M-16.390625000000004 -16 C-16.390625000000004 -16, -16.390625000000004 -16, -16.390625 -16" stroke="#9370DB" stroke-width="1.3" fill="none" stroke-dasharray="0 0" style=""/></g><g class="label" style="" transform="translate(0, -8.5)"><rect/><g><rect class="background" style="stroke: none"/><text y="-10.1" style=""><tspan class="text-outer-tspan row" x="0" y="-0.1em" dy="1.1em"><tspan font-style="normal" class="text-inner-tspan" font-weight="normal">HTTP</tspan></tspan></text></g></g></g><g class="node default" id="flowchart-DPC-8" transform="translate(534.4054336547852, 220.54999923706055)"><rect class="basic label-container" style="" x="-85.41015625" y="-32.29999923706055" width="170.8203125" height="64.5999984741211"/><g class="label" style="" transform="translate(0, -17.299999237060547)"><rect/><g><rect class="background" style="stroke: none"/><text y="-10.1" style=""><tspan class="text-outer-tspan row" x="0" y="-0.1em" dy="1.1em"><tspan font-style="normal" class="text-inner-tspan" font-weight="normal">DP</tspan><tspan font-style="normal" class="text-inner-tspan" font-weight="normal"> Coordinator</tspan></tspan><tspan class="text-outer-tspan row" x="0" y="1em" dy="1.1em"><tspan font-style="normal" class="text-inner-tspan" font-weight="normal">Load</tspan><tspan font-style="normal" class="text-inner-tspan" font-weight="normal"> Balancing</tspan></tspan></text></g></g></g><g class="node default" id="flowchart-EC0-11" transform="translate(1166.7921524047852, 364.5999946594238)"><rect class="basic label-container" style="" x="-81.19921875" y="-23.5" width="162.3984375" height="47"/><g class="label" style="" transform="translate(0, -8.5)"><rect/><g><rect class="background" style="stroke: none"/><text y="-10.1" style=""><tspan class="text-outer-tspan row" x="0" y="-0.1em" dy="1.1em"><tspan font-style="normal" class="text-inner-tspan" font-weight="normal">Engine</tspan><tspan font-style="normal" class="text-inner-tspan" font-weight="normal"> Core</tspan><tspan font-style="normal" class="text-inner-tspan" font-weight="normal"> 0</tspan></tspan></text></g></g></g><g class="node default" id="flowchart-EC1-12" transform="translate(1166.7921524047852, 554.1999855041504)"><rect class="basic label-container" style="" x="-81.19921875" y="-23.5" width="162.3984375" height="47"/><g class="label" style="" transform="translate(0, -8.5)"><rect/><g><rect class="background" style="stroke: none"/><text y="-10.1" style=""><tspan class="text-outer-tspan row" x="0" y="-0.1em" dy="1.1em"><tspan font-style="normal" class="text-inner-tspan" font-weight="normal">Engine</tspan><tspan font-style="normal" class="text-inner-tspan" font-weight="normal"> Core</tspan><tspan font-style="normal" class="text-inner-tspan" font-weight="normal"> 1</tspan></tspan></text></g></g></g><g class="node default" id="flowchart-EC2-13" transform="translate(1166.7921524047852, 743.799976348877)"><rect class="basic label-container" style="" x="-81.19921875" y="-23.5" width="162.3984375" height="47"/><g class="label" style="" transform="translate(0, -8.5)"><rect/><g><rect class="background" style="stroke: none"/><text y="-10.1" style=""><tspan class="text-outer-tspan row" x="0" y="-0.1em" dy="1.1em"><tspan font-style="normal" class="text-inner-tspan" font-weight="normal">Engine</tspan><tspan font-style="normal" class="text-inner-tspan" font-weight="normal"> Core</tspan><tspan font-style="normal" class="text-inner-tspan" font-weight="normal"> 2</tspan></tspan></text></g></g></g><g class="node default" id="flowchart-EC3-14" transform="translate(1166.7921524047852, 148.89999961853027)"><rect class="basic label-container" style="" x="-81.19921875" y="-23.5" width="162.3984375" height="47"/><g class="label" style="" transform="translate(0, -8.5)"><rect/><g><rect class="background" style="stroke: none"/><text y="-10.1" style=""><tspan class="text-outer-tspan row" x="0" y="-0.1em" dy="1.1em"><tspan font-style="normal" class="text-inner-tspan" font-weight="normal">Engine</tspan><tspan font-style="normal" class="text-inner-tspan" font-weight="normal"> Core</tspan><tspan font-style="normal" class="text-inner-tspan" font-weight="normal"> 3</tspan></tspan></text></g></g></g></g></g></g><style>/*
 * Red Hat Technical Diagram Styles for Mermaid SVG
 *
 * Based on:
 *   - CCS "Working with technical diagrams" guidelines
 *   - Red Hat Design System tokens (@rhds/tokens v3.0.2)
 *
 * Usage: mmdc -i input.mmd -o output.svg -C rh-diagrams.css -c mermaid-config.json -I rh-diagram-svg
 *
 * Note: All selectors use #rh-diagram-svg prefix to override mermaid's
 * built-in ID-scoped styles which have higher specificity than
 * class-only selectors. Pass -I rh-diagram-svg to mmdc to set the SVG ID.
 */

/* ============================================================
 * TYPOGRAPHY
 * Red Hat Display for labels/headings, Red Hat Text for body
 * ============================================================ */

/* Color tokens for use in .mmd style statements */
#rh-diagram-svg {
  --rh-blue-fill: #e0f0ff;    /* blue-10 */
  --rh-blue-stroke: #0066cc;  /* blue-50 */
  --rh-green-fill: #e9f7df;   /* green-10 */
  --rh-green-stroke: #63993d; /* green-50 */
  --rh-gray-fill: #f2f2f2;    /* gray-10 */
  --rh-gray-stroke: #c7c7c7;  /* gray-30 */
}

/* Base SVG font */
#rh-diagram-svg {
  font-family: "Red Hat Text", RedHatText, Helvetica, Arial, sans-serif;
  font-size: 14px;
  fill: #151515; /* --rh-color-text-primary-on-light */
}

/* Node labels */
#rh-diagram-svg .nodeLabel,
#rh-diagram-svg .node .label text,
#rh-diagram-svg .node text {
  font-family: "Red Hat Display", RedHatDisplay, Helvetica, Arial, sans-serif;
  font-size: 14px;
  font-weight: 500;
  fill: #151515; /* --rh-color-text-primary-on-light */
}

/* Edge labels */
#rh-diagram-svg .edgeLabel,
#rh-diagram-svg .edgeLabel text,
#rh-diagram-svg .edgeLabel tspan {
  font-family: "Red Hat Text", RedHatText, Helvetica, Arial, sans-serif;
  font-size: 12px;
  font-weight: 400;
  fill: #4d4d4d; /* --rh-color-text-secondary-on-light */
}

/* Edge label background */
#rh-diagram-svg .edgeLabel rect.background,
#rh-diagram-svg .edgeLabel .background {
  fill: #ffffff; /* --rh-color-surface-lightest */
  opacity: 0.9;
}

/* Cluster/subgraph labels */
#rh-diagram-svg .cluster-label text,
#rh-diagram-svg .cluster-label tspan {
  font-family: "Red Hat Display", RedHatDisplay, Helvetica, Arial, sans-serif;
  font-size: 14px;
  font-weight: 500;
  fill: #151515; /* --rh-color-text-primary-on-light */
}

/* Title text */
#rh-diagram-svg .flowchartTitleText {
  font-family: "Red Hat Display", RedHatDisplay, Helvetica, Arial, sans-serif;
  font-size: 20px;
  font-weight: 700;
  fill: #151515; /* --rh-color-text-primary-on-light */
}

/* Generic label styling */
#rh-diagram-svg .label {
  font-family: "Red Hat Text", RedHatText, Helvetica, Arial, sans-serif;
  color: #151515;
}

#rh-diagram-svg .label text,
#rh-diagram-svg span {
  fill: #151515; /* --rh-color-text-primary-on-light */
  color: #151515;
}

/* ============================================================
 * NODES — Primary style
 * Light blue fill, RH blue border
 * ============================================================ */

#rh-diagram-svg .node rect,
#rh-diagram-svg .node circle,
#rh-diagram-svg .node ellipse,
#rh-diagram-svg .node polygon,
#rh-diagram-svg .node path {
  fill: #e0f0ff; /* --rh-color-blue-10 */
  stroke: #0066cc; /* --rh-color-blue-50 */
  stroke-width: 1px; /* --rh-border-width-sm */
}

/* ============================================================
 * EDGES — Lines &amp; arrows
 * Gray-60 for connectors, 2px stroke
 * ============================================================ */

#rh-diagram-svg .edgePath .path,
#rh-diagram-svg .flowchart-link {
  stroke: #4d4d4d; /* --rh-color-gray-60 */
  stroke-width: 2px; /* --rh-border-width-md */
}

#rh-diagram-svg .edge-pattern-dotted {
  stroke-dasharray: 3;
}

#rh-diagram-svg .edge-pattern-dashed {
  stroke-dasharray: 6;
}

/* Arrow markers */
#rh-diagram-svg .marker {
  fill: #4d4d4d; /* --rh-color-gray-60 */
  stroke: #4d4d4d;
}

#rh-diagram-svg .marker.cross {
  stroke: #4d4d4d;
}

#rh-diagram-svg .arrowheadPath {
  fill: #4d4d4d;
}

#rh-diagram-svg .arrowMarkerPath {
  fill: #4d4d4d;
  stroke: #4d4d4d;
}

/* ============================================================
 * GROUPINGS — Cluster/subgraph containers
 * Subtle gray background, light border
 * ============================================================ */

#rh-diagram-svg .cluster rect {
  fill: #f2f2f2; /* --rh-color-gray-10 */
  stroke: #c7c7c7; /* --rh-color-gray-30 */
  stroke-width: 1px;
}


#rh-diagram-svg .cluster text {
  fill: #151515;
}

#rh-diagram-svg .cluster span {
  color: #151515;
}

/* ============================================================
 * STATUS / SEMANTIC NODE VARIANTS
 * Apply via classDef in .mmd files:
 *
 *   classDef success fill:#e9f7df,stroke:#3d7317,color:#204d00
 *   classDef danger fill:#ffe3d9,stroke:#b1380b,color:#731f00
 *   classDef warning fill:#fff4cc,stroke:#dca614,color:#73480b
 *   classDef info fill:#ece6ff,stroke:#5e40be,color:#21134d
 *   classDef neutral fill:#f2f2f2,stroke:#4d4d4d,color:#151515
 *   classDef brand fill:#fce3e3,stroke:#ee0000,color:#5f0000
 * ============================================================ */

/* Success */
#rh-diagram-svg .node.success rect,
#rh-diagram-svg .node.success polygon {
  fill: #e9f7df; /* --rh-color-green-10 */
  stroke: #3d7317; /* --rh-color-green-60 */
}
#rh-diagram-svg .node.success .nodeLabel { fill: #204d00; }

/* Danger */
#rh-diagram-svg .node.danger rect,
#rh-diagram-svg .node.danger polygon {
  fill: #ffe3d9; /* --rh-color-red-orange-10 */
  stroke: #b1380b; /* --rh-color-red-orange-60 */
}
#rh-diagram-svg .node.danger .nodeLabel { fill: #731f00; }

/* Warning */
#rh-diagram-svg .node.warning rect,
#rh-diagram-svg .node.warning polygon {
  fill: #fff4cc; /* --rh-color-yellow-10 */
  stroke: #dca614; /* --rh-color-yellow-40 */
}
#rh-diagram-svg .node.warning .nodeLabel { fill: #73480b; }

/* Info */
#rh-diagram-svg .node.info rect,
#rh-diagram-svg .node.info polygon {
  fill: #ece6ff; /* --rh-color-purple-10 */
  stroke: #5e40be; /* --rh-color-purple-50 */
}
#rh-diagram-svg .node.info .nodeLabel { fill: #21134d; }

/* Neutral */
#rh-diagram-svg .node.neutral rect,
#rh-diagram-svg .node.neutral polygon {
  fill: #f2f2f2; /* --rh-color-gray-10 */
  stroke: #4d4d4d; /* --rh-color-gray-60 */
}
#rh-diagram-svg .node.neutral .nodeLabel { fill: #151515; }

/* Brand (Red Hat red) */
#rh-diagram-svg .node.brand rect,
#rh-diagram-svg .node.brand polygon {
  fill: #fce3e3; /* --rh-color-red-10 */
  stroke: #ee0000; /* --rh-color-red-50 */
}
#rh-diagram-svg .node.brand .nodeLabel { fill: #5f0000; }

/* ============================================================
 * TOOLTIP
 * ============================================================ */

#rh-diagram-svg div.mermaidTooltip {
  font-family: "Red Hat Text", RedHatText, Helvetica, Arial, sans-serif;
  font-size: 12px;
  background: #ffffff;
  border: 1px solid #c7c7c7; /* --rh-color-gray-30 */
  border-radius: 3px; /* --rh-border-radius-default */
  color: #151515;
}
</style></svg>